<svg width="437" xmlns:ev="http://www.w3.org/2001/xml-events" viewBox="0 0 437 414" xmlns:xlink="http://www.w3.org/1999/xlink" xmlns="http://www.w3.org/2000/svg" height="414"><style type="text/css"><![CDATA[
.st1 {fill:#303030;font-family:Arial;font-size:9pt}
]]></style><defs/><g transform="translate(5,5)" id="page1"><rect width="427" x="0" y="0" fill="#ffffff" stroke="#808080" height="404"/><g transform="translate(40,40)" id="shape1"><text class="st1"><tspan x="10.4" y="14.3">res</tspan></text></g><g transform="translate(256.1,238)" id="shape2"><text class="st1"><tspan x="10.4" y="14.3">css</tspan></text></g><path d="M0,0L19.2,0L19.2,33.7L51.2,33.7" transform="translate(77.8,51.34)" fill="none" id="shape3" stroke="#000000"/><g transform="translate(128.98,73.66)" id="shape4"><text class="st1"><tspan x="10" y="14.3">webseite</tspan></text></g><path d="M0,0L27.1,0L27.1,25.5L59.1,25.5" transform="translate(197.02,85)" fill="none" id="shape5" stroke="#000000"/><g transform="translate(275.31,113.61)" id="shape6"><text class="st1"><tspan x="4.2" y="17.7">mainWindow.html</tspan><tspan x="4.2" y="31.7">thing.html</tspan><tspan x="4.2" y="45.7">property.html</tspan><tspan x="4.2" y="59.7">magic.html</tspan><tspan x="4.2" y="73.7">sensor.html</tspan><tspan x="4.2" y="87.7">datastream.html</tspan><tspan x="4.2" y="101.7">location.html</tspan></text></g><g transform="translate(256.1,99.16)" id="shape7"><text class="st1"><tspan x="7.4" y="14.3">html</tspan></text></g><g transform="translate(275.31,252.61)" id="shape8"><text class="st1"><tspan x="4.2" y="17.7">mainWindow.css</tspan><tspan x="4.2" y="31.7">thing.css</tspan><tspan x="4.2" y="45.7">property.css</tspan><tspan x="4.2" y="59.7">magic.css</tspan><tspan x="4.2" y="73.7">sensor.css</tspan><tspan x="4.2" y="87.7">datastream.css</tspan><tspan x="4.2" y="101.7">location.css</tspan></text></g><path d="M0,0L0,30.3L32.1,30.3" transform="translate(224,219)" fill="none" id="shape9" stroke="#000000"/><path d="M0,0L0,108.5" transform="translate(223.65,110.5)" fill="none" id="shape10" stroke="#000000"/></g></svg>