<svg width="939" xmlns:ev="http://www.w3.org/2001/xml-events" viewBox="0 0 939 660" xmlns:xlink="http://www.w3.org/1999/xlink" xmlns="http://www.w3.org/2000/svg" height="660"><style type="text/css"><![CDATA[
.st1 {fill:#303030;font-family:Arial;font-size:7.5pt;font-weight:bold}
.st2 {fill:#303030;font-family:Arial;font-size:7.5pt}
]]></style><defs><linearGradient id="lg1" y1="0%" y2="100%" x1="0%" x2="0%"><stop offset="0" stop-color="#fbfbfb"/><stop offset="1" stop-color="#efefef"/></linearGradient></defs><g transform="translate(5,5)" id="page1"><rect width="929" x="0" y="0" fill="#ffffff" stroke="#808080" height="650"/><g transform="translate(40,40.05)" id="shape1"><path stroke="#000000" stroke-opacity="0.08"/><path d="M0,0L848,0L848,569L0,569L0,0zM0,0L212,0L169.6,20L0,20L0,0" fill="none" stroke="#6d6d6d"/><text class="st1"><tspan x="29" y="13">SD Rückgabe fehlerhafter Zeilen</tspan></text></g><g transform="translate(74,87.05)"><path d="M2,2L96,2L96,36L2,36L2,2z" fill="#000000" fill-opacity="0.08"/><g id="shape2"><path d="M0,0L94,0L94,34L0,34L0,0z" fill="url(#lg1)" stroke="#6d6d6d"/><text class="st2"><tspan x="13.4" y="19.8">UploadHandler</tspan></text></g><path d="M47,34L47,504L47,34z" fill="none" id="shape3" stroke="#6d6d6d"/></g><g transform="translate(255,87.05)"><path d="M2,2L96,2L96,36L2,36L2,2z" fill="#000000" fill-opacity="0.08"/><g id="shape4"><path d="M0,0L94,0L94,34L0,34L0,0z" fill="url(#lg1)" stroke="#6d6d6d"/><text class="st2"><tspan x="9.4" y="13.8">ObservationCrea</tspan><tspan x="41.4" y="25.8">tor</tspan></text></g><path d="M47,34L47,504L47,34z" fill="none" id="shape5" stroke="#6d6d6d"/></g><g transform="translate(369,87.05)"><path d="M2,2L96,2L96,36L2,36L2,2z" fill="#000000" fill-opacity="0.08"/><g id="shape6"><path d="M0,0L94,0L94,34L0,34L0,0z" fill="url(#lg1)" stroke="#6d6d6d"/><text class="st2"><tspan x="18.4" y="19.8">ErrorHandler</tspan></text></g><path d="M47,34L47,504L47,34z" fill="none" id="shape7" stroke="#6d6d6d"/></g><g transform="translate(610,403.52)"><path d="M2,2L96,2L96,36L2,36L2,2z" fill="#000000" fill-opacity="0.08"/><g id="shape8"><path d="M0,0L94,0L94,34L0,34L0,0z" fill="url(#lg1)" stroke="#6d6d6d"/><text class="st2"><tspan x="25.4" y="19.8">RowTable</tspan></text></g><path d="M47,34L47,187.5L47,34z" fill="none" id="shape9" stroke="#6d6d6d"/></g><g transform="matrix(0,1,-1,0,128.6,171)" id="shape10"><path d="M2,-2L402,-2L402,13.1L2,13.1L2,-2z" fill="#000000" fill-opacity="0.08"/><path d="M0,0L400,0L400,15.1L0,15.1L0,0z" fill="url(#lg1)" stroke="#6d6d6d"/></g><g transform="matrix(0,1,-1,0,309.6,171)" id="shape11"><path d="M2,-2L77,-2L77,13.1L2,13.1L2,-2z" fill="#000000" fill-opacity="0.08"/><path d="M0,0L75,0L75,15.1L0,15.1L0,0z" fill="url(#lg1)" stroke="#6d6d6d"/></g><g transform="translate(128.56,196.05)" id="shape12"><path d="M0,-0L153.9,-0" fill="none" stroke="#000000"/><path d="M153.9,-6L165.9,-0L153.9,6L153.9,-6" fill="#000000" stroke-width="1" stroke="#000000" stroke-linecap="round"/><text class="st2"><tspan x="34.1" y="-19.7">1: create(Datastream </tspan><tspan x="21.1" y="-7.7">stream, Object result, time)</tspan></text></g><g transform="matrix(-1,0,0,-1,294.4,221)" id="shape13"><path stroke-dasharray="6,4" d="M0,-0L165.9,-0" fill="none" stroke="#000000"/><path d="M153.9,-6L165.9,-0L153.9,6" stroke-linejoin="round" fill="none" stroke-width="1" stroke="#000000" stroke-linecap="round"/><text class="st2" transform="matrix(-1,0,0,-1,149.3,33.5)"><tspan x="15.1" y="19.7">2: CreateEntityException e</tspan></text></g><g transform="translate(128.56,271.05)" id="shape14"><path d="M0,-0L267.9,-0" fill="none" stroke="#000000"/><path d="M267.9,-6L279.9,-0L267.9,6L267.9,-6" fill="#000000" stroke-width="1" stroke="#000000" stroke-linecap="round"/><text class="st2"><tspan x="92.9" y="-13.7">3: addRows(row, e)</tspan></text></g><g transform="matrix(0,1,-1,0,423.6,246)" id="shape15"><path d="M2,-2L77,-2L77,13.1L2,13.1L2,-2z" fill="#000000" fill-opacity="0.08"/><path d="M0,0L75,0L75,15.1L0,15.1L0,0z" fill="url(#lg1)" stroke="#6d6d6d"/></g><g transform="translate(664.56,87.05)"><path d="M2,2L96,2L96,36L2,36L2,2z" fill="#000000" fill-opacity="0.08"/><g id="shape16"><path d="M0,0L94,0L94,34L0,34L0,0z" fill="url(#lg1)" stroke="#6d6d6d"/><text class="st2"><tspan x="14.4" y="19.8">CSVConverter</tspan></text></g><path d="M47,34L47,504L47,34z" fill="none" id="shape17" stroke="#6d6d6d"/></g><g transform="translate(543,279)"><path d="M2,2L96,2L96,36L2,36L2,2z" fill="#000000" fill-opacity="0.08"/><g id="shape18"><path d="M0,0L94,0L94,34L0,34L0,0z" fill="url(#lg1)" stroke="#6d6d6d"/><text class="st2"><tspan x="18.4" y="19.8">SkippedRow</tspan></text></g><path d="M47,34L47,312L47,34z" fill="none" id="shape19" stroke="#6d6d6d"/></g><g transform="matrix(0,1,-1,0,423.6,371)" id="shape20"><path d="M2,-2L202,-2L202,13.1L2,13.1L2,-2z" fill="#000000" fill-opacity="0.08"/><path d="M0,0L200,0L200,15.1L0,15.1L0,0z" fill="url(#lg1)" stroke="#6d6d6d"/></g><g transform="translate(128.56,396.05)" id="shape21"><path d="M0,-0L267.9,-0" fill="none" stroke="#000000"/><path d="M267.9,-6L279.9,-0L267.9,6L267.9,-6" fill="#000000" stroke-width="1" stroke="#000000" stroke-linecap="round"/><text class="st2"><tspan x="101.4" y="-13.7">5: returnRows()</tspan></text></g><g transform="matrix(1,-0,0,1,423.6,296)" id="shape22"><path d="M0,-0L107.4,-0" fill="none" stroke="#000000"/><path d="M107.4,-6L119.4,-0L107.4,6L107.4,-6" fill="#000000" stroke-width="1" stroke="#000000" stroke-linecap="round"/><text class="st2"><tspan x="43.5" y="-19.7">4: new </tspan><tspan x="13.5" y="-7.7">SkippedRow(row, e)</tspan></text></g><g transform="matrix(1,-0,0,1,423.6,421)" id="shape23"><path d="M0,-0L174.4,-0" fill="none" stroke="#000000"/><path d="M174.4,-6L186.4,-0L174.4,6L174.4,-6" fill="#000000" stroke-width="1" stroke="#000000" stroke-linecap="round"/><text class="st2"><tspan x="19.1" y="-19.7">6: new RowTable(skippedRows) </tspan><tspan x="68.1" y="-7.7">errorTable</tspan></text></g><g transform="translate(423.56,471.05)" id="shape24"><path d="M0,-0L268.4,-0" fill="none" stroke="#000000"/><path d="M268.4,-6L280.4,-0L268.4,6L268.4,-6" fill="#000000" stroke-width="1" stroke="#000000" stroke-linecap="round"/><text class="st2"><tspan x="77.7" y="-13.7">7: convertBack(errorTable)</tspan></text></g><g transform="matrix(0,1,-1,0,719.1,446)" id="shape25"><path d="M2,-2L77,-2L77,13.1L2,13.1L2,-2z" fill="#000000" fill-opacity="0.08"/><path d="M0,0L75,0L75,15.1L0,15.1L0,0z" fill="url(#lg1)" stroke="#6d6d6d"/></g><g transform="matrix(-1,0,0,-1,704,496)" id="shape26"><path stroke-dasharray="6,4" d="M0,-0L280.4,-0" fill="none" stroke="#000000"/><path d="M268.4,-6L280.4,-0L268.4,6" stroke-linejoin="round" fill="none" stroke-width="1" stroke="#000000" stroke-linecap="round"/><text class="st2" transform="matrix(-1,0,0,-1,252.4,33.5)"><tspan x="89.2" y="19.7">8: File failedData</tspan></text></g><g transform="translate(775,87.05)"><path d="M2,2L96,2L96,36L2,36L2,2z" fill="#000000" fill-opacity="0.08"/><g id="shape27"><path d="M0,0L94,0L94,34L0,34L0,0z" fill="url(#lg1)" stroke="#6d6d6d"/><text class="st2"><tspan x="18.4" y="19.8">MainWindow</tspan></text></g><path d="M47,34L47,504L47,34z" fill="none" id="shape28" stroke="#6d6d6d"/></g><g transform="matrix(0,1,-1,0,829.6,521)" id="shape29"><path d="M2,-2L52,-2L52,13.1L2,13.1L2,-2z" fill="#000000" fill-opacity="0.08"/><path d="M0,0L50,0L50,15.1L0,15.1L0,0z" fill="url(#lg1)" stroke="#6d6d6d"/></g><g transform="translate(423.56,546.05)" id="shape30"><path d="M0,-0L378.9,-0" fill="none" stroke="#000000"/><path d="M378.9,-6L390.9,-0L378.9,6L378.9,-6" fill="#000000" stroke-width="1" stroke="#000000" stroke-linecap="round"/><text class="st2"><tspan x="145.9" y="-13.7">9: downloadErrors()</tspan></text></g></g></svg>