<svg width="644" xmlns:ev="http://www.w3.org/2001/xml-events" viewBox="0 0 644 483" xmlns:xlink="http://www.w3.org/1999/xlink" xmlns="http://www.w3.org/2000/svg" height="483"><style type="text/css"><![CDATA[
.st1 {fill:#303030;font-family:Arial;font-size:7.5pt}
]]></style><defs><linearGradient id="lg1" y1="0%" y2="100%" x1="0%" x2="0%"><stop offset="0" stop-color="#fbfbfb"/><stop offset="1" stop-color="#efefef"/></linearGradient></defs><g transform="translate(5,5)" id="page1"><rect width="634" x="0" y="0" fill="#ffffff" stroke="#808080" height="473"/><g transform="translate(40,40)" id="shape1"><path stroke="#000000" stroke-opacity="0.08"/><path d="M0,0L553,0L553,392L0,392L0,0zM0,0L138.3,0L110.6,20L0,20L0,0" fill="none" stroke="#6d6d6d"/><text class="st1"><tspan x="25.1" y="13">SD Quelldatei laden</tspan></text></g><g transform="translate(206,89)"><path d="M2,2L96,2L96,36L2,36L2,2z" fill="#000000" fill-opacity="0.08"/><g id="shape2"><path d="M0,0L94,0L94,34L0,34L0,0z" fill="url(#lg1)" stroke="#6d6d6d"/><text class="st1"><tspan x="18.4" y="19.8">MainWindow</tspan></text></g><path d="M47,34L47,324L47,34z" fill="none" id="shape3" stroke="#6d6d6d"/></g><g transform="translate(102,74)"><path d="M0,0L28,0L0,0z" transform="translate(-0.04,23.04)" fill="none" id="shape4" stroke="#6d6d6d"/><path d="M14,0L14,29.9L14,0zM0,52.1L14,30.2L0,52.1z" transform="translate(0,11.83)" fill="none" id="shape5" stroke="#6d6d6d"/><path d="M0,0L14,22.2L0,0z" transform="translate(14,41.73)" fill="none" id="shape6" stroke="#6d6d6d"/><path d="M0,7.2C0,3.2,3.1,0,6.8,0C10.6,0,13.6,3.2,13.6,7.2C13.6,11.1,10.6,14.3,6.8,14.3C3.1,14.3,0,11.1,0,7.2z" transform="translate(7.23,-0.05)" fill="url(#lg1)" id="shape7" stroke="#6d6d6d"/><text class="st1"><tspan x="-6" y="79">Benutzer</tspan></text></g><g transform="matrix(0,1,-1,0,260.6,173)" id="shape8"><path d="M2,-2L227,-2L227,13.1L2,13.1L2,-2z" fill="#000000" fill-opacity="0.08"/><path d="M0,0L225,0L225,15.1L0,15.1L0,0z" fill="url(#lg1)" stroke="#6d6d6d"/></g><g transform="matrix(0,1,-1,0,122.6,172.9)" id="shape9"><path d="M2,-2L242.1,-2L242.1,13.1L2,13.1L2,-2z" fill="#000000" fill-opacity="0.08"/><path d="M0,0L240.1,0L240.1,15.1L0,15.1L0,0z" fill="url(#lg1)" stroke="#6d6d6d"/></g><g transform="matrix(1,0,-0,1,122.6,197.9)" id="shape10"><path d="M0,-0L110.9,-0" fill="none" stroke="#000000"/><path d="M110.9,-6L122.9,-0L110.9,6L110.9,-6" fill="#000000" stroke-width="1" stroke="#000000" stroke-linecap="round"/><text class="st1"><tspan x="19.7" y="-19.7">1: Benutzer drückt </tspan><tspan x="13.7" y="-7.7">den "Browse"-Button</tspan></text></g><g transform="translate(337,89)"><path d="M2,2L96,2L96,36L2,36L2,2z" fill="#000000" fill-opacity="0.08"/><g id="shape11"><path d="M0,0L94,0L94,34L0,34L0,0z" fill="url(#lg1)" stroke="#6d6d6d"/><text class="st1"><tspan x="21.4" y="13.8">SourceFile-</tspan><tspan x="25.4" y="25.8">Controller</tspan></text></g><path d="M47,34L47,324L47,34z" fill="none" id="shape12" stroke="#6d6d6d"/></g><g transform="matrix(0,1,-1,0,391.6,223)" id="shape13"><path d="M2,-2L136,-2L136,13.1L2,13.1L2,-2z" fill="#000000" fill-opacity="0.08"/><path d="M0,0L134,0L134,15.1L0,15.1L0,0z" fill="url(#lg1)" stroke="#6d6d6d"/></g><g transform="translate(468,89)"><path d="M2,2L96,2L96,36L2,36L2,2z" fill="#000000" fill-opacity="0.08"/><g id="shape14"><path d="M0,0L94,0L94,34L0,34L0,0z" fill="url(#lg1)" stroke="#6d6d6d"/><text class="st1"><tspan x="19.4" y="19.8">FileManager</tspan></text></g><path d="M47,34L47,324L47,34z" fill="none" id="shape15" stroke="#6d6d6d"/></g><g transform="matrix(0,1,-1,0,522.6,248)" id="shape16"><path d="M2,-2L102,-2L102,13.1L2,13.1L2,-2z" fill="#000000" fill-opacity="0.08"/><path d="M0,0L100,0L100,15.1L0,15.1L0,0z" fill="url(#lg1)" stroke="#6d6d6d"/></g><g transform="translate(260.56,248)" id="shape17"><path d="M0,-0L103.9,-0" fill="none" stroke="#000000"/><path d="M103.9,-6L115.9,-0L103.9,6L103.9,-6" fill="#000000" stroke-width="1" stroke="#000000" stroke-linecap="round"/><text class="st1"><tspan x="18.3" y="-13.7">3: uploadFile(file)</tspan></text></g><g transform="translate(391.56,273)" id="shape18"><path d="M0,-0L103.9,-0" fill="none" stroke="#000000"/><path d="M103.9,-6L115.9,-0L103.9,6L103.9,-6" fill="#000000" stroke-width="1" stroke="#000000" stroke-linecap="round"/><text class="st1"><tspan x="2.8" y="-13.7">4: save("sourcefile", file)</tspan></text></g><g transform="matrix(-1,0,0,-1,507.4,323)" id="shape19"><path stroke-dasharray="6,4" d="M0,-0L115.9,-0" fill="none" stroke="#000000"/><path d="M103.9,-6L115.9,-0L103.9,6" stroke-linejoin="round" fill="none" stroke-width="1" stroke="#000000" stroke-linecap="round"/><text class="st1" transform="matrix(-1,0,0,-1,104.3,33.5)"><tspan x="21.1" y="19.7">5: statusCode</tspan></text></g><g transform="matrix(0,1,-1,0,260.6,198)" id="shape20"><path d="M0,0L0,-47.2L25,-47.2L25,-10.4" fill="none" stroke="#000000"/><path d="M25,0L27.6,-10.4L22.4,-10.4L25,0" fill="#000000" stroke-width="1" stroke="#000000" stroke-linecap="round"/><text class="st1" transform="matrix(0,-1,1,0,40.9,-71.6)"><tspan x="-39.9" y="-53.2">2: browse()</tspan></text></g><g transform="matrix(-1,0,0,-1,376.4,348)" id="shape21"><path stroke-dasharray="6,4" d="M0,-0L115.9,-0" fill="none" stroke="#000000"/><path d="M103.9,-6L115.9,-0L103.9,6" stroke-linejoin="round" fill="none" stroke-width="1" stroke="#000000" stroke-linecap="round"/><text class="st1" transform="matrix(-1,0,0,-1,104.3,33.5)"><tspan x="4.6" y="19.7">6: responseEntity&lt;?></tspan></text></g><g transform="matrix(-1,-0,0,-1,245.4,373)" id="shape22"><path stroke-dasharray="6,4" d="M0,-0L122.9,-0" fill="none" stroke="#000000"/><path d="M110.9,-6L122.9,-0L110.9,6" stroke-linejoin="round" fill="none" stroke-width="1" stroke="#000000" stroke-linecap="round"/><text class="st1" transform="matrix(-1,0,0,-1,110.6,33.5)"><tspan x="21.3" y="13.7">7: Nachricht für </tspan><tspan x="6.3" y="25.7">Ergebnis des Uploads</tspan></text></g></g></svg>