<svg width="3527" xmlns:ev="http://www.w3.org/2001/xml-events" viewBox="0 0 3527 1979" xmlns:xlink="http://www.w3.org/1999/xlink" xmlns="http://www.w3.org/2000/svg" height="1979"><style type="text/css"><![CDATA[
.st1 {fill:#1f6391;font-family:Arial;font-size:7.5pt}
.st2 {fill:#ffffff;font-family:Arial;font-size:7.5pt}
.st3 {font-family:.SF NS Text;font-size:9.29pt}
.st4 {font-family:.SF NS Text;font-size:9.75pt}
]]></style><defs/><g transform="translate(5,5)" id="page1"><rect width="3517" x="0" y="0" fill="#ffffff" stroke="#808080" height="1969"/><g transform="translate(40,40.08)"><g id="shape1"><path d="M0,0L0,309.8L899,309.8L899,65.2L340.9,65.2L340.9,0L0,0z" fill="#cfebf6"/><path d="M0,0L0,309.8L899,309.8L899,65.2L340.9,65.2L340.9,0L0,0zM340.9,65.2L0,65.2" fill="none" stroke="#83b3e3"/><text class="st1"><tspan x="420" y="184.5">«Stereotype»</tspan><tspan x="415" y="196.5">EntityController</tspan></text></g><g transform="translate(49,111.92)" id="table2"><g><path d="M0,0L207,0L207,52.5L0,52.5L0,0z" fill="#3498db" stroke="#7e7e7e"/><text class="st2"><tspan x="69" y="29.3">ThingController</tspan></text></g><g><path d="M0,52.5L207,52.5L207,84.5L0,84.5L0,52.5z" fill="#e8eff8" stroke="#7e7e7e"/><text class="st1"/></g><g><path d="M0,84.5L207,84.5L207,144.9L0,144.9L0,84.5z" fill="#ffffff" stroke="#7e7e7e"/><text class="st1"><tspan x="70" y="105.7">+ createThing()</tspan><tspan x="56" y="117.7">+ getThing(Integer id)</tspan><tspan x="47" y="129.7">+ getThings(String begin)</tspan></text></g></g></g><g transform="translate(1961.73,120.72)" id="table3"><g><path d="M0,0L302,0L302,58.6L0,58.6L0,0z" fill="#3498db" stroke="#7e7e7e"/><text class="st2"><tspan x="115" y="32.3">ConfigController</tspan></text></g><g><path d="M0,58.6L302,58.6L302,88L0,88L0,58.6z" fill="#e8eff8" stroke="#7e7e7e"/><text class="st1"/></g><g><path d="M0,88L302,88L302,148.4L0,148.4L0,88z" fill="#ffffff" stroke="#7e7e7e"/><text class="st1"><tspan x="98" y="109.2">+ createConfiguratrion()</tspan><tspan x="83" y="121.2">+ loadConfiguration(Integer id)</tspan><tspan x="106" y="133.2">+getConfigurations()</tspan></text></g></g><g transform="translate(1091,127.33)" id="table4"><g><path d="M0,0L155,0L155,58L0,58L0,0z" fill="#3498db" stroke="#7e7e7e"/><text class="st2"><tspan x="42" y="32">ImportController</tspan></text></g><g><path d="M0,58L155,58L155,86.6L0,86.6L0,58z" fill="#e8eff8" stroke="#7e7e7e"/><text class="st1"/></g><g><path d="M0,86.6L155,86.6L155,144.6L0,144.6L0,86.6z" fill="#ffffff" stroke="#7e7e7e"/><text class="st1"><tspan x="50" y="112.6">importData()</tspan><tspan x="45" y="124.6">showPreview()</tspan></text></g></g><g transform="translate(1520.37,122.59)" id="table5"><g><path d="M0,0L167,0L167,60.6L0,60.6L0,0z" fill="#3498db" stroke="#7e7e7e"/><text class="st2"><tspan x="38" y="33.3">SourceFileController</tspan></text></g><g><path d="M0,60.6L167,60.6L167,90.9L0,90.9L0,60.6z" fill="#e8eff8" stroke="#7e7e7e"/><text class="st1"/></g><g><path d="M0,90.9L167,90.9L167,144.6L0,144.6L0,90.9z" fill="#ffffff" stroke="#7e7e7e"/><text class="st1"><tspan x="41" y="120.8">+ loadFile() : String</tspan></text></g></g><g transform="translate(1979,673.27)" id="table6"><g><path d="M0,0L267.5,0L267.5,32.9L0,32.9L0,0z" fill="#3498db" stroke="#7e7e7e"/><text class="st2"><tspan x="104" y="19.4">Configuration</tspan></text></g><g><path d="M0,32.9L267.5,32.9L267.5,141.3L0,141.3L0,32.9z" fill="#e8eff8" stroke="#7e7e7e"/><text class="st1"><tspan x="106" y="60.1">+ id : Integer</tspan><tspan x="84" y="72.1">+ delimiter : Character</tspan><tspan x="84" y="84.1">+ headerlines : Integer</tspan><tspan x="89" y="96.1">+ timezone : Integer</tspan><tspan x="61" y="108.1">+ dateTime : List&lt;StringColumn></tspan><tspan x="43" y="120.1">+ streamData : List&lt;StreamObservation></tspan></text></g><g><path d="M0,141.3L267.5,141.3L267.5,217.7L0,217.7L0,141.3z" fill="#ffffff" stroke="#7e7e7e"/><text class="st1"><tspan x="21" y="170.4">+ &lt;&lt;static>> ConvertToJava(String) : Configuration</tspan><tspan x="90" y="182.4">+ serialize() : String</tspan></text></g></g><g transform="translate(2480,684.76)" id="table7"><g><path d="M0,0L122,0L122,33.9L0,33.9L0,0z" fill="#3498db" stroke="#7e7e7e"/><text class="st2"><tspan x="31" y="20">StringColumn</tspan></text></g><g><path d="M0,33.9L122,33.9L122,78.3L0,78.3L0,33.9z" fill="#e8eff8" stroke="#7e7e7e"/><text class="st1"><tspan x="44" y="53.1">+ String</tspan><tspan x="41" y="65.1">+ Integer</tspan></text></g></g><g transform="translate(2004.23,440)" id="table8"><g><path d="M0,0L217,0L217,36L0,36L0,0z" fill="#3498db" stroke="#7e7e7e"/><text class="st2"><tspan x="65" y="21">ConfigManagement</tspan></text></g><g><path d="M0,36L217,36L217,86.8L0,86.8L0,36z" fill="#e8eff8" stroke="#7e7e7e"/><text class="st1"><tspan x="64" y="58.4">- ConfigPath : String</tspan><tspan x="53" y="70.4">- ServerURLPath : String</tspan></text></g><g><path d="M0,86.8L217,86.8L217,179.2L0,179.2L0,86.8z" fill="#ffffff" stroke="#7e7e7e"/><text class="st1"><tspan x="22" y="118">+ loadConfig(Integer id) : Configuration</tspan><tspan x="45" y="130">+ saveConfig(Configuration) </tspan><tspan x="56" y="142">+ listAll() : List&lt;Integer></tspan><tspan x="68" y="154">+ getServer : URL</tspan></text></g></g><g transform="translate(2480,797.27)" id="table9"><g><path d="M0,0L179,0L179,28.9L0,28.9L0,0z" fill="#3498db" stroke="#7e7e7e"/><text class="st2"><tspan x="47" y="17.4">StreamObservation</tspan></text></g><g><path d="M0,28.9L179,28.9L179,89.3L0,89.3L0,28.9z" fill="#e8eff8" stroke="#7e7e7e"/><text class="st1"><tspan x="55" y="56.1">+ dsID : Integer</tspan><tspan x="26" y="68.1">+ observation : List&lt;Integer></tspan></text></g></g><path d="M0,0L233.6,0" transform="matrix(1,-0.02,0.02,1,2246.5,727.7)" fill="none" id="shape10" stroke="#000000"/><path d="M0,0L234.2,0" transform="matrix(1,-0.07,0.07,1,2246.5,836.5)" fill="none" id="shape11" stroke="#000000"/><path d="M0,0L54.1,0" transform="matrix(0,-1,1,0,2112.7,673.3)" fill="none" id="shape12" stroke="#000000"/><path d="M0,0L170.9,0" transform="matrix(0,1,-1,0,2112.7,269.1)" fill="none" id="shape13" stroke="#000000"/><g transform="translate(241,1083)" id="table14"><g><path d="M0,0L406,0L406,28.4L0,28.4L0,0z" fill="#3498db" stroke="#7e7e7e"/><text class="st2"><tspan x="154" y="17.2">&lt;&lt;static>>TimeParser</tspan></text></g><g><path d="M0,28.4L406,28.4L406,56.8L0,56.8L0,28.4z" fill="#e8eff8" stroke="#7e7e7e"/><text class="st1"><tspan x="13" y="45.6">- final map&lt;int, ZoneId> zones</tspan></text></g><g><path d="M0,56.8L406,56.8L406,197.2L0,197.2L0,56.8z" fill="#ffffff" stroke="#7e7e7e"/><text class="st1"><tspan x="13" y="106">+ toZonedDateTime(LocalDateTime time, ZoneId zone) : ZonedDateTime</tspan><tspan x="13" y="118">+ toLocalDateTime(String time, DateFormatter format) : LocalDatetime</tspan><tspan x="13" y="130">+ toLocalDateTime(List&lt;String> time, List&lt;DateFormatter> format) : LocalDateTime</tspan><tspan x="13" y="142">+ toZoneId(String zone) : ZoneId</tspan><tspan x="13" y="154">+ toZoneId(int id) : ZoneId</tspan></text></g></g><g transform="translate(670.48,1113.52)" id="table15"><g><path d="M0,0L372.5,0L372.5,46.4L0,46.4L0,0z" fill="#3498db" stroke="#7e7e7e"/><text class="st2"><tspan x="127" y="26.2">&lt;&lt;static>> CheckDuplicate</tspan></text></g><g><path d="M0,46.4L372.5,46.4L372.5,76.4L0,76.4L0,46.4z" fill="#e8eff8" stroke="#7e7e7e"/><text class="st1"/></g><g><path d="M0,76.4L372.5,76.4L372.5,217L0,217L0,76.4z" fill="#ffffff" stroke="#7e7e7e"/><text class="st1"><tspan x="13" y="119.7">+ find(SensorThingsService service, Object result, ZonedDateTime </tspan><tspan x="13" y="131.7">phenomenonTime) : boolean</tspan><tspan x="13" y="143.7">+ find(SensorThingsService service, Datastream stream, Object result, </tspan><tspan x="13" y="155.7">ZonedDateTime phenomenonTime) : boolean</tspan><tspan x="13" y="167.7">+ find(SensorThingsService service, MultiDatastream stream, Object result, </tspan><tspan x="13" y="179.7">ZonedDateTime phenomenonTime) : boolean</tspan></text></g></g><g transform="translate(1147.5,1083)" id="table16"><g><path d="M0,0L473,0L473,29.7L0,29.7L0,0z" fill="#3498db" stroke="#7e7e7e"/><text class="st2"><tspan x="168" y="17.8">&lt;&lt;static>> ObservationCreator</tspan></text></g><g><path d="M0,29.7L473,29.7L473,63.9L0,63.9L0,29.7z" fill="#e8eff8" stroke="#7e7e7e"/><text class="st1"/></g><g><path d="M0,63.9L473,63.9L473,278L0,278L0,63.9z" fill="#ffffff" stroke="#7e7e7e"/><text class="st1"><tspan x="38" y="125.9">+ create(SensorThingsService service, Datastream stream, Object result, ZonedDateTime </tspan><tspan x="164" y="137.9">phenomenonTime) : Observation</tspan><tspan x="27" y="149.9">+ create(SensorThingsService service, MultiDatastream stream, Object result, ZonedDateTime </tspan><tspan x="164" y="161.9">phenomenonTime) : Observation</tspan><tspan x="38" y="173.9">+ create(SensorThingsService service, Datastream stream, Object result, ZonedDateTime </tspan><tspan x="101" y="185.9">phenomenonTime, ZonedDateTime resultTime) : Observation</tspan><tspan x="27" y="197.9">+ create(SensorThingsService service, MultiDatastream stream, Object result, ZonedDateTime </tspan><tspan x="101" y="209.9">phenomenonTime, ZonedDateTime resultTime) : Observation</tspan><tspan x="131" y="221.9">+ combineResults(List&lt;Object> results) : Object</tspan></text></g></g><g transform="translate(993.5,410.98)" id="table17"><g><path d="M0,0L350,0L350,28.4L0,28.4L0,0z" fill="#3498db" stroke="#7e7e7e"/><text class="st2"><tspan x="142" y="17.2">UploadHandler</tspan></text></g><g><path d="M0,28.4L350,28.4L350,66.9L0,66.9L0,28.4z" fill="#e8eff8" stroke="#7e7e7e"/><text class="st1"><tspan x="154" y="50.7">Attributes</tspan></text></g><g><path d="M0,66.9L350,66.9L350,175.9L0,175.9L0,66.9z" fill="#ffffff" stroke="#7e7e7e"/><text class="st1"><tspan x="13" y="100.4">+ upload(Configuration config) : String //file->table, table verarbeiten</tspan><tspan x="13" y="112.4">- processTable(Configuration config, Table table, int step) : String //</tspan><tspan x="13" y="124.4">duplikat überprüfen, create obs</tspan></text></g></g><path d="M0,0L139,0" transform="matrix(0,-1,1,0,1168.5,411)" fill="none" id="shape18" stroke="#000000"/><g transform="translate(1015,625.92)" id="table19"><g><path d="M0,0L321,0L321,28.4L0,28.4L0,0z" fill="#3498db" stroke="#7e7e7e"/><text class="st2"><tspan x="83" y="17.2">&lt;&lt;abstract>> &lt;&lt;static>> Converter</tspan></text></g><g><path d="M0,28.4L321,28.4L321,53.6L0,53.6L0,28.4z" fill="#e8eff8" stroke="#7e7e7e"/><text class="st1"/></g><g><path d="M0,53.6L321,53.6L321,112L0,112L0,53.6z" fill="#ffffff" stroke="#7e7e7e"/><text class="st1"><tspan x="13" y="79.8">+ convert(File file, Configuration cfg): Table</tspan><tspan x="13" y="91.8">+ convertBack(Table table): File</tspan></text></g></g><g transform="translate(722,810.12)" id="table20"><g><path d="M0,0L321,0L321,28.4L0,28.4L0,0z" fill="#3498db" stroke="#7e7e7e"/><text class="st2"><tspan x="104" y="17.2">&lt;&lt;static>> CSVConverter</tspan></text></g><g><path d="M0,28.4L321,28.4L321,53.6L0,53.6L0,28.4z" fill="#e8eff8" stroke="#7e7e7e"/><text class="st1"/></g><g><path d="M0,53.6L321,53.6L321,128.1L0,128.1L0,53.6z" fill="#ffffff" stroke="#7e7e7e"/><text class="st1"><tspan x="13" y="81.9">+ convert(File file, Configuration cfg): Table</tspan><tspan x="13" y="93.9">+ convertBack(Table table): File</tspan><tspan x="13" y="105.9">- removeHeaders(File file): File</tspan></text></g></g><g transform="translate(1260.5,810.13)" id="table21"><g><path d="M0,0L321,0L321,28.4L0,28.4L0,0z" fill="#3498db" stroke="#7e7e7e"/><text class="st2"><tspan x="100" y="17.2"> &lt;&lt;static>> ExcelConverter</tspan></text></g><g><path d="M0,28.4L321,28.4L321,58.4L0,58.4L0,28.4z" fill="#e8eff8" stroke="#7e7e7e"/><text class="st1"/></g><g><path d="M0,58.4L321,58.4L321,116.8L0,116.8L0,58.4z" fill="#ffffff" stroke="#7e7e7e"/><text class="st1"><tspan x="13" y="84.6">+ convert(File file, Configuration cfg): Table</tspan><tspan x="13" y="96.6">+ convertBack(Table table): File</tspan></text></g></g><path stroke-dasharray="6,4" d="M0,0L-132.5,72.2" transform="translate(1095.25,737.97)" fill="none" id="shape22" stroke="#000000"/><path stroke-dasharray="6,4" d="M0,0L85,72.2" transform="translate(1255.75,737.97)" fill="none" id="shape23" stroke="#000000"/><path d="M0,0L170,0" transform="matrix(1,-0.05,0.05,1,1343.5,455)" fill="none" id="shape24" stroke="#000000"/><g transform="translate(1513.34,365)" id="table25"><g><path d="M0,0L181.1,0L181.1,31.2L0,31.2L0,0z" fill="#3498db" stroke="#7e7e7e"/><text class="st2"><tspan x="47" y="18.6">SourceFileManager</tspan></text></g><g><path d="M0,31.2L181.1,31.2L181.1,64.7L0,64.7L0,31.2z" fill="#e8eff8" stroke="#7e7e7e"/><text class="st1"><tspan x="63" y="51">- String path</tspan></text></g><g><path d="M0,64.7L181.1,64.7L181.1,109.1L0,109.1L0,64.7z" fill="#ffffff" stroke="#7e7e7e"/><text class="st1"><tspan x="67" y="83.9">+loadFile()</tspan><tspan x="66" y="95.9">+saveFile()</tspan></text></g></g><path d="M0,0L660.9,0" transform="matrix(1,-0.02,0.02,1,1343.5,542.9)" fill="none" id="shape26" stroke="#000000"/><path d="M0,0L97.8,0" transform="matrix(0,1,-1,0,1603.9,267.2)" fill="none" id="shape27" stroke="#000000"/><g transform="translate(271,554)" id="table28"><g><path d="M0,0L316,0L316,39.7L0,39.7L0,0z" fill="#3498db" stroke="#7e7e7e"/><text class="st2"><tspan x="146" y="22.9">Table</tspan></text></g><g><path d="M0,39.7L316,39.7L316,106.7L0,106.7L0,39.7z" fill="#e8eff8" stroke="#7e7e7e"/><text class="st1"><tspan x="13" y="70.2">- List&lt;List&lt;Object>> table</tspan><tspan x="13" y="82.2">- Integer id</tspan></text></g><g><path d="M0,106.7L316,106.7L316,423.1L0,423.1L0,106.7z" fill="#ffffff" stroke="#7e7e7e"/><text class="st1"><tspan x="13" y="159.9">+ Table(Table t, String id): void</tspan><tspan x="13" y="171.9">+ Table(String id): void</tspan><tspan x="13" y="183.9">+ getElement(int row, int column): Object</tspan><tspan x="13" y="195.9">+ getRow(int row): List&lt;Object></tspan><tspan x="13" y="207.9">+ getColumn(int column): List&lt;Object></tspan><tspan x="13" y="219.9">+ getFirstRow(): List&lt;Object></tspan><tspan x="13" y="231.9">+ getLastRow(): List&lt;Object></tspan><tspan x="13" y="243.9">+ setElement(Object o, int row, int column): void</tspan><tspan x="13" y="255.9">+ setRow(List&lt;Object>, int row): void</tspan><tspan x="13" y="267.9">+ setColumn(List&lt;Object>, int column): void</tspan><tspan x="13" y="279.9">+ appendRow(List&lt;Object> row): void</tspan><tspan x="13" y="291.9">+ appendColumn(List&lt;Object> column): void</tspan><tspan x="13" y="303.9">+ getRowCount(): int</tspan><tspan x="13" y="315.9">+ getColumnCount(): int</tspan><tspan x="13" y="327.9">+ getID(): String</tspan><tspan x="13" y="339.9">+ clone(): Table</tspan><tspan x="13" y="351.9">+ clear(): void</tspan><tspan x="13" y="363.9">+ isEmpty(): boolean</tspan><tspan x="13" y="375.9">+ equals(Table o): boolean</tspan></text></g></g><g transform="translate(2873.57,386.31)" id="table29"><g><path d="M0,0L583.5,0L583.5,65.8L0,65.8L0,0z" fill="#3498db" stroke="#7e7e7e"/><text class="st2"><tspan x="221" class="st3" y="36.4">&lt;Singleton> LogManager</tspan></text></g><g><path d="M0,65.8L583.5,65.8L583.5,186.2L0,186.2L0,65.8z" fill="#e8eff8" stroke="#7e7e7e"/><text class="st1"><tspan x="13" class="st4" y="84.8">- final static LogManager logManager  // Die einzige LogManager-Instanz </tspan><tspan x="13" class="st4" y="100.8">- final Logger log</tspan><tspan x="13" class="st4" y="116.8">- static FileHandler txtFile</tspan><tspan x="13" class="st4" y="132.8">- static SimpleFormatter formatter</tspan></text></g><g><path d="M0,186.2L583.5,186.2L583.5,308.7L0,308.7L0,186.2z" fill="#ffffff" stroke="#7e7e7e"/><text class="st1"><tspan x="13" y="220.5">- LogManager() : LogManager  // Privater Konstruktor um mehrfache Erstellung zu unterbinden</tspan><tspan x="13" y="232.5">- initLog() : void</tspan><tspan x="13" y="244.5">+ getLog() : Logger</tspan><tspan x="13" y="256.5">+ static getInstance() : LogManager  // Verweist auf den einmaligen LogManager</tspan><tspan x="13" y="268.5">+ writeToLog(String message, boolean severe) : void // Schreibt &lt;msg> als info in das Log wenn &lt;severe> false ist,</tspan><tspan x="13" y="280.5">sonst als severe.</tspan></text></g></g><g transform="translate(2899.19,771)" id="table30"><g><path d="M0,0L557.9,0L557.9,62.9L0,62.9L0,0z" fill="#3498db" stroke="#7e7e7e"/><text class="st2"><tspan x="207" class="st3" y="35">&lt;Singleton> ErrorHandler</tspan></text></g><g><path d="M0,62.9L557.9,62.9L557.9,156.9L0,156.9L0,62.9z" fill="#e8eff8" stroke="#7e7e7e"/><text class="st1"><tspan x="13" class="st4" y="81.9">- final static ErrorHandler errorHandler</tspan><tspan x="13" class="st3" y="96.9">- String path</tspan><tspan x="13" class="st3" y="111.9">- List&lt;skippedRow></tspan></text></g><g><path d="M0,156.9L557.9,156.9L557.9,264.4L0,264.4L0,156.9z" fill="#ffffff" stroke="#7e7e7e"/><text class="st1"><tspan x="13" class="st4" y="184.1"> - ErrorHandler() : ErrorHandler}  Privater Konstruktor für Singleton</tspan><tspan x="13" class="st4" y="200.1">+ static getInstance() : ErrorHandler} Verweist auf die ErrorHandler Instanz</tspan><tspan x="13" class="st3" y="215.1">+ addRows(int row, Exception e) : void   Fügt ein neues skippedRow Objekt zur Liste hinzu mit </tspan><tspan x="13" class="st3" y="230.1">der übersprungenen Zeile und der  </tspan><tspan x="13" class="st3" y="245.1">   Exception als Information </tspan></text></g></g><g transform="translate(368,1538.26)" id="shape31"><path d="M0,0L0,393L1578,393L1578,82.7L598.3,82.7L598.3,0L0,0z" fill="#e8eff8"/><path d="M0,0L0,393L1578,393L1578,82.7L598.3,82.7L598.3,0L0,0zM598.3,82.7L0,82.7" fill="none" stroke="#83b3e3"/><text class="st1"><tspan x="694" y="240.9">Frost-Client</tspan></text></g><path d="M0,0L104.5,0" transform="translate(1043,1222)" fill="none" id="shape32" stroke="#000000"/><path d="M0,0L428,0" transform="matrix(1,-0.01,0.01,1,587,659.8)" fill="none" id="shape33" stroke="#000000"/><g transform="translate(2876.52,1162.42)" id="table34"><g><path d="M0,0L603.2,0L603.2,68L0,68L0,0z" fill="#3498db" stroke="#7e7e7e"/><text class="st2"><tspan x="267" class="st3" y="37.5">skippedRow</tspan></text></g><g><path d="M0,68L603.2,68L603.2,148.7L0,148.7L0,68z" fill="#e8eff8" stroke="#7e7e7e"/><text class="st1"><tspan x="13" class="st3" y="86">+ int row</tspan><tspan x="13" class="st3" y="101">+ Exception e</tspan></text></g><g><path d="M0,148.7L603.2,148.7L603.2,275.3L0,275.3L0,148.7z" fill="#ffffff" stroke="#7e7e7e"/><text class="st1"/></g></g><path d="M0,0L146.1,0" transform="matrix(0,1,-1,0,3178.1,1016.4)" fill="none" id="shape35" stroke="#000000"/></g></svg>