<svg width="1065" xmlns:ev="http://www.w3.org/2001/xml-events" viewBox="0 0 1065 1090" xmlns:xlink="http://www.w3.org/1999/xlink" xmlns="http://www.w3.org/2000/svg" height="1090"><style type="text/css"><![CDATA[
.st1 {fill:#303030;font-family:Arial;font-size:7.5pt}
]]></style><defs><linearGradient id="lg1" y1="0%" y2="100%" x1="0%" x2="0%"><stop offset="0" stop-color="#fbfbfb"/><stop offset="1" stop-color="#efefef"/></linearGradient></defs><g transform="translate(5,5)" id="page1"><rect width="1055" x="0" y="0" fill="#ffffff" stroke="#808080" height="1080"/><g transform="translate(41,202.29)"><g id="shape1"><path d="M973.2,685.9L973.2,2L2,2L2,685.9L973.2,685.9z" fill="#000000" fill-opacity="0.08"/><path d="M971.2,683.9L971.2,0L0,0L0,683.9L971.2,683.9z" fill="url(#lg1)" stroke="#6d6d6d"/></g><text class="st1"><tspan x="8.1" y="345">Backend</tspan></text></g><g transform="translate(792,218)"><g id="shape2"><path d="M96,654L96,2L2,2L2,654L96,654z" fill="#000000" fill-opacity="0.08"/><path d="M94,652L94,0L0,0L0,652L94,652z" fill="url(#lg1)" stroke="#6d6d6d"/></g><text class="st1"><tspan x="11" y="323">Fehlermanagem</tspan><tspan x="40" y="335">ent</tspan></text></g><g transform="translate(900,218)"><g id="shape3"><path d="M96,654L96,2L2,2L2,654L96,654z" fill="#000000" fill-opacity="0.08"/><path d="M94,652L94,0L0,0L0,652L94,652z" fill="url(#lg1)" stroke="#6d6d6d"/></g><text class="st1"><tspan x="10" y="329">Logmanagement</tspan></text></g><g transform="translate(40,949)"><g id="shape4"><path d="M976,92L976,2L2,2L2,92L976,92z" fill="#000000" fill-opacity="0.08"/><path d="M974,90L974,0L0,0L0,90L974,90z" fill="url(#lg1)" stroke="#6d6d6d"/></g><text class="st1"><tspan x="8" y="48">FROST-Server</tspan></text></g><g transform="translate(137.76,221.45)"><g id="shape5"><path d="M115.4,47.4L115.4,2L2,2L2,47.4L115.4,47.4z" fill="#000000" fill-opacity="0.08"/><path d="M113.4,45.4L113.4,0L0,0L0,45.4L113.4,45.4z" fill="url(#lg1)" stroke="#6d6d6d"/></g><text class="st1"><tspan x="21.2" y="25.7">Entity-Controller</tspan></text></g><g transform="translate(133.26,815.05)"><g id="shape6"><path d="M559.2,47.4L559.2,2L2,2L2,47.4L559.2,47.4z" fill="#000000" fill-opacity="0.08"/><path d="M557.2,45.4L557.2,0L0,0L0,45.4L557.2,45.4z" fill="url(#lg1)" stroke="#6d6d6d"/></g><text class="st1"><tspan x="247.1" y="25.7">FROST-Client</tspan></text></g><g transform="translate(40,39.55)"><g><g id="shape7"><path d="M976,99.4L976,2L2,2L2,99.4L976,99.4z" fill="#000000" fill-opacity="0.08"/><path d="M974,97.4L974,0L0,0L0,97.4L974,97.4z" fill="url(#lg1)" stroke="#6d6d6d"/></g><text class="st1"><tspan x="8" y="51.7">Frontend</tspan></text></g><g transform="translate(544,20.72)"><g id="shape8"><path d="M325.1,58L325.1,2L2,2L2,58L325.1,58z" fill="#000000" fill-opacity="0.08"/><path d="M323.1,56L323.1,0L0,0L0,56L323.1,56z" fill="url(#lg1)" stroke="#6d6d6d"/></g><text class="st1"><tspan x="111.1" y="31">Webseiten-Darstellung</tspan></text></g></g><g transform="translate(666,297.04)"><g id="shape9"><path d="M96.5,47.4L96.5,2L2,2L2,47.4L96.5,47.4z" fill="#000000" fill-opacity="0.08"/><path d="M94.5,45.4L94.5,0L0,0L0,45.4L94.5,45.4z" fill="url(#lg1)" stroke="#6d6d6d"/></g><text class="st1"><tspan x="13.2" y="19.7">Konfigurations-</tspan><tspan x="18.2" y="31.7">management</tspan></text></g><g transform="translate(413.23,221.45)"><g id="shape10"><path d="M228.8,47.4L228.8,2L2,2L2,47.4L228.8,47.4z" fill="#000000" fill-opacity="0.08"/><path d="M226.8,45.4L226.8,0L0,0L0,45.4L226.8,45.4z" fill="url(#lg1)" stroke="#6d6d6d"/></g><text class="st1"><tspan x="28.4" y="25.7">Import-Controller mit Preview-Funktion</tspan></text></g><g transform="translate(666,221.45)"><g id="shape11"><path d="M96.5,47.4L96.5,2L2,2L2,47.4L96.5,47.4z" fill="#000000" fill-opacity="0.08"/><path d="M94.5,45.4L94.5,0L0,0L0,45.4L94.5,45.4z" fill="url(#lg1)" stroke="#6d6d6d"/></g><text class="st1"><tspan x="13.2" y="19.7">Konfigurations-</tspan><tspan x="25.2" y="31.7">Controller</tspan></text></g><g transform="translate(684.9,365.07)" id="shape12"><path d="M2,7.7L2,41.7C2,44.8,14.7,47.4,30.3,47.4C46,47.4,58.7,44.8,58.7,41.7L58.7,7.7C58.7,4.5,46,2,30.3,2C14.7,2,2,4.5,2,7.7z" fill="#000000" fill-opacity="0.08"/><path d="M0,5.7L0,39.7C-0,42.8,12.7,45.4,28.3,45.4C44,45.4,56.7,42.8,56.7,39.7L56.7,5.7C56.7,2.5,44,-0,28.3,-0C12.7,-0,-0,2.5,0,5.7z" fill="url(#lg1)"/><path d="M0,5.7L0,39.7C-0,42.8,12.7,45.4,28.3,45.4C44,45.4,56.7,42.8,56.7,39.7L56.7,5.7C56.7,2.5,44,-0,28.3,-0C12.7,-0,-0,2.5,0,5.7zM0,5.7C-0,8.8,12.7,11.3,28.3,11.3C44,11.3,56.7,8.8,56.7,5.7" fill="none" stroke="#6d6d6d"/></g><g transform="translate(713.24,342.39)" id="shape13"><path d="M0,0L0,18.3" fill="none" stroke="#6d6d6d"/><path d="M0,22.7L3,17.5C2.1,18,1.1,18.3,0,18.3C-1.1,18.3,-2.1,18,-3,17.5L0,22.7" fill="#6d6d6d" stroke-width="1" stroke="#6d6d6d" stroke-linecap="round"/></g><g transform="translate(713.24,266.8)" id="shape14"><path d="M0,0L0,25.8" fill="none" stroke="#6d6d6d"/><path d="M0,30.2L3,25C2.1,25.6,1.1,25.8,0,25.8C-1.1,25.8,-2.1,25.6,-3,25L0,30.2" fill="#6d6d6d" stroke-width="1" stroke="#6d6d6d" stroke-linecap="round"/></g><g transform="translate(526.23,513.55)" id="shape15"><path d="M0,0L0,61.3" fill="none" stroke="#6d6d6d"/><path d="M0,65.7L3,60.5C2.1,61,1.1,61.3,0,61.3C-1.1,61.3,-2.1,61,-3,60.5L0,65.7" fill="#6d6d6d" stroke-width="1" stroke="#6d6d6d" stroke-linecap="round"/></g><g transform="translate(138.13,60.28)"><g id="shape16"><path d="M325.8,58L325.8,2L2,2L2,58L325.8,58z" fill="#000000" fill-opacity="0.08"/><path d="M323.8,56L323.8,0L0,0L0,56L323.8,56z" fill="url(#lg1)" stroke="#6d6d6d"/></g><text class="st1"><tspan x="146.4" y="31">Skripte</tspan></text></g><g transform="translate(194.45,266.8)" id="shape17"><path d="M0,0L0,274.6L-0.4,543.8" fill="none" stroke="#6d6d6d"/><path d="M-0.4,548.2L2.6,543C1.7,543.5,.6,543.8,-0.4,543.8C-1.5,543.8,-2.6,543.5,-3.4,543L-0.4,548.2" fill="#6d6d6d" stroke-width="1" stroke="#6d6d6d" stroke-linecap="round"/></g><g transform="translate(526.62,773.25)" id="shape18"><path d="M0,0L0,25.8L-114.7,25.8L-114.7,37.4" fill="none" stroke="#6d6d6d"/><path d="M-114.7,41.8L-111.7,36.6C-112.6,37.1,-113.6,37.4,-114.7,37.4C-115.8,37.4,-116.9,37.1,-117.7,36.6L-114.7,41.8" fill="#6d6d6d" stroke-width="1" stroke="#6d6d6d" stroke-linecap="round"/></g><g transform="translate(526.23,624.62)" id="shape19"><path d="M0,0L0,61.3" fill="none" stroke="#6d6d6d"/><path d="M0,65.7L3,60.5C2.1,61,1.1,61.3,0,61.3C-1.1,61.3,-2.1,61,-3,60.5L0,65.7" fill="#6d6d6d" stroke-width="1" stroke="#6d6d6d" stroke-linecap="round"/></g><g transform="translate(527,137)" id="shape20"><path d="M0,0L0,33.3L-0.4,65.3" fill="none" stroke="#000000"/><path d="M5.8,53.4L-0.4,65.3L-6.2,53.2" stroke-linejoin="round" fill="none" stroke-width="1" stroke="#000000" stroke-linecap="round"/></g><g transform="translate(526.62,202.29)" id="shape21"><path d="M0,0L0,-33.3L.4,-65.3" fill="none" stroke="#000000"/><path d="M-5.8,-53.4L.4,-65.3L6.2,-53.2" stroke-linejoin="round" fill="none" stroke-width="1" stroke="#000000" stroke-linecap="round"/></g><g transform="translate(526.62,886.23)" id="shape22"><path d="M0,0L0,30.8L.4,62.8" fill="none" stroke="#000000"/><path d="M6.2,50.7L.4,62.8L-5.8,50.8" stroke-linejoin="round" fill="none" stroke-width="1" stroke="#000000" stroke-linecap="round"/></g><g transform="translate(527,949)" id="shape23"><path d="M0,0L0,-30.8L-0.4,-62.8" fill="none" stroke="#000000"/><path d="M-6.2,-50.7L-0.4,-62.8L5.8,-50.8" stroke-linejoin="round" fill="none" stroke-width="1" stroke="#000000" stroke-linecap="round"/></g><g transform="translate(413.23,297.04)"><g id="shape24"><path d="M228.8,47.4L228.8,2L2,2L2,47.4L228.8,47.4z" fill="#000000" fill-opacity="0.08"/><path d="M226.8,45.4L226.8,0L0,0L0,45.4L226.8,45.4z" fill="url(#lg1)" stroke="#6d6d6d"/></g><text class="st1"><tspan x="80.4" y="25.7">UploadHandler</tspan></text></g><g transform="translate(526.62,266.8)" id="shape25"><path d="M0,0L0,25.8" fill="none" stroke="#6d6d6d"/><path d="M0,30.2L3,25C2.1,25.6,1.1,25.8,0,25.8C-1.1,25.8,-2.1,25.6,-3,25L0,30.2" fill="#6d6d6d" stroke-width="1" stroke="#6d6d6d" stroke-linecap="round"/></g><g transform="translate(526.62,342.39)" id="shape26"><path d="M0,0L-0,89.5" fill="none" stroke="#6d6d6d"/><path d="M-0,93.9L3,88.7C2.1,89.2,1.1,89.5,-0,89.5C-1.1,89.5,-2.1,89.2,-3,88.7L-0,93.9" fill="#6d6d6d" stroke-width="1" stroke="#6d6d6d" stroke-linecap="round"/></g><g transform="translate(526.23,513.55)" id="shape27"><path d="M0,0L0,61.3" fill="none" stroke="#6d6d6d"/><path d="M0,65.7L3,60.5C2.1,61,1.1,61.3,0,61.3C-1.1,61.3,-2.1,61,-3,60.5L0,65.7" fill="#6d6d6d" stroke-width="1" stroke="#6d6d6d" stroke-linecap="round"/></g><g transform="translate(526.23,624.62)" id="shape28"><path d="M0,0L0,61.3" fill="none" stroke="#6d6d6d"/><path d="M0,65.7L3,60.5C2.1,61,1.1,61.3,0,61.3C-1.1,61.3,-2.1,61,-3,60.5L0,65.7" fill="#6d6d6d" stroke-width="1" stroke="#6d6d6d" stroke-linecap="round"/></g><g transform="translate(352,436.25)"><g transform="translate(6.67,0)" id="shape29"><path d="M2,2L337.9,2L337.9,339L2,339L2,2z" fill="#000000" fill-opacity="0.08"/><path d="M0,0L335.9,0L335.9,337L0,337L0,0z" fill="url(#lg1)"/><path d="M0,0L335.9,0L335.9,337L0,337L0,0zM0,0L84,0L67.2,20L0,20L0,0" fill="none" stroke="#6d6d6d"/><text class="st1"><tspan x="14.5" y="13">Upload-Pipe</tspan></text><text class="st1"><tspan x="4.4" y="33">[parameters]</tspan></text></g><g transform="translate(60.85,254.09)"><g id="shape30"><path d="M228.8,47.4L228.8,2L2,2L2,47.4L228.8,47.4z" fill="#000000" fill-opacity="0.08"/><path d="M226.8,45.4L226.8,0L0,0L0,45.4L226.8,45.4z" fill="url(#lg1)" stroke="#6d6d6d"/></g><text class="st1"><tspan x="69.4" y="25.7">Duplikat-Überprüfer</tspan></text></g><g transform="translate(60.85,31.94)"><g id="shape31"><path d="M228.8,47.4L228.8,2L2,2L2,47.4L228.8,47.4z" fill="#000000" fill-opacity="0.08"/><path d="M226.8,45.4L226.8,0L0,0L0,45.4L226.8,45.4z" fill="url(#lg1)" stroke="#6d6d6d"/></g><text class="st1"><tspan x="75.4" y="25.7">Dateikonvertierer</tspan></text></g><g transform="translate(60.85,143.01)"><g id="shape32"><path d="M228.8,47.4L228.8,2L2,2L2,47.4L228.8,47.4z" fill="#000000" fill-opacity="0.08"/><path d="M226.8,45.4L226.8,0L0,0L0,45.4L226.8,45.4z" fill="url(#lg1)" stroke="#6d6d6d"/></g><text class="st1"><tspan x="77.4" y="25.7">Datentyp-Parser</tspan></text></g></g><g transform="translate(526.23,513.55)" id="shape33"><path d="M0,0L0,61.3" fill="none" stroke="#6d6d6d"/><path d="M0,65.7L3,60.5C2.1,61,1.1,61.3,0,61.3C-1.1,61.3,-2.1,61,-3,60.5L0,65.7" fill="#6d6d6d" stroke-width="1" stroke="#6d6d6d" stroke-linecap="round"/></g><g transform="translate(526.23,624.62)" id="shape34"><path d="M0,0L0,61.3" fill="none" stroke="#6d6d6d"/><path d="M0,65.7L3,60.5C2.1,61,1.1,61.3,0,61.3C-1.1,61.3,-2.1,61,-3,60.5L0,65.7" fill="#6d6d6d" stroke-width="1" stroke="#6d6d6d" stroke-linecap="round"/></g><g transform="translate(640.01,319.72)" id="shape35"><path d="M0,0L21.6,0" fill="none" stroke="#6d6d6d"/><path d="M26,0L20.8,-3C21.3,-2.1,21.6,-1.1,21.6,0C21.6,1.1,21.3,2.1,20.8,3L26,0" fill="#6d6d6d" stroke-width="1" stroke="#6d6d6d" stroke-linecap="round"/></g><g transform="translate(284.27,221.45)"><g id="shape36"><path d="M96.5,47.4L96.5,2L2,2L2,47.4L96.5,47.4z" fill="#000000" fill-opacity="0.08"/><path d="M94.5,45.4L94.5,0L0,0L0,45.4L94.5,45.4z" fill="url(#lg1)" stroke="#6d6d6d"/></g><text class="st1"><tspan x="21.2" y="19.7">SourceFile-</tspan><tspan x="25.2" y="31.7">Controller</tspan></text></g><g transform="translate(284.27,297.04)"><g id="shape37"><path d="M96.5,47.4L96.5,2L2,2L2,47.4L96.5,47.4z" fill="#000000" fill-opacity="0.08"/><path d="M94.5,45.4L94.5,0L0,0L0,45.4L94.5,45.4z" fill="url(#lg1)" stroke="#6d6d6d"/></g><text class="st1"><tspan x="8.2" y="25.7">File-Management</tspan></text></g><g transform="translate(303.17,365.07)" id="shape38"><path d="M2,7.7L2,41.7C2,44.8,14.7,47.4,30.3,47.4C46,47.4,58.7,44.8,58.7,41.7L58.7,7.7C58.7,4.5,46,2,30.3,2C14.7,2,2,4.5,2,7.7z" fill="#000000" fill-opacity="0.08"/><path d="M0,5.7L0,39.7C-0,42.8,12.7,45.4,28.3,45.4C44,45.4,56.7,42.8,56.7,39.7L56.7,5.7C56.7,2.5,44,-0,28.3,-0C12.7,-0,-0,2.5,0,5.7z" fill="url(#lg1)"/><path d="M0,5.7L0,39.7C-0,42.8,12.7,45.4,28.3,45.4C44,45.4,56.7,42.8,56.7,39.7L56.7,5.7C56.7,2.5,44,-0,28.3,-0C12.7,-0,-0,2.5,0,5.7zM0,5.7C-0,8.8,12.7,11.3,28.3,11.3C44,11.3,56.7,8.8,56.7,5.7" fill="none" stroke="#6d6d6d"/></g><g transform="translate(331.51,266.8)" id="shape39"><path d="M0,0L0,25.8" fill="none" stroke="#6d6d6d"/><path d="M0,30.2L3,25C2.1,25.6,1.1,25.8,0,25.8C-1.1,25.8,-2.1,25.6,-3,25L0,30.2" fill="#6d6d6d" stroke-width="1" stroke="#6d6d6d" stroke-linecap="round"/></g><g transform="translate(331.51,342.39)" id="shape40"><path d="M0,0L0,18.3" fill="none" stroke="#6d6d6d"/><path d="M0,22.7L3,17.5C2.1,18,1.1,18.3,0,18.3C-1.1,18.3,-2.1,18,-3,17.5L0,22.7" fill="#6d6d6d" stroke-width="1" stroke="#6d6d6d" stroke-linecap="round"/></g><g transform="translate(413.23,319.72)" id="shape41"><path d="M0,0L-30.1,0" fill="none" stroke="#6d6d6d"/><path d="M-34.5,0L-29.3,3C-29.8,2.1,-30.1,1.1,-30.1,0C-30.1,-1.1,-29.8,-2.1,-29.3,-3L-34.5,0" fill="#6d6d6d" stroke-width="1" stroke="#6d6d6d" stroke-linecap="round"/></g></g></svg>