<svg xmlns:xlink="http://www.w3.org/1999/xlink" xmlns:ev="http://www.w3.org/2001/xml-events" viewBox="0 0 1597 2255" height="2255" xmlns="http://www.w3.org/2000/svg" width="1597"><style type="text/css"><![CDATA[
.st2 {fill:#303030;font-family:Arial;font-size:12pt;font-weight:bold}
.st1 {fill:#303030;font-family:Arial;font-size:12pt}
]]></style><defs><linearGradient id="lg1" y1="0%" x2="0%" x1="0%" y2="100%"><stop offset="0" stop-color="#fbfbfb"/><stop offset="1" stop-color="#efefef"/></linearGradient></defs><g transform="translate(5,5)" id="page1"><rect y="0" x="0" fill="#ffffff" height="2245" width="1587" stroke="#808080"/><g transform="translate(95,1352.81)"><g id="shape1"><path fill="#000000" fill-opacity="0.08" d="M973.2,685.9L973.2,2L2,2L2,685.9L973.2,685.9z"/><path fill="url(#lg1)" d="M971.2,683.9L971.2,0L0,0L0,683.9L971.2,683.9z" stroke="#6d6d6d"/></g><text class="st1"><tspan y="347.6" x="6.5">Backend</tspan></text></g><g transform="translate(449,1602)"><g id="shape2"><path fill="#000000" fill-opacity="0.08" d="M266,304L266,2L2,2L2,304L266,304z"/><path fill="url(#lg1)" d="M264,302L264,0L0,0L0,302L264,302z" stroke="#6d6d6d"/></g><text class="st1"><tspan y="156.6" x="72">Dateikonvertierer</tspan></text></g><g transform="translate(95,1060.06)"><g><g id="shape3"><path fill="#000000" fill-opacity="0.08" d="M976,246.5L976,2L2,2L2,246.5L976,246.5z"/><path fill="url(#lg1)" d="M974,244.5L974,0L0,0L0,244.5L974,244.5z" stroke="#6d6d6d"/></g><text class="st1"><tspan y="127.9" x="904.8">Frontend</tspan></text></g></g><g transform="translate(639.5,1071.32)"><g id="shape4"><path fill="#000000" fill-opacity="0.08" d="M357,224L357,2L2,2L2,224L357,224z"/><path fill="url(#lg1)" d="M355,222L355,0L0,0L0,222L355,222z" stroke="#6d6d6d"/></g><text class="st1"><tspan y="97.4" x="6.4">Anzeigen</tspan><tspan y="135.8" x="6.4">(HTML)</tspan></text></g><g transform="translate(103,1071.32)"><g id="shape5"><path fill="#000000" fill-opacity="0.08" d="M357,224L357,2L2,2L2,224L357,224z"/><path fill="url(#lg1)" d="M355,222L355,0L0,0L0,222L355,222z" stroke="#6d6d6d"/></g><text class="st1"><tspan y="106.6" x="6.4">Skripte</tspan></text></g><g transform="translate(846,1368.52)"><g id="shape6"><path fill="#000000" fill-opacity="0.08" d="M101,654L101,2L2,2L2,654L101,654z"/><path fill="url(#lg1)" d="M99,652L99,0L0,0L0,652L99,652z" stroke="#6d6d6d"/></g><text class="st1"><tspan y="312.4" x="24.8">Fehler- </tspan><tspan y="331.6" x="6.4">managemen</tspan><tspan y="350.8" x="47.2">t</tspan></text></g><g transform="translate(954,1368.52)"><g id="shape7"><path fill="#000000" fill-opacity="0.08" d="M97,654L97,2L2,2L2,654L97,654z"/><path fill="url(#lg1)" d="M95,652L95,0L0,0L0,652L95,652z" stroke="#6d6d6d"/></g><text class="st1"><tspan y="312.4" x="31.2">Log-</tspan><tspan y="331.6" x="8.8">manageme</tspan><tspan y="350.8" x="40.8">nt</tspan></text></g><g transform="translate(94,2099.52)"><g id="shape8"><path fill="#000000" fill-opacity="0.08" d="M976,92L976,2L2,2L2,92L976,92z"/><path fill="url(#lg1)" d="M974,90L974,0L0,0L0,90L974,90z" stroke="#6d6d6d"/></g><text class="st1"><tspan y="50.6" x="6.4">FROST-Server</tspan></text></g><g transform="translate(191.76,1371.97)"><g id="shape9"><path fill="#000000" fill-opacity="0.08" d="M115.4,47.4L115.4,2L2,2L2,47.4L115.4,47.4z"/><path fill="url(#lg1)" d="M113.4,45.4L113.4,0L0,0L0,45.4L113.4,45.4z" stroke="#6d6d6d"/></g><text class="st1"><tspan y="18.7" x="34.6">Entity-</tspan><tspan y="37.9" x="22.6">Controller</tspan></text></g><g transform="translate(187.26,1965.57)"><g id="shape10"><path fill="#000000" fill-opacity="0.08" d="M559.2,47.4L559.2,2L2,2L2,47.4L559.2,47.4z"/><path fill="url(#lg1)" d="M557.2,45.4L557.2,0L0,0L0,45.4L557.2,45.4z" stroke="#6d6d6d"/></g><text class="st1"><tspan y="28.3" x="229.7">FROST-Client</tspan></text></g><g transform="translate(713,1447.56)"><g id="shape11"><path fill="#000000" fill-opacity="0.08" d="M120,47.4L120,2L2,2L2,47.4L120,47.4z"/><path fill="url(#lg1)" d="M118,45.4L118,0L0,0L0,45.4L118,45.4z" stroke="#6d6d6d"/></g><text class="st1"><tspan y="18.7" x="6.4">Konfigurations-</tspan><tspan y="37.9" x="13.6">management</tspan></text></g><g transform="translate(467.23,1371.97)"><g id="shape12"><path fill="#000000" fill-opacity="0.08" d="M228.8,47.4L228.8,2L2,2L2,47.4L228.8,47.4z"/><path fill="url(#lg1)" d="M226.8,45.4L226.8,0L0,0L0,45.4L226.8,45.4z" stroke="#6d6d6d"/></g><text class="st1"><tspan y="18.7" x="7.6">Import-Controller mit Preview-</tspan><tspan y="37.9" x="84.4">Funktion</tspan></text></g><g transform="translate(713,1371.97)"><g id="shape13"><path fill="#000000" fill-opacity="0.08" d="M120,47.4L120,2L2,2L2,47.4L120,47.4z"/><path fill="url(#lg1)" d="M118,45.4L118,0L0,0L0,45.4L118,45.4z" stroke="#6d6d6d"/></g><text class="st1"><tspan y="18.7" x="6.4">Konfigurations-</tspan><tspan y="37.9" x="24.8">Controller</tspan></text></g><g transform="translate(743.65,1515.59)" id="shape14"><path fill="#000000" fill-opacity="0.08" d="M2,7.7L2,41.7C2,44.8,14.7,47.4,30.3,47.4C46,47.4,58.7,44.8,58.7,41.7L58.7,7.7C58.7,4.5,46,2,30.3,2C14.7,2,2,4.5,2,7.7z"/><path fill="url(#lg1)" d="M0,5.7L0,39.7C-0,42.8,12.7,45.4,28.3,45.4C44,45.4,56.7,42.8,56.7,39.7L56.7,5.7C56.7,2.5,44,-0,28.3,-0C12.7,-0,-0,2.5,0,5.7z"/><path fill="none" d="M0,5.7L0,39.7C-0,42.8,12.7,45.4,28.3,45.4C44,45.4,56.7,42.8,56.7,39.7L56.7,5.7C56.7,2.5,44,-0,28.3,-0C12.7,-0,-0,2.5,0,5.7zM0,5.7C-0,8.8,12.7,11.3,28.3,11.3C44,11.3,56.7,8.8,56.7,5.7" stroke="#6d6d6d"/></g><g transform="translate(772,1492.91)" id="shape15"><path fill="none" d="M0,0L0,18.3" stroke="#6d6d6d"/><path stroke-width="1" stroke-linecap="round" fill="#6d6d6d" d="M0,22.7L3,17.5C2.1,18,1.1,18.3,0,18.3C-1.1,18.3,-2.1,18,-3,17.5L0,22.7" stroke="#6d6d6d"/></g><g transform="translate(772,1417.32)" id="shape16"><path fill="none" d="M0,0L0,25.8" stroke="#6d6d6d"/><path stroke-width="1" stroke-linecap="round" fill="#6d6d6d" d="M0,30.2L3,25C2.1,25.6,1.1,25.8,0,25.8C-1.1,25.8,-2.1,25.6,-3,25L0,30.2" stroke="#6d6d6d"/></g><g transform="translate(248.45,1417.32)" id="shape17"><path fill="none" d="M0,0L0,274.6L-0.4,543.8" stroke="#6d6d6d"/><path stroke-width="1" stroke-linecap="round" fill="#6d6d6d" d="M-0.4,548.2L2.6,543C1.7,543.5,.6,543.8,-0.4,543.8C-1.5,543.8,-2.6,543.5,-3.4,543L-0.4,548.2" stroke="#6d6d6d"/></g><g transform="translate(580.62,1492.91)" id="shape18"><path fill="none" d="M0,0L0,93.8L-193.6,93.8L-193.6,440.7L-114.7,440.7L-114.7,468.3" stroke="#6d6d6d"/><path stroke-width="1" stroke-linecap="round" fill="#6d6d6d" d="M-114.7,472.7L-111.7,467.5C-112.6,468,-113.6,468.3,-114.7,468.3C-115.8,468.3,-116.9,468,-117.7,467.5L-114.7,472.7" stroke="#6d6d6d"/></g><g transform="translate(580.62,2036.75)" id="shape19"><path fill="none" d="M0,0L0,30.8L.4,62.8" stroke="#000000"/><path stroke-width="1" stroke-linejoin="round" stroke-linecap="round" fill="none" d="M6.2,50.7L.4,62.8L-5.8,50.8" stroke="#000000"/></g><g transform="translate(581,2099.52)" id="shape20"><path fill="none" d="M0,0L0,-30.8L-0.4,-62.8" stroke="#000000"/><path stroke-width="1" stroke-linejoin="round" stroke-linecap="round" fill="none" d="M-6.2,-50.7L-0.4,-62.8L5.8,-50.8" stroke="#000000"/></g><g transform="translate(467.23,1447.56)"><g id="shape21"><path fill="#000000" fill-opacity="0.08" d="M228.8,47.4L228.8,2L2,2L2,47.4L228.8,47.4z"/><path fill="url(#lg1)" d="M226.8,45.4L226.8,0L0,0L0,45.4L226.8,45.4z" stroke="#6d6d6d"/></g><text class="st1"><tspan y="28.3" x="62">UploadHandler</tspan></text></g><g transform="translate(580.62,1417.32)" id="shape22"><path fill="none" d="M0,0L0,25.8" stroke="#6d6d6d"/><path stroke-width="1" stroke-linecap="round" fill="#6d6d6d" d="M0,30.2L3,25C2.1,25.6,1.1,25.8,0,25.8C-1.1,25.8,-2.1,25.6,-3,25L0,30.2" stroke="#6d6d6d"/></g><g transform="translate(580.62,1492.91)" id="shape23"><path fill="none" d="M0,0L0,93.8L-145.8,93.8L-145.8,259.5L-118.2,259.5" stroke="#6d6d6d"/><path stroke-width="1" stroke-linecap="round" fill="#6d6d6d" d="M-113.8,259.5L-119,256.5C-118.5,257.4,-118.2,258.5,-118.2,259.5C-118.2,260.6,-118.5,261.7,-119,262.5L-113.8,259.5" stroke="#6d6d6d"/></g><g transform="translate(713,1470.24)" id="shape24"><path fill="none" d="M0,0L-14.6,0" stroke="#6d6d6d"/><path stroke-width="1" stroke-linecap="round" fill="#6d6d6d" d="M-19,0L-13.8,3C-14.3,2.1,-14.6,1.1,-14.6,0C-14.6,-1.1,-14.3,-2.1,-13.8,-3L-19,0" stroke="#6d6d6d"/></g><g transform="translate(338.27,1371.97)"><g id="shape25"><path fill="#000000" fill-opacity="0.08" d="M96.5,47.4L96.5,2L2,2L2,47.4L96.5,47.4z"/><path fill="url(#lg1)" d="M94.5,45.4L94.5,0L0,0L0,45.4L94.5,45.4z" stroke="#6d6d6d"/></g><text class="st1"><tspan y="18.7" x="7.4">SourceFile-</tspan><tspan y="37.9" x="13">Controller</tspan></text></g><g transform="translate(332.13,1447.56)"><g id="shape26"><path fill="#000000" fill-opacity="0.08" d="M108.8,47.4L108.8,2L2,2L2,47.4L108.8,47.4z"/><path fill="url(#lg1)" d="M106.8,45.4L106.8,0L0,0L0,45.4L106.8,45.4z" stroke="#6d6d6d"/></g><text class="st1"><tspan y="18.7" x="38">File-</tspan><tspan y="37.9" x="7.6">Management</tspan></text></g><g transform="translate(357.17,1515.59)" id="shape27"><path fill="#000000" fill-opacity="0.08" d="M2,7.7L2,41.7C2,44.8,14.7,47.4,30.3,47.4C46,47.4,58.7,44.8,58.7,41.7L58.7,7.7C58.7,4.5,46,2,30.3,2C14.7,2,2,4.5,2,7.7z"/><path fill="url(#lg1)" d="M0,5.7L0,39.7C-0,42.8,12.7,45.4,28.3,45.4C44,45.4,56.7,42.8,56.7,39.7L56.7,5.7C56.7,2.5,44,-0,28.3,-0C12.7,-0,-0,2.5,0,5.7z"/><path fill="none" d="M0,5.7L0,39.7C-0,42.8,12.7,45.4,28.3,45.4C44,45.4,56.7,42.8,56.7,39.7L56.7,5.7C56.7,2.5,44,-0,28.3,-0C12.7,-0,-0,2.5,0,5.7zM0,5.7C-0,8.8,12.7,11.3,28.3,11.3C44,11.3,56.7,8.8,56.7,5.7" stroke="#6d6d6d"/></g><g transform="translate(385.51,1417.32)" id="shape28"><path fill="none" d="M0,0L-0,25.8" stroke="#6d6d6d"/><path stroke-width="1" stroke-linecap="round" fill="#6d6d6d" d="M-0,30.2L3,25C2.1,25.6,1.1,25.8,-0,25.8C-1.1,25.8,-2.1,25.6,-3,25L-0,30.2" stroke="#6d6d6d"/></g><g transform="translate(385.51,1492.91)" id="shape29"><path fill="none" d="M0,0L0,18.3" stroke="#6d6d6d"/><path stroke-width="1" stroke-linecap="round" fill="#6d6d6d" d="M0,22.7L3,17.5C2.1,18,1.1,18.3,0,18.3C-1.1,18.3,-2.1,18,-3,17.5L0,22.7" stroke="#6d6d6d"/></g><g transform="translate(438.89,1470.24)" id="shape30"><path fill="none" d="M0,0L24,0" stroke="#6d6d6d"/><path stroke-width="1" stroke-linecap="round" fill="#6d6d6d" d="M28.3,0L23.1,-3C23.7,-2.1,24,-1.1,24,0C24,1.1,23.7,2.1,23.1,3L28.3,0" stroke="#6d6d6d"/></g><g transform="translate(581,1311.52)" id="shape31"><text class="st2"><tspan y="15.9" x="4.8">REST</tspan></text></g><g transform="translate(581,2057.52)" id="shape32"><text class="st2"><tspan y="17.2" x="4.8">REST</tspan></text></g><g transform="translate(385.51,1515.59)" id="shape33"><path fill="none" d="M0,0L-0,-18.3" stroke="#6d6d6d"/><path stroke-width="1" stroke-linecap="round" fill="#6d6d6d" d="M-0,-22.7L-3,-17.5C-2.1,-18,-1.1,-18.3,-0,-18.3C1.1,-18.3,2.1,-18,3,-17.5L-0,-22.7" stroke="#6d6d6d"/></g><g transform="translate(772,1515.59)" id="shape34"><path fill="none" d="M0,0L-0,-18.3" stroke="#6d6d6d"/><path stroke-width="1" stroke-linecap="round" fill="#6d6d6d" d="M-0,-22.7L-3,-17.5C-2.1,-18,-1.1,-18.3,-0,-18.3C1.1,-18.3,2.1,-18,3,-17.5L-0,-22.7" stroke="#6d6d6d"/></g><g transform="translate(466.85,1840.85)"><g id="shape35"><path fill="#000000" fill-opacity="0.08" d="M228.8,47.4L228.8,2L2,2L2,47.4L228.8,47.4z"/><path fill="url(#lg1)" d="M226.8,45.4L226.8,0L0,0L0,45.4L226.8,45.4z" stroke="#6d6d6d"/></g><text class="st1"><tspan y="28.3" x="44.4">Duplikat-Überprüfer</tspan></text></g><g transform="translate(466.85,1618.71)"><g id="shape36"><path fill="#000000" fill-opacity="0.08" d="M228.8,47.4L228.8,2L2,2L2,47.4L228.8,47.4z"/><path fill="url(#lg1)" d="M226.8,45.4L226.8,0L0,0L0,45.4L226.8,45.4z" stroke="#6d6d6d"/></g><text class="st1"><tspan y="28.3" x="53.2">Dateikonvertierer</tspan></text></g><g transform="translate(466.85,1729.78)"><g id="shape37"><path fill="#000000" fill-opacity="0.08" d="M228.8,47.4L228.8,2L2,2L2,47.4L228.8,47.4z"/><path fill="url(#lg1)" d="M226.8,45.4L226.8,0L0,0L0,45.4L226.8,45.4z" stroke="#6d6d6d"/></g><text class="st1"><tspan y="28.3" x="55.6">Datentyp-Parser</tspan></text></g><g transform="translate(582,1304.58)" id="shape38"><path fill="none" d="M0,0L-1.4,48.2" stroke="#000000"/><path stroke-width="1" stroke-linejoin="round" stroke-linecap="round" fill="none" d="M5,36.4L-1.4,48.2L-7,36.1" stroke="#000000"/></g><g transform="translate(580.62,1352.81)" id="shape39"><path fill="none" d="M0,0L1.4,-48.2" stroke="#000000"/><path stroke-width="1" stroke-linejoin="round" stroke-linecap="round" fill="none" d="M-5,-36.4L1.4,-48.2L7,-36.1" stroke="#000000"/></g><g transform="translate(737.61,1085.64)"><g id="shape40"><path fill="#000000" fill-opacity="0.08" d="M228.8,47.4L228.8,2L2,2L2,47.4L228.8,47.4z"/><path fill="url(#lg1)" d="M226.8,45.4L226.8,0L0,0L0,45.4L226.8,45.4z" stroke="#6d6d6d"/></g><text class="st1"><tspan y="28.3" x="38">Hauptfenster-Anzeige</tspan></text></g><g transform="translate(737.61,1157.84)"><g id="shape41"><path fill="#000000" fill-opacity="0.08" d="M228.8,47.4L228.8,2L2,2L2,47.4L228.8,47.4z"/><path fill="url(#lg1)" d="M226.8,45.4L226.8,0L0,0L0,45.4L226.8,45.4z" stroke="#6d6d6d"/></g><text class="st1"><tspan y="28.3" x="34">Entity-Creator-Anzeige</tspan></text></g><g transform="translate(737.61,1229.32)"><g id="shape42"><path fill="#000000" fill-opacity="0.08" d="M228.8,47.4L228.8,2L2,2L2,47.4L228.8,47.4z"/><path fill="url(#lg1)" d="M226.8,45.4L226.8,0L0,0L0,45.4L226.8,45.4z" stroke="#6d6d6d"/></g><text class="st1"><tspan y="28.3" x="31.6">Magic-Number-Anzeige</tspan></text></g><g transform="translate(179.23,1085.64)"><g id="shape43"><path fill="#000000" fill-opacity="0.08" d="M228.8,47.4L228.8,2L2,2L2,47.4L228.8,47.4z"/><path fill="url(#lg1)" d="M226.8,45.4L226.8,0L0,0L0,45.4L226.8,45.4z" stroke="#6d6d6d"/></g><text class="st1"><tspan y="28.3" x="28.4">Hauptfenster-Funktionen</tspan></text></g><g transform="translate(179.23,1157.64)"><g id="shape44"><path fill="#000000" fill-opacity="0.08" d="M228.8,47.4L228.8,2L2,2L2,47.4L228.8,47.4z"/><path fill="url(#lg1)" d="M226.8,45.4L226.8,0L0,0L0,45.4L226.8,45.4z" stroke="#6d6d6d"/></g><text class="st1"><tspan y="28.3" x="23.6">Entity-Creator-Funktionen</tspan></text></g><g transform="translate(179.23,1229.32)"><g id="shape45"><path fill="#000000" fill-opacity="0.08" d="M228.8,47.4L228.8,2L2,2L2,47.4L228.8,47.4z"/><path fill="url(#lg1)" d="M226.8,45.4L226.8,0L0,0L0,45.4L226.8,45.4z" stroke="#6d6d6d"/></g><text class="st1"><tspan y="28.3" x="22">Magic-Number-Funktionen</tspan></text></g><g transform="translate(737.61,1108.32)" id="shape46"><path fill="none" d="M0,0L-331.6,-0" stroke="#000000"/><path stroke-width="1" stroke-linejoin="round" stroke-linecap="round" fill="none" d="M-319.6,6L-331.6,-0L-319.6,-6" stroke="#000000"/></g><g transform="translate(737.61,1180.52)" id="shape47"><path fill="none" d="M0,0L-331.6,-0.2" stroke="#000000"/><path stroke-width="1" stroke-linejoin="round" stroke-linecap="round" fill="none" d="M-319.6,5.8L-331.6,-0.2L-319.6,-6.2" stroke="#000000"/></g><g transform="translate(737.61,1252)" id="shape48"><path fill="none" d="M0,0L-331.6,-0" stroke="#000000"/><path stroke-width="1" stroke-linejoin="round" stroke-linecap="round" fill="none" d="M-319.6,6L-331.6,-0L-319.6,-6" stroke="#000000"/></g><g transform="translate(580.62,1492.91)" id="shape49"><path fill="none" d="M0,0L0,93.8L-169.6,93.8L-169.6,370.6L-118.2,370.6" stroke="#6d6d6d"/><path stroke-width="1" stroke-linecap="round" fill="#6d6d6d" d="M-113.8,370.6L-119,367.6C-118.5,368.5,-118.2,369.5,-118.2,370.6C-118.2,371.7,-118.5,372.7,-119,373.6L-113.8,370.6" stroke="#6d6d6d"/></g><g transform="translate(580.62,1492.91)" id="shape50"><path fill="none" d="M0,0L0,93.8L-122.6,93.8L-122.6,148.5L-118.2,148.5" stroke="#6d6d6d"/><path stroke-width="1" stroke-linecap="round" fill="#6d6d6d" d="M-113.8,148.5L-119,145.5C-118.5,146.4,-118.2,147.4,-118.2,148.5C-118.2,149.6,-118.5,150.6,-119,151.5L-113.8,148.5" stroke="#6d6d6d"/></g></g></svg>