<svg xmlns:xlink="http://www.w3.org/1999/xlink" height="1133" xmlns="http://www.w3.org/2000/svg" xmlns:ev="http://www.w3.org/2001/xml-events" width="1597" viewBox="0 0 1597 1133"><style type="text/css"><![CDATA[
.st1 {fill:#303030;font-family:Arial;font-size:10pt}
]]></style><defs><linearGradient y2="100%" y1="0%" id="lg1" x2="0%" x1="0%"><stop stop-color="#fbfbfb" offset="0"/><stop stop-color="#efefef" offset="1"/></linearGradient></defs><g transform="translate(5,5)" id="page1"><rect height="1123" fill="#ffffff" y="0" stroke="#808080" width="1587" x="0"/><g transform="translate(95,230.29)"><g id="shape1"><path fill="#000000" d="M973.2,685.9L973.2,2L2,2L2,685.9L973.2,685.9z" fill-opacity="0.08"/><path fill="url(#lg1)" d="M971.2,683.9L971.2,0L0,0L0,683.9L971.2,683.9z" stroke="#6d6d6d"/></g><text class="st1"><tspan y="346" x="6.5">Backend</tspan></text></g><g transform="translate(220,834)"><g id="shape2"><path fill="#000000" d="M96,58L96,2L2,2L2,58L96,58z" fill-opacity="0.08"/><path fill="url(#lg1)" d="M94,56L94,0L0,0L0,56L94,56z" stroke="#6d6d6d"/></g></g><g transform="translate(846,246)"><g id="shape3"><path fill="#000000" d="M96,654L96,2L2,2L2,654L96,654z" fill-opacity="0.08"/><path fill="url(#lg1)" d="M94,652L94,0L0,0L0,652L94,652z" stroke="#6d6d6d"/></g><text class="st1"><tspan y="322" x="8.8">Fehlermanag</tspan><tspan y="338" x="29.6">ement</tspan></text></g><g transform="translate(954,246)"><g id="shape4"><path fill="#000000" d="M96,654L96,2L2,2L2,654L96,654z" fill-opacity="0.08"/><path fill="url(#lg1)" d="M94,652L94,0L0,0L0,652L94,652z" stroke="#6d6d6d"/></g><text class="st1"><tspan y="322" x="8">Logmanagem</tspan><tspan y="338" x="38.4">ent</tspan></text></g><g transform="translate(94,977)"><g id="shape5"><path fill="#000000" d="M976,92L976,2L2,2L2,92L976,92z" fill-opacity="0.08"/><path fill="url(#lg1)" d="M974,90L974,0L0,0L0,90L974,90z" stroke="#6d6d6d"/></g><text class="st1"><tspan y="49" x="6.4">FROST-Server</tspan></text></g><g transform="translate(132,245.11)"><g id="shape6"><path fill="#000000" d="M272,57.9L272,2L2,2L2,57.9L272,57.9z" fill-opacity="0.08"/><path fill="url(#lg1)" d="M270,55.9L270,0L0,0L0,55.9L270,55.9z" stroke="#6d6d6d"/></g><text class="st1"><tspan y="31.9" x="88">Entity-Controller</tspan></text></g><g transform="translate(110,834)"><g id="shape7"><path fill="#000000" d="M603,63L603,2L2,2L2,63L603,63z" fill-opacity="0.08"/><path fill="url(#lg1)" d="M601,61L601,0L0,0L0,61L601,61z" stroke="#6d6d6d"/></g><text class="st1"><tspan y="34.5" x="260.8">FROST-Client</tspan></text></g><g transform="translate(94,67.55)"><g><g id="shape8"><path fill="#000000" d="M976,99.4L976,2L2,2L2,99.4L976,99.4z" fill-opacity="0.08"/><path fill="url(#lg1)" d="M974,97.4L974,0L0,0L0,97.4L974,97.4z" stroke="#6d6d6d"/></g><text class="st1"><tspan y="52.7" x="6.4">Frontend</tspan></text></g><g transform="translate(544,20.72)"><g id="shape9"><path fill="#000000" d="M325.1,58L325.1,2L2,2L2,58L325.1,58z" fill-opacity="0.08"/><path fill="url(#lg1)" d="M323.1,56L323.1,0L0,0L0,56L323.1,56z" stroke="#6d6d6d"/></g><text class="st1"><tspan y="32" x="95.3">Webseiten-Darstellung</tspan></text></g></g><g transform="translate(718,325.75)"><g id="shape10"><path fill="#000000" d="M101,51.5L101,2L2,2L2,51.5L101,51.5z" fill-opacity="0.08"/><path fill="url(#lg1)" d="M99,49.5L99,0L0,0L0,49.5L99,49.5z" stroke="#6d6d6d"/></g><text class="st1"><tspan y="20.8" x="7.2">Konfigurations</tspan><tspan y="36.8" x="9.6">-management</tspan></text></g><g transform="translate(437,245.11)"><g id="shape11"><path fill="#000000" d="M250,58L250,2L2,2L2,58L250,58z" fill-opacity="0.08"/><path fill="url(#lg1)" d="M248,56L248,0L0,0L0,56L248,56z" stroke="#6d6d6d"/></g><text class="st1"><tspan y="32" x="12.8">Import-Controller mit Preview-Funktion</tspan></text></g><g transform="translate(717,245.11)"><g id="shape12"><path fill="#000000" d="M103.5,58L103.5,2L2,2L2,58L103.5,58z" fill-opacity="0.08"/><path fill="url(#lg1)" d="M101.5,56L101.5,0L0,0L0,56L101.5,56z" stroke="#6d6d6d"/></g><text class="st1"><tspan y="24" x="9.1">Konfigurations</tspan><tspan y="40" x="20.3">-Controller</tspan></text></g><g transform="translate(740.25,407.05)" id="shape13"><path fill="#000000" d="M2,7.5L2,43.5C2,46.6,14.2,49,29.2,49C44.3,49,56.5,46.6,56.5,43.5L56.5,7.5C56.5,4.4,44.3,2,29.3,2C14.2,2,2,4.4,2,7.5z" fill-opacity="0.08"/><path fill="url(#lg1)" d="M0,5.5L0,41.5C-0,44.6,12.2,47,27.2,47C42.3,47,54.5,44.6,54.5,41.5L54.5,5.5C54.5,2.4,42.3,0,27.3,0C12.2,0,0,2.4,0,5.5z"/><path fill="none" d="M0,5.5L0,41.5C-0,44.6,12.2,47,27.2,47C42.3,47,54.5,44.6,54.5,41.5L54.5,5.5C54.5,2.4,42.3,0,27.3,0C12.2,0,0,2.4,0,5.5zM0,5.5C0,8.5,12.2,10.9,27.3,10.9C42.3,10.9,54.5,8.5,54.5,5.4" stroke="#6d6d6d"/></g><g transform="translate(767.5,375.25)" id="shape14"><path fill="none" d="M0,0L0,27.4" stroke="#6d6d6d"/><path fill="#6d6d6d" d="M0,31.8L3,26.6C2.1,27.1,1.1,27.4,0,27.4C-1.1,27.4,-2.1,27.1,-3,26.6L0,31.8" stroke="#6d6d6d" stroke-linecap="round" stroke-width="1"/></g><g transform="translate(767.75,301.11)" id="shape15"><path fill="none" d="M0,0L0,8.6L-0.2,20.3" stroke="#6d6d6d"/><path fill="#6d6d6d" d="M-0.3,24.6L2.8,19.5C1.9,20,.9,20.3,-0.2,20.3C-1.3,20.2,-2.3,19.9,-3.2,19.4L-0.3,24.6" stroke="#6d6d6d" stroke-linecap="round" stroke-width="1"/></g><g transform="translate(486,507.2)" id="shape16"><path fill="none" d="M0,0L0,63.5" stroke="#6d6d6d"/><path fill="#6d6d6d" d="M0,67.9L3,62.7C2.1,63.2,1.1,63.5,0,63.5C-1.1,63.5,-2.1,63.2,-3,62.7L0,67.9" stroke="#6d6d6d" stroke-linecap="round" stroke-width="1"/></g><g transform="translate(192.13,88.28)"><g id="shape17"><path fill="#000000" d="M325.8,58L325.8,2L2,2L2,58L325.8,58z" fill-opacity="0.08"/><path fill="url(#lg1)" d="M323.8,56L323.8,0L0,0L0,56L323.8,56z" stroke="#6d6d6d"/></g><text class="st1"><tspan y="32" x="141.2">Skripte</tspan></text></g><g transform="translate(267,301)" id="shape18"><path fill="none" d="M0,0L0,528.6" stroke="#6d6d6d"/><path fill="#6d6d6d" d="M0,533L3,527.8C2.1,528.3,1.1,528.6,0,528.6C-1.1,528.6,-2.1,528.3,-3,527.8L0,533" stroke="#6d6d6d" stroke-linecap="round" stroke-width="1"/></g><g transform="translate(486,729.35)" id="shape19"><path fill="none" d="M0,0L0,72.7L-75.5,72.7L-75.5,100.3" stroke="#6d6d6d"/><path fill="#6d6d6d" d="M-75.5,104.7L-72.5,99.5C-73.4,100,-74.4,100.3,-75.5,100.3C-76.6,100.3,-77.6,100,-78.5,99.5L-75.5,104.7" stroke="#6d6d6d" stroke-linecap="round" stroke-width="1"/></g><g transform="translate(486,618.27)" id="shape20"><path fill="none" d="M0,0L0,63.5" stroke="#6d6d6d"/><path fill="#6d6d6d" d="M0,67.9L3,62.7C2.1,63.2,1.1,63.5,0,63.5C-1.1,63.5,-2.1,63.2,-3,62.7L0,67.9" stroke="#6d6d6d" stroke-linecap="round" stroke-width="1"/></g><g transform="translate(581,165)" id="shape21"><path fill="none" d="M0,0L0,33.3L-0.4,65.3" stroke="#000000"/><path stroke-linejoin="round" fill="none" d="M5.8,53.4L-0.4,65.3L-6.2,53.2" stroke="#000000" stroke-linecap="round" stroke-width="1"/></g><g transform="translate(580.62,230.29)" id="shape22"><path fill="none" d="M0,0L0,-32L.4,-65.3" stroke="#000000"/><path stroke-linejoin="round" fill="none" d="M-5.8,-53.4L.4,-65.3L6.2,-53.2" stroke="#000000" stroke-linecap="round" stroke-width="1"/></g><g transform="translate(580.62,914.23)" id="shape23"><path fill="none" d="M0,0L0,30.8L.4,62.8" stroke="#000000"/><path stroke-linejoin="round" fill="none" d="M6.2,50.7L.4,62.8L-5.8,50.8" stroke="#000000" stroke-linecap="round" stroke-width="1"/></g><g transform="translate(581,977)" id="shape24"><path fill="none" d="M0,0L0,-30.8L-0.4,-62.8" stroke="#000000"/><path stroke-linejoin="round" fill="none" d="M-6.2,-50.7L-0.4,-62.8L5.8,-50.8" stroke="#000000" stroke-linecap="round" stroke-width="1"/></g><g transform="translate(293,336.75)"><g id="shape25"><path fill="#000000" d="M394,58L394,2L2,2L2,58L394,58z" fill-opacity="0.08"/><path fill="url(#lg1)" d="M392,56L392,0L0,0L0,56L392,56z" stroke="#6d6d6d"/></g><text class="st1"><tspan y="32" x="170.4">Uploader</tspan></text></g><g transform="translate(561,301.11)" id="shape26"><path fill="none" d="M0,0L0,19.6L-72,19.6L-72,31.3" stroke="#6d6d6d"/><path fill="#6d6d6d" d="M-72,35.6L-69,30.4C-69.9,31,-70.9,31.3,-72,31.3C-73.1,31.3,-74.1,31,-75,30.4L-72,35.6" stroke="#6d6d6d" stroke-linecap="round" stroke-width="1"/></g><g transform="translate(489,392.75)" id="shape27"><path fill="none" d="M0,0L0,22.3L-0.5,33.9" stroke="#6d6d6d"/><path fill="#6d6d6d" d="M-0.7,38.3L2.5,33.2C1.6,33.7,.6,33.9,-0.5,33.9C-1.6,33.8,-2.6,33.5,-3.5,32.9L-0.7,38.3" stroke="#6d6d6d" stroke-linecap="round" stroke-width="1"/></g><g transform="translate(486,507.2)" id="shape28"><path fill="none" d="M0,0L0,63.5" stroke="#6d6d6d"/><path fill="#6d6d6d" d="M0,67.9L3,62.7C2.1,63.2,1.1,63.5,0,63.5C-1.1,63.5,-2.1,63.2,-3,62.7L0,67.9" stroke="#6d6d6d" stroke-linecap="round" stroke-width="1"/></g><g transform="translate(486,618.27)" id="shape29"><path fill="none" d="M0,0L0,63.5" stroke="#6d6d6d"/><path fill="#6d6d6d" d="M0,67.9L3,62.7C2.1,63.2,1.1,63.5,0,63.5C-1.1,63.5,-2.1,63.2,-3,62.7L0,67.9" stroke="#6d6d6d" stroke-linecap="round" stroke-width="1"/></g><g transform="translate(280,431)"><g id="shape30"><path fill="#000000" d="M2,2L418.6,2L418.6,339L2,339L2,2z" fill-opacity="0.08"/><path fill="url(#lg1)" d="M0,0L416.6,0L416.6,337L0,337L0,0z"/><path fill="none" d="M0,0L416.6,0L416.6,337L0,337L0,0zM0,0L104.2,0L83.3,20L0,20L0,0" stroke="#6d6d6d"/><text class="st1"><tspan y="14" x="16.9">Upload-Pipe</tspan></text><text class="st1"><tspan y="34" x="3.5">[parameters]</tspan></text></g><g transform="translate(83.17,255.18)"><g id="shape31"><path fill="#000000" d="M247.7,45.2L247.7,2L2,2L2,45.2L247.7,45.2z" fill-opacity="0.08"/><path fill="url(#lg1)" d="M245.7,43.2L245.7,0L0,0L0,43.2L245.7,43.2z" stroke="#6d6d6d"/></g><text class="st1"><tspan y="25.6" x="65.9">Duplikat-Überprüfer</tspan></text></g><g transform="translate(83.17,33.04)"><g id="shape32"><path fill="#000000" d="M247.7,45.2L247.7,2L2,2L2,45.2L247.7,45.2z" fill-opacity="0.08"/><path fill="url(#lg1)" d="M245.7,43.2L245.7,0L0,0L0,43.2L245.7,43.2z" stroke="#6d6d6d"/></g><text class="st1"><tspan y="25.6" x="73.1">Dateikonvertierer</tspan></text></g><g transform="translate(83.17,144.11)"><g id="shape33"><path fill="#000000" d="M247.7,45.2L247.7,2L2,2L2,45.2L247.7,45.2z" fill-opacity="0.08"/><path fill="url(#lg1)" d="M245.7,43.2L245.7,0L0,0L0,43.2L245.7,43.2z" stroke="#6d6d6d"/></g><text class="st1"><tspan y="25.6" x="74.7">Datentyp-Parser</tspan></text></g></g><g transform="translate(486,507.2)" id="shape34"><path fill="none" d="M0,0L0,63.5" stroke="#6d6d6d"/><path fill="#6d6d6d" d="M0,67.9L3,62.7C2.1,63.2,1.1,63.5,0,63.5C-1.1,63.5,-2.1,63.2,-3,62.7L0,67.9" stroke="#6d6d6d" stroke-linecap="round" stroke-width="1"/></g><g transform="translate(486,618.27)" id="shape35"><path fill="none" d="M0,0L0,63.5" stroke="#6d6d6d"/><path fill="#6d6d6d" d="M0,67.9L3,62.7C2.1,63.2,1.1,63.5,0,63.5C-1.1,63.5,-2.1,63.2,-3,62.7L0,67.9" stroke="#6d6d6d" stroke-linecap="round" stroke-width="1"/></g></g></svg>