<svg xmlns="http://www.w3.org/2000/svg" xmlns:ev="http://www.w3.org/2001/xml-events" xmlns:xlink="http://www.w3.org/1999/xlink" viewBox="0 0 1132 804" width="1132" height="804"><style type="text/css"><![CDATA[
.st1 {fill:#303030;font-family:Arial;font-size:7.5pt}
]]></style><defs><linearGradient id="lg1" y1="0%" y2="100%" x1="0%" x2="0%"><stop offset="0" stop-color="#fbfbfb"/><stop offset="1" stop-color="#efefef"/></linearGradient></defs><g id="page1" transform="translate(5,5)"><rect fill="#ffffff" x="0" y="0" stroke="#808080" width="1123" height="794"/><g transform="translate(95.38,222.05)"><g id="shape1"><path fill="#000000" fill-opacity="0.08" d="M973.2,371L973.2,2L2,2L2,371L973.2,371z"/><path fill="url(#lg1)" stroke="#6d6d6d" d="M971.2,369L971.2,0L0,0L0,369L971.2,369z"/></g><text class="st1"><tspan x="8.1" y="187.5">Backend</tspan></text></g><g transform="translate(846,232.11)"><g id="shape2"><path fill="#000000" fill-opacity="0.08" d="M96,350.9L96,2L2,2L2,350.9L96,350.9z"/><path fill="url(#lg1)" stroke="#6d6d6d" d="M94,348.9L94,0L0,0L0,348.9L94,348.9z"/></g><text class="st1"><tspan x="11" y="171.4">Fehlermanagem</tspan><tspan x="40" y="183.4">ent</tspan></text></g><g transform="translate(954,232.11)"><g id="shape3"><path fill="#000000" fill-opacity="0.08" d="M96,350.9L96,2L2,2L2,350.9L96,350.9z"/><path fill="url(#lg1)" stroke="#6d6d6d" d="M94,348.9L94,0L0,0L0,348.9L94,348.9z"/></g><text class="st1"><tspan x="10" y="177.4">Logmanagement</tspan></text></g><g id="shape4" transform="matrix(0,1,-1,0,604.6,165)"><path fill="#000000" fill-opacity="0.08" d="M2,21.6L25.6,-2L25.6,13.6L35.4,13.6L35.4,-2L59.1,21.6L35.4,45.2L35.4,29.7L25.6,29.7L25.6,45.2L2,21.6z"/><path fill="url(#lg1)" stroke="#6d6d6d" d="M0,23.6L23.6,0L23.6,15.6L33.4,15.6L33.4,0L57.1,23.6L33.4,47.2L33.4,31.7L23.6,31.7L23.6,47.2L0,23.6z"/></g><g transform="translate(94,649)"><g id="shape5"><path fill="#000000" fill-opacity="0.08" d="M976,92L976,2L2,2L2,92L976,92z"/><path fill="url(#lg1)" stroke="#6d6d6d" d="M974,90L974,0L0,0L0,90L974,90z"/></g><text class="st1"><tspan x="8" y="48">FROST-Server</tspan></text></g><g id="shape6" transform="matrix(0,1,-1,0,604.6,591.1)"><path fill="#000000" fill-opacity="0.08" d="M2,21.6L25.6,-2L25.6,13.6L36.3,13.6L36.3,-2L59.9,21.6L36.3,45.2L36.3,29.7L25.6,29.7L25.6,45.2L2,21.6z"/><path fill="url(#lg1)" stroke="#6d6d6d" d="M0,23.6L23.6,0L23.6,15.6L34.3,15.6L34.3,0L57.9,23.6L34.3,47.2L34.3,31.7L23.6,31.7L23.6,47.2L0,23.6z"/></g><g transform="translate(175,232.11)"><g id="shape7"><path fill="#000000" fill-opacity="0.08" d="M663,58L663,2L2,2L2,58L663,58z"/><path fill="url(#lg1)" stroke="#6d6d6d" d="M661,56L661,0L0,0L0,56L661,56z"/></g><text class="st1"><tspan x="309" y="31">Controller</tspan></text></g><g transform="translate(175,321)"><g id="shape8"><path fill="#000000" fill-opacity="0.08" d="M73,262L73,2L2,2L2,262L73,262z"/><path fill="url(#lg1)" stroke="#6d6d6d" d="M71,260L71,0L0,0L0,260L71,260z"/></g><text class="st1"><tspan x="11" y="133">DataImport</tspan></text></g><g transform="translate(540.09,321)"><g id="shape9"><path fill="#000000" fill-opacity="0.08" d="M75,116L75,2L2,2L2,116L75,116z"/><path fill="url(#lg1)" stroke="#6d6d6d" d="M73,114L73,0L0,0L0,114L73,114z"/></g><text class="st1"><tspan x="8" y="60">DataPreview</tspan></text></g><g transform="translate(302,371)"><g id="shape10"><path fill="#000000" fill-opacity="0.08" d="M96,51.5L96,2L2,2L2,51.5L96,51.5z"/><path fill="url(#lg1)" stroke="#6d6d6d" d="M94,49.5L94,0L0,0L0,49.5L94,49.5z"/></g><text class="st1"><tspan x="16" y="15.8">Konvertierung </tspan><tspan x="8" y="27.8">Daten auf Interne </tspan><tspan x="22" y="39.8">Darstellung</tspan></text></g><g transform="translate(302,437.11)"><g id="shape11"><path fill="#000000" fill-opacity="0.08" d="M96,36.9L96,2L2,2L2,36.9L96,36.9z"/><path fill="url(#lg1)" stroke="#6d6d6d" d="M94,34.9L94,0L0,0L0,34.9L94,34.9z"/></g><text class="st1"><tspan x="20" y="14.4">Observation </tspan><tspan x="28" y="26.4">erstellen</tspan></text></g><g transform="translate(420,482)"><g id="shape12"><path fill="#000000" fill-opacity="0.08" d="M305,40.8L305,2L2,2L2,40.8L305,40.8z"/><path fill="url(#lg1)" stroke="#6d6d6d" d="M303,38.8L303,0L0,0L0,38.8L303,38.8z"/></g><text class="st1"><tspan x="107" y="22.4">Duplikatüberprüfung</tspan></text></g><g transform="translate(421.05,437.11)"><g id="shape13"><path fill="#000000" fill-opacity="0.08" d="M96,36.9L96,2L2,2L2,36.9L96,36.9z"/><path fill="url(#lg1)" stroke="#6d6d6d" d="M94,34.9L94,0L0,0L0,34.9L94,34.9z"/></g><text class="st1"><tspan x="25" y="14.4">Zeitformat </tspan><tspan x="20" y="26.4">konvertieren</tspan></text></g><g transform="translate(624.59,378.55)"><g id="shape14"><path fill="#000000" fill-opacity="0.08" d="M101,58L101,2L2,2L2,58L101,58z"/><path fill="url(#lg1)" stroke="#6d6d6d" d="M99,56L99,0L0,0L0,56L99,56z"/></g><text class="st1"><tspan x="17" y="31">Entity erstellen</tspan></text></g><g transform="translate(739.5,378.55)"><g id="shape15"><path fill="#000000" fill-opacity="0.08" d="M96,58L96,2L2,2L2,58L96,58z"/><path fill="url(#lg1)" stroke="#6d6d6d" d="M94,56L94,0L0,0L0,56L94,56z"/></g><text class="st1"><tspan x="19" y="25">Requests an </tspan><tspan x="14" y="37">FROST-Server</tspan></text></g><g transform="translate(328.5,543)"><g id="shape16"><path fill="#000000" fill-opacity="0.08" d="M507,40L507,2L2,2L2,40L507,40z"/><path fill="url(#lg1)" stroke="#6d6d6d" d="M505,38L505,0L0,0L0,38L505,38z"/></g><text class="st1"><tspan x="221" y="22">FROST-Client</tspan></text></g><g transform="translate(94,67.55)"><g><g id="shape17"><path fill="#000000" fill-opacity="0.08" d="M976,99.4L976,2L2,2L2,99.4L976,99.4z"/><path fill="url(#lg1)" stroke="#6d6d6d" d="M974,97.4L974,0L0,0L0,97.4L974,97.4z"/></g><text class="st1"><tspan x="8" y="51.7">Frontend</tspan></text></g><g transform="translate(428.85,20.72)"><g id="shape18"><path fill="#000000" fill-opacity="0.08" d="M118.3,58L118.3,2L2,2L2,58L118.3,58z"/><path fill="url(#lg1)" stroke="#6d6d6d" d="M116.3,56L116.3,0L0,0L0,56L116.3,56z"/></g><text class="st1"><tspan x="33.1" y="25">Webseiten-</tspan><tspan x="33.1" y="37">Darstellung</tspan></text></g></g><g transform="translate(302,321)"><g id="shape19"><path fill="#000000" fill-opacity="0.08" d="M96,45L96,2L2,2L2,45L96,45z"/><path fill="url(#lg1)" stroke="#6d6d6d" d="M94,43L94,0L0,0L0,43L94,43z"/></g><text class="st1"><tspan x="8" y="18.5">Konfigurationsma</tspan><tspan x="25" y="30.5">nagement</tspan></text></g><g id="shape20" transform="matrix(0,1,-1,0,505.5,288.1)"><path fill="none" stroke="#303030" d="M0,0L13.9,0L0,0zM0,0L13.9,0L13.9,-71.1L28.5,-71.1M0,0L13.9,0L13.9,295L28.5,295M0,0L13.9,0L13.9,156.5L28.5,156.5M0,0L13.9,0L13.9,-281L86.1,-281M0,0L13.9,0L13.9,-168.6L86.1,-168.6"/><path fill="#303030" stroke-linecap="round" stroke-width="1" stroke="#303030" d="M32.9,-71.1L27.7,-74.1C28.2,-73.2,28.5,-72.2,28.5,-71.1C28.5,-70,28.2,-69,27.7,-68.1L32.9,-71.1"/><path fill="#303030" stroke-linecap="round" stroke-width="1" stroke="#303030" d="M32.9,295L27.7,292C28.2,292.9,28.5,293.9,28.5,295C28.5,296.1,28.2,297.1,27.7,298L32.9,295"/><path fill="#303030" stroke-linecap="round" stroke-width="1" stroke="#303030" d="M32.9,156.5L27.7,153.5C28.2,154.4,28.5,155.4,28.5,156.5C28.5,157.6,28.2,158.6,27.7,159.5L32.9,156.5"/><path fill="#303030" stroke-linecap="round" stroke-width="1" stroke="#303030" d="M90.4,-281L85.3,-284C85.8,-283.1,86.1,-282.1,86.1,-281C86.1,-279.9,85.8,-278.9,85.3,-278L90.4,-281"/><path fill="#303030" stroke-linecap="round" stroke-width="1" stroke="#303030" d="M90.4,-168.6L85.3,-171.6C85.8,-170.7,86.1,-169.7,86.1,-168.6C86.1,-167.5,85.8,-166.5,85.3,-165.6L90.4,-168.6"/></g><g id="shape21" transform="translate(674.09,434.55)"><path fill="none" stroke="#6d6d6d" d="M0,0L0,31.4L-102.6,31.4L-102.6,43.1"/><path fill="#6d6d6d" stroke-linecap="round" stroke-width="1" stroke="#6d6d6d" d="M-102.6,47.4L-99.6,42.3C-100.5,42.8,-101.5,43.1,-102.6,43.1C-103.7,43.1,-104.7,42.8,-105.6,42.3L-102.6,47.4"/></g><g id="shape22" transform="translate(246,451)"><path fill="none" stroke="#303030" d="M0,0L23,0L0,0zM0,0L23,0L23,-108.5L51.6,-108.5M0,0L23,0L23,50.4L169.6,50.4M0,0L23,0L23,111L78.1,111M0,0L23,0L23,3.6L51.6,3.6M0,0L23,0L23,-55.3L51.6,-55.3"/><path fill="#303030" stroke-linecap="round" stroke-width="1" stroke="#303030" d="M56,-108.5L50.8,-111.5C51.3,-110.6,51.6,-109.6,51.6,-108.5C51.6,-107.4,51.3,-106.4,50.8,-105.5L56,-108.5"/><path fill="#303030" stroke-linecap="round" stroke-width="1" stroke="#303030" d="M174,50.4L168.8,47.4C169.3,48.3,169.6,49.3,169.6,50.4C169.6,51.5,169.3,52.5,168.8,53.4L174,50.4"/><path fill="#303030" stroke-linecap="round" stroke-width="1" stroke="#303030" d="M82.5,111L77.3,108C77.8,108.9,78.1,109.9,78.1,111C78.1,112.1,77.8,113.1,77.3,114L82.5,111"/><path fill="#303030" stroke-linecap="round" stroke-width="1" stroke="#303030" d="M56,3.6L50.8,.6C51.3,1.4,51.6,2.5,51.6,3.6C51.6,4.6,51.3,5.7,50.8,6.6L56,3.6"/><path fill="#303030" stroke-linecap="round" stroke-width="1" stroke="#303030" d="M56,-55.3L50.8,-58.3C51.3,-57.4,51.6,-56.3,51.6,-55.3C51.6,-54.2,51.3,-53.1,50.8,-52.3L56,-55.3"/></g><g id="shape23" transform="translate(396,454.55)"><path fill="none" stroke="#6d6d6d" d="M0,0L20.7,0"/><path fill="#6d6d6d" stroke-linecap="round" stroke-width="1" stroke="#6d6d6d" d="M25,0L19.9,-3C20.4,-2.1,20.7,-1.1,20.7,0C20.7,1.1,20.4,2.1,19.9,3L25,0"/></g><g id="shape24" transform="matrix(-1,0,0,-1,540.1,378)"><path fill="none" stroke="#303030" d="M0,0L53.1,0L0,0zM0,0L53.1,0L53.1,-17.8L139.7,-17.8M0,0L53.1,0L53.1,35.5L139.7,35.5"/><path fill="#303030" stroke-linecap="round" stroke-width="1" stroke="#303030" d="M144.1,-17.8L138.9,-20.8C139.4,-19.9,139.7,-18.8,139.7,-17.8C139.7,-16.7,139.4,-15.6,138.9,-14.8L144.1,-17.8"/><path fill="#303030" stroke-linecap="round" stroke-width="1" stroke="#303030" d="M144.1,35.5L138.9,32.5C139.4,33.4,139.7,34.4,139.7,35.5C139.7,36.6,139.4,37.6,138.9,38.5L144.1,35.5"/></g><g id="shape25" transform="translate(571.5,520.79)"><path fill="none" stroke="#6d6d6d" d="M0,0L0,14.2L9.5,14.2L9.5,17.8"/><path fill="#6d6d6d" stroke-linecap="round" stroke-width="1" stroke="#6d6d6d" d="M9.5,22.2L12.5,17C11.6,17.5,10.6,17.8,9.5,17.8C8.4,17.8,7.4,17.5,6.5,17L9.5,22.2"/></g><g id="shape26" transform="translate(786.5,434.55)"><path fill="none" stroke="#6d6d6d" d="M0,0L0,100.4L-205.5,100.4L-205.5,104.1"/><path fill="#6d6d6d" stroke-linecap="round" stroke-width="1" stroke="#6d6d6d" d="M-205.5,108.4L-202.5,103.3C-203.4,103.8,-204.4,104.1,-205.5,104.1C-206.6,104.1,-207.6,103.8,-208.5,103.3L-205.5,108.4"/></g></g></svg>