<svg width="878" xmlns:ev="http://www.w3.org/2001/xml-events" viewBox="0 0 878 620" xmlns:xlink="http://www.w3.org/1999/xlink" xmlns="http://www.w3.org/2000/svg" height="620"><style type="text/css"><![CDATA[
.st1 {fill:#303030;font-family:Arial;font-size:7.5pt}
]]></style><defs><linearGradient id="lg1" y1="0%" y2="100%" x1="0%" x2="0%"><stop offset="0" stop-color="#fbfbfb"/><stop offset="1" stop-color="#efefef"/></linearGradient></defs><g transform="translate(5,5)" id="page1"><rect width="868" x="0" y="0" fill="#ffffff" stroke="#808080" height="610"/><g transform="translate(39.78,40)" id="shape1"><path stroke="#000000" stroke-opacity="0.08"/><path d="M0,0L786.6,0L786.6,529L0,529L0,0zM0,0L196.7,0L157.3,20L0,20L0,0" fill="none" stroke="#6d6d6d"/><text class="st1"><tspan x="57.3" y="13">SD Thing erstellen</tspan></text></g><g transform="translate(88,82)"><path d="M0,0L28,0L0,0z" transform="translate(-0.04,23.04)" fill="none" id="shape2" stroke="#6d6d6d"/><path d="M14,0L14,29.9L14,0zM0,52.1L14,30.2L0,52.1z" transform="translate(0,11.83)" fill="none" id="shape3" stroke="#6d6d6d"/><path d="M0,0L14,22.2L0,0z" transform="translate(14,41.73)" fill="none" id="shape4" stroke="#6d6d6d"/><path d="M0,7.2C0,3.2,3.1,0,6.8,0C10.6,0,13.6,3.2,13.6,7.2C13.6,11.1,10.6,14.3,6.8,14.3C3.1,14.3,0,11.1,0,7.2z" transform="translate(7.23,-0.05)" fill="url(#lg1)" id="shape5" stroke="#6d6d6d"/><text class="st1"><tspan x="-6" y="79">Benutzer</tspan></text></g><g transform="matrix(0,1,-1,0,108.6,180.9)" id="shape6"><path d="M2,-2L375.1,-2L375.1,13.1L2,13.1L2,-2z" fill="#000000" fill-opacity="0.08"/><path d="M0,0L373.1,0L373.1,15.1L0,15.1L0,0z" fill="url(#lg1)" stroke="#6d6d6d"/></g><g transform="translate(201,97)"><path d="M2,2L96,2L96,36L2,36L2,2z" fill="#000000" fill-opacity="0.08"/><g id="shape7"><path d="M0,0L94,0L94,34L0,34L0,0z" fill="url(#lg1)" stroke="#6d6d6d"/><text class="st1"><tspan x="18.4" y="19.8">MainWindow</tspan></text></g><path d="M47,34L47,453L47,34z" fill="none" id="shape8" stroke="#6d6d6d"/></g><g transform="translate(381,239)"><path d="M2,2L96,2L96,36L2,36L2,2z" fill="#000000" fill-opacity="0.08"/><g id="shape9"><path d="M0,0L94,0L94,34L0,34L0,0z" fill="url(#lg1)" stroke="#6d6d6d"/><text class="st1"><tspan x="16.4" y="19.8">ThingWindow</tspan></text></g><path d="M47,34L47,315L47,34z" fill="none" id="shape10" stroke="#6d6d6d"/></g><g transform="translate(533,97)"><path d="M2,2L96,2L96,36L2,36L2,2z" fill="#000000" fill-opacity="0.08"/><g id="shape11"><path d="M0,0L94,0L94,34L0,34L0,0z" fill="url(#lg1)" stroke="#6d6d6d"/><text class="st1"><tspan x="12.4" y="19.8">ThingController</tspan></text></g><path d="M47,34L47,456L47,34z" fill="none" id="shape12" stroke="#6d6d6d"/></g><g transform="translate(688,97)"><path d="M2,2L96,2L96,36L2,36L2,2z" fill="#000000" fill-opacity="0.08"/><g id="shape13"><path d="M0,0L94,0L94,34L0,34L0,0z" fill="url(#lg1)" stroke="#6d6d6d"/><text class="st1"><tspan x="10.4" y="13.8">SensorThingsSe</tspan><tspan x="36.4" y="25.8">rvice</tspan></text></g><path d="M47,34L47,457L47,34z" fill="none" id="shape14" stroke="#6d6d6d"/></g><g transform="matrix(0,1,-1,0,255.6,181)" id="shape15"><path d="M2,-2L102,-2L102,13.1L2,13.1L2,-2z" fill="#000000" fill-opacity="0.08"/><path d="M0,0L100,0L100,15.1L0,15.1L0,0z" fill="url(#lg1)" stroke="#6d6d6d"/></g><g transform="matrix(1,0,-0,1,108.6,205.9)" id="shape16"><path d="M0,-0L119.9,-0" fill="none" stroke="#000000"/><path d="M119.9,-6L131.9,-0L119.9,6L119.9,-6" fill="#000000" stroke-width="1" stroke="#000000" stroke-linecap="round"/><text class="st1"><tspan x="24.1" y="-25.7">1: Benutzer drückt </tspan><tspan x="30.1" y="-13.7">"Create Thing"-</tspan><tspan x="50.1" y="-1.7">Button</tspan></text></g><g transform="matrix(0,1,-1,0,255.6,206)" id="shape17"><path d="M0,0L0,-47.2L25,-47.2L25,-10.4" fill="none" stroke="#000000"/><path d="M25,0L27.6,-10.4L22.4,-10.4L25,0" fill="#000000" stroke-width="1" stroke="#000000" stroke-linecap="round"/><text class="st1" transform="matrix(0,-1,1,0,40.9,-71.6)"><tspan x="-50.9" y="-53.2">2: createThing()</tspan></text></g><g transform="translate(255.56,256)" id="shape18"><path d="M0,-0L113.4,-0" fill="none" stroke="#000000"/><path d="M113.4,-6L125.4,-0L113.4,6L113.4,-6" fill="#000000" stroke-width="1" stroke="#000000" stroke-linecap="round"/><text class="st1"><tspan x="25.9" y="-13.7">3: showDialog()</tspan></text></g><g transform="matrix(0,1,-1,0,435.6,306)" id="shape19"><path d="M2,-2L244,-2L244,13.1L2,13.1L2,-2z" fill="#000000" fill-opacity="0.08"/><path d="M0,0L242,0L242,15.1L0,15.1L0,0z" fill="url(#lg1)" stroke="#6d6d6d"/></g><g transform="matrix(1,0,-0,1,108.6,330.9)" id="shape20"><path d="M0,-0L299.9,-0" fill="none" stroke="#000000"/><path d="M299.9,-6L311.9,-0L299.9,6L299.9,-6" fill="#000000" stroke-width="1" stroke="#000000" stroke-linecap="round"/><text class="st1"><tspan x="79.5" y="-19.7">4: Benutzer schreibt Namen und </tspan><tspan x="98.5" y="-7.7">Description in Textfelder</tspan></text></g><g transform="matrix(0,1,-1,0,435.6,381)" id="shape21"><path d="M0,0L0,-44.5L25,-44.5L25,-10.4" fill="none" stroke="#000000"/><path d="M25,0L27.6,-10.4L22.4,-10.4L25,0" fill="#000000" stroke-width="1" stroke="#000000" stroke-linecap="round"/><text class="st1" transform="matrix(0,-1,1,0,40.9,-71.6)"><tspan x="-58.9" y="-53.2">6: chooseLocation()</tspan></text></g><g transform="matrix(1,0,-0,1,108.6,430.9)" id="shape22"><path d="M0,-0L299.9,-0" fill="none" stroke="#000000"/><path d="M299.9,-6L311.9,-0L299.9,6L299.9,-6" fill="#000000" stroke-width="1" stroke="#000000" stroke-linecap="round"/><text class="st1"><tspan x="75.5" y="-13.7">7: Benutzer drückt "Create"-Button</tspan></text></g><g transform="matrix(0,1,-1,0,587.6,456)" id="shape23"><path d="M2,-2L89,-2L89,13.1L2,13.1L2,-2z" fill="#000000" fill-opacity="0.08"/><path d="M0,0L87,0L87,15.1L0,15.1L0,0z" fill="url(#lg1)" stroke="#6d6d6d"/></g><g transform="translate(435.56,481)" id="shape24"><path d="M0,-0L124.9,-0" fill="none" stroke="#000000"/><path d="M124.9,-6L136.9,-0L124.9,6L124.9,-6" fill="#000000" stroke-width="1" stroke="#000000" stroke-linecap="round"/><text class="st1"><tspan x="32.5" y="-19.7">9: create(Thing </tspan><tspan x="54.5" y="-7.7">thing)</tspan></text></g><g transform="translate(587.56,506)" id="shape25"><path d="M0,-0L127.9,-0" fill="none" stroke="#000000"/><path d="M127.9,-6L139.9,-0L127.9,6L127.9,-6" fill="#000000" stroke-width="1" stroke="#000000" stroke-linecap="round"/><text class="st1"><tspan x="41.9" y="-13.7">10: create()</tspan></text></g><g transform="matrix(0,1,-1,0,742.6,481)" id="shape26"><path d="M2,-2L52,-2L52,13.1L2,13.1L2,-2z" fill="#000000" fill-opacity="0.08"/><path d="M0,0L50,0L50,15.1L0,15.1L0,0z" fill="url(#lg1)" stroke="#6d6d6d"/></g><g transform="matrix(1,0,-0,1,108.6,380.9)" id="shape27"><path d="M0,-0L299.9,-0" fill="none" stroke="#000000"/><path d="M299.9,-6L311.9,-0L299.9,6L299.9,-6" fill="#000000" stroke-width="1" stroke="#000000" stroke-linecap="round"/><text class="st1"><tspan x="92.5" y="-13.7">5: Benutzer wählt Location</tspan></text></g><g transform="matrix(0,1,-1,0,435.6,431)" id="shape28"><path d="M0,0L0,-47.2L25,-47.2L25,-10.4" fill="none" stroke="#000000"/><path d="M25,0L27.6,-10.4L22.4,-10.4L25,0" fill="#000000" stroke-width="1" stroke="#000000" stroke-linecap="round"/><text class="st1" transform="matrix(0,-1,1,0,40.9,-71.6)"><tspan x="-50.9" y="-53.2">8: createThing()</tspan></text></g><g transform="matrix(-1,0,0,-1,572.4,531)" id="shape29"><path stroke-dasharray="6,4" d="M0,-0L136.9,-0" fill="none" stroke="#000000"/><path d="M124.9,-6L136.9,-0L124.9,6" stroke-linejoin="round" fill="none" stroke-width="1" stroke="#000000" stroke-linecap="round"/><text class="st1" transform="matrix(-1,0,0,-1,123.2,33.5)"><tspan x="12.6" y="19.7">11: HTTP-StatusCode</tspan></text></g></g></svg>