<svg width="972" xmlns:ev="http://www.w3.org/2001/xml-events" viewBox="0 0 972 963" xmlns:xlink="http://www.w3.org/1999/xlink" xmlns="http://www.w3.org/2000/svg" height="963"><style type="text/css"><![CDATA[
.st1 {fill:#303030;font-family:Arial;font-size:7.5pt}
]]></style><defs><linearGradient id="lg1" y1="0%" y2="100%" x1="0%" x2="0%"><stop offset="0" stop-color="#fbfbfb"/><stop offset="1" stop-color="#efefef"/></linearGradient></defs><g transform="translate(5,5)" id="page1"><rect width="962" x="0" y="0" fill="#ffffff" stroke="#808080" height="953"/><g transform="translate(39.78,40)" id="shape1"><path stroke="#000000" stroke-opacity="0.08"/><path d="M0,0L881.2,0L881.2,872L0,872L0,0zM0,0L220.3,0L176.2,20L0,20L0,0" fill="none" stroke="#6d6d6d"/><text class="st1"><tspan x="69.2" y="13">SD Thing erstellen</tspan></text></g><g transform="translate(88,82)"><path d="M0,0L28,0L0,0z" transform="translate(-0.04,23.04)" fill="none" id="shape2" stroke="#6d6d6d"/><path d="M14,0L14,29.9L14,0zM0,52.1L14,30.2L0,52.1z" transform="translate(0,11.83)" fill="none" id="shape3" stroke="#6d6d6d"/><path d="M0,0L14,22.2L0,0z" transform="translate(14,41.73)" fill="none" id="shape4" stroke="#6d6d6d"/><path d="M0,7.2C0,3.2,3.1,0,6.8,0C10.6,0,13.6,3.2,13.6,7.2C13.6,11.1,10.6,14.3,6.8,14.3C3.1,14.3,0,11.1,0,7.2z" transform="translate(7.23,-0.05)" fill="url(#lg1)" id="shape5" stroke="#6d6d6d"/><text class="st1"><tspan x="-6" y="79">Benutzer</tspan></text></g><g transform="matrix(0,1,-1,0,108.6,180.9)" id="shape6"><path d="M2,-2L709.1,-2L709.1,13.1L2,13.1L2,-2z" fill="#000000" fill-opacity="0.08"/><path d="M0,0L707.1,0L707.1,15.1L0,15.1L0,0z" fill="url(#lg1)" stroke="#6d6d6d"/></g><g transform="translate(175,97)"><path d="M2,2L96,2L96,36L2,36L2,2z" fill="#000000" fill-opacity="0.08"/><g id="shape7"><path d="M0,0L94,0L94,34L0,34L0,0z" fill="url(#lg1)" stroke="#6d6d6d"/><text class="st1"><tspan x="18.4" y="19.8">MainWindow</tspan></text></g><path d="M47,34L47,791L47,34z" fill="none" id="shape8" stroke="#6d6d6d"/></g><g transform="translate(326.44,238)"><path d="M2,2L96,2L96,36L2,36L2,2z" fill="#000000" fill-opacity="0.08"/><g id="shape9"><path d="M0,0L94,0L94,34L0,34L0,0z" fill="url(#lg1)" stroke="#6d6d6d"/><text class="st1"><tspan x="16.4" y="19.8">ThingWindow</tspan></text></g><path d="M47,34L47,655L47,34z" fill="none" id="shape10" stroke="#6d6d6d"/></g><g transform="translate(557.5,97)"><path d="M2,2L96,2L96,36L2,36L2,2z" fill="#000000" fill-opacity="0.08"/><g id="shape11"><path d="M0,0L94,0L94,34L0,34L0,0z" fill="url(#lg1)" stroke="#6d6d6d"/><text class="st1"><tspan x="12.4" y="19.8">ThingController</tspan></text></g><path d="M47,34L47,796L47,34z" fill="none" id="shape12" stroke="#6d6d6d"/></g><g transform="translate(661,97)"><path d="M2,2L96,2L96,36L2,36L2,2z" fill="#000000" fill-opacity="0.08"/><g id="shape13"><path d="M0,0L94,0L94,34L0,34L0,0z" fill="url(#lg1)" stroke="#6d6d6d"/><text class="st1"><tspan x="14.4" y="13.8">SensorThings-</tspan><tspan x="30.4" y="25.8">Service</tspan></text></g><path d="M47,34L47,796L47,34z" fill="none" id="shape14" stroke="#6d6d6d"/></g><g transform="matrix(0,1,-1,0,229.6,181)" id="shape15"><path d="M2,-2L102,-2L102,13.1L2,13.1L2,-2z" fill="#000000" fill-opacity="0.08"/><path d="M0,0L100,0L100,15.1L0,15.1L0,0z" fill="url(#lg1)" stroke="#6d6d6d"/></g><g transform="matrix(1,0,-0,1,108.6,205.9)" id="shape16"><path d="M0,-0L93.9,-0" fill="none" stroke="#000000"/><path d="M93.9,-6L105.9,-0L93.9,6L93.9,-6" fill="#000000" stroke-width="1" stroke="#000000" stroke-linecap="round"/><text class="st1"><tspan x="11.4" y="-25.7">1: Benutzer drückt </tspan><tspan x="17.4" y="-13.7">"Create Thing"-</tspan><tspan x="37.4" y="-1.7">Button</tspan></text></g><g transform="matrix(0,1,-1,0,229.6,206)" id="shape17"><path d="M0,0L0,-47.2L25,-47.2L25,-10.4" fill="none" stroke="#000000"/><path d="M25,0L27.6,-10.4L22.4,-10.4L25,0" fill="#000000" stroke-width="1" stroke="#000000" stroke-linecap="round"/><text class="st1" transform="matrix(0,-1,1,0,40.9,-71.6)"><tspan x="-50.9" y="-53.2">2: createThing()</tspan></text></g><g transform="matrix(1,-0.01,0.01,1,229.6,256)" id="shape18"><path d="M0,-0L84.9,-0" fill="none" stroke="#000000"/><path d="M84.9,-6L96.9,-0L84.9,6L84.9,-6" fill="#000000" stroke-width="1" stroke="#000000" stroke-linecap="round"/><text class="st1"><tspan x="12.1" y="-13.7">3: showDialog()</tspan></text></g><g transform="matrix(0,1,-1,0,381,306)" id="shape19"><path d="M2,-2L568,-2L568,13.1L2,13.1L2,-2z" fill="#000000" fill-opacity="0.08"/><path d="M0,0L566,0L566,15.1L0,15.1L0,0z" fill="url(#lg1)" stroke="#6d6d6d"/></g><g transform="matrix(1,0,-0,1,108.6,330.9)" id="shape20"><path d="M0,-0L245.3,-0" fill="none" stroke="#000000"/><path d="M245.3,-6L257.3,-0L245.3,6L245.3,-6" fill="#000000" stroke-width="1" stroke="#000000" stroke-linecap="round"/><text class="st1"><tspan x="80.5" y="-25.7">4: Benutzer schreibt </tspan><tspan x="67.5" y="-13.7">Namen und Description in </tspan><tspan x="103.5" y="-1.7">Textfelder</tspan></text></g><g transform="matrix(0,1,-1,0,381,381)" id="shape21"><path d="M0,0L0,-44.5L25,-44.5L25,-10.4" fill="none" stroke="#000000"/><path d="M25,0L27.6,-10.4L22.4,-10.4L25,0" fill="#000000" stroke-width="1" stroke="#000000" stroke-linecap="round"/><text class="st1" transform="matrix(0,-1,1,0,40.9,-71.6)"><tspan x="-58.9" y="-53.2">6: chooseLocation()</tspan></text></g><g transform="matrix(1,0,-0,1,108.6,755.9)" id="shape22"><path d="M0,-0L245.3,-0" fill="none" stroke="#000000"/><path d="M245.3,-6L257.3,-0L245.3,6L245.3,-6" fill="#000000" stroke-width="1" stroke="#000000" stroke-linecap="round"/><text class="st1"><tspan x="60" y="-19.7">16: Benutzer drückt "Create"-</tspan><tspan x="111" y="-7.7">Button</tspan></text></g><g transform="matrix(0,1,-1,0,612.1,781)" id="shape23"><path d="M2,-2L102,-2L102,13.1L2,13.1L2,-2z" fill="#000000" fill-opacity="0.08"/><path d="M0,0L100,0L100,15.1L0,15.1L0,0z" fill="url(#lg1)" stroke="#6d6d6d"/></g><g transform="translate(381,806)" id="shape24"><path d="M0,-0L203.9,-0" fill="none" stroke="#000000"/><path d="M203.9,-6L215.9,-0L203.9,6L203.9,-6" fill="#000000" stroke-width="1" stroke="#000000" stroke-linecap="round"/><text class="st1"><tspan x="54.9" y="-13.7">18: create(Thing thing)</tspan></text></g><g transform="translate(612.06,831)" id="shape25"><path d="M0,-0L76.4,-0" fill="none" stroke="#000000"/><path d="M76.4,-6L88.4,-0L76.4,6L76.4,-6" fill="#000000" stroke-width="1" stroke="#000000" stroke-linecap="round"/><text class="st1"><tspan x="16.9" y="-13.7">19: create()</tspan></text></g><g transform="matrix(0,1,-1,0,715.6,806)" id="shape26"><path d="M2,-2L52,-2L52,13.1L2,13.1L2,-2z" fill="#000000" fill-opacity="0.08"/><path d="M0,0L50,0L50,15.1L0,15.1L0,0z" fill="url(#lg1)" stroke="#6d6d6d"/></g><g transform="matrix(1,0,-0,1,108.6,380.9)" id="shape27"><path d="M0,-0L245.3,-0" fill="none" stroke="#000000"/><path d="M245.3,-6L257.3,-0L245.3,6L245.3,-6" fill="#000000" stroke-width="1" stroke="#000000" stroke-linecap="round"/><text class="st1"><tspan x="66" y="-13.7">5: Benutzer sucht Location</tspan></text></g><g transform="matrix(0,1,-1,0,381,756)" id="shape28"><path d="M0,0L0,-47.2L25,-47.2L25,-10.4" fill="none" stroke="#000000"/><path d="M25,0L27.6,-10.4L22.4,-10.4L25,0" fill="#000000" stroke-width="1" stroke="#000000" stroke-linecap="round"/><text class="st1" transform="matrix(0,-1,1,0,40.9,-71.6)"><tspan x="-52.9" y="-53.2">17: createThing()</tspan></text></g><g transform="matrix(-1,0,0,-1,596.9,856)" id="shape29"><path stroke-dasharray="6,4" d="M0,-0L215.9,-0" fill="none" stroke="#000000"/><path d="M203.9,-6L215.9,-0L203.9,6" stroke-linejoin="round" fill="none" stroke-width="1" stroke="#000000" stroke-linecap="round"/><text class="st1" transform="matrix(-1,0,0,-1,194.3,33.5)"><tspan x="21.7" y="19.7">20: ResponseEntity&lt;> statusCode</tspan></text></g><g transform="translate(454,97)"><path d="M2,2L96,2L96,36L2,36L2,2z" fill="#000000" fill-opacity="0.08"/><g id="shape30"><path d="M0,0L94,0L94,34L0,34L0,0z" fill="url(#lg1)" stroke="#6d6d6d"/><text class="st1"><tspan x="26.4" y="13.8">Location-</tspan><tspan x="25.4" y="25.8">Controller</tspan></text></g><path d="M47,34L47,796L47,34z" fill="none" id="shape31" stroke="#6d6d6d"/></g><g transform="matrix(0,1,-1,0,508.6,406)" id="shape32"><path d="M2,-2L252,-2L252,13.1L2,13.1L2,-2z" fill="#000000" fill-opacity="0.08"/><path d="M0,0L250,0L250,15.1L0,15.1L0,0z" fill="url(#lg1)" stroke="#6d6d6d"/></g><g transform="translate(381,431)" id="shape33"><path d="M0,-0L100.4,-0" fill="none" stroke="#000000"/><path d="M100.4,-6L112.4,-0L100.4,6L100.4,-6" fill="#000000" stroke-width="1" stroke="#000000" stroke-linecap="round"/><text class="st1"><tspan x="33.6" y="-13.7">7: getAll()</tspan></text></g><g transform="translate(508.56,456)" id="shape34"><path d="M0,-0L179.9,-0" fill="none" stroke="#000000"/><path d="M179.9,-6L191.9,-0L179.9,6L179.9,-6" fill="#000000" stroke-width="1" stroke="#000000" stroke-linecap="round"/><text class="st1"><tspan x="64.2" y="-13.7">8: locations()</tspan></text></g><g transform="matrix(0,1,-1,0,715.6,431)" id="shape35"><path d="M2,-2L102,-2L102,13.1L2,13.1L2,-2z" fill="#000000" fill-opacity="0.08"/><path d="M0,0L100,0L100,15.1L0,15.1L0,0z" fill="url(#lg1)" stroke="#6d6d6d"/></g><g transform="matrix(-1,0,0,-1,700.4,506)" id="shape36"><path stroke-dasharray="6,4" d="M0,-0L191.9,-0" fill="none" stroke="#000000"/><path d="M179.9,-6L191.9,-0L179.9,6" stroke-linejoin="round" fill="none" stroke-width="1" stroke="#000000" stroke-linecap="round"/><text class="st1" transform="matrix(-1,0,0,-1,172.7,33.5)"><tspan x="50.3" y="13.7">10: LocationDao </tspan><tspan x="66.3" y="25.7">locations</tspan></text></g><g transform="translate(804,464)"><path d="M2,2L96,2L96,36L2,36L2,2z" fill="#000000" fill-opacity="0.08"/><g id="shape37"><path d="M0,0L94,0L94,34L0,34L0,0z" fill="url(#lg1)" stroke="#6d6d6d"/><text class="st1"><tspan x="18.4" y="19.8">LocationDao</tspan></text></g><path d="M47,34L47,429L47,34z" fill="none" id="shape38" stroke="#6d6d6d"/></g><g transform="translate(715.56,481)" id="shape39"><path d="M0,-0L76.4,-0" fill="none" stroke="#000000"/><path d="M76.4,-6L88.4,-0L76.4,6L76.4,-6" fill="#000000" stroke-width="1" stroke="#000000" stroke-linecap="round"/><text class="st1"><tspan x="28" y="-19.7">9: new </tspan><tspan x="12" y="-7.7">LocationDao()</tspan></text></g><g transform="matrix(0,1,-1,0,858.6,531)" id="shape40"><path d="M2,-2L102,-2L102,13.1L2,13.1L2,-2z" fill="#000000" fill-opacity="0.08"/><path d="M0,0L100,0L100,15.1L0,15.1L0,0z" fill="url(#lg1)" stroke="#6d6d6d"/></g><g transform="translate(508.56,556)" id="shape41"><path d="M0,-0L322.9,-0" fill="none" stroke="#000000"/><path d="M322.9,-6L334.9,-0L322.9,6L322.9,-6" fill="#000000" stroke-width="1" stroke="#000000" stroke-linecap="round"/><text class="st1"><tspan x="145.7" y="-13.7">11: list()</tspan></text></g><g transform="matrix(-1,0,0,-1,843.4,606)" id="shape42"><path stroke-dasharray="6,4" d="M0,-0L334.9,-0" fill="none" stroke="#000000"/><path d="M322.9,-6L334.9,-0L322.9,6" stroke-linejoin="round" fill="none" stroke-width="1" stroke="#000000" stroke-linecap="round"/><text class="st1" transform="matrix(-1,0,0,-1,301.4,33.5)"><tspan x="97.2" y="19.7">12: EntityList&lt;Location></tspan></text></g><g transform="matrix(-1,0,0,-1,493.4,631)" id="shape43"><path stroke-dasharray="6,4" d="M0,-0L112.4,-0" fill="none" stroke="#000000"/><path d="M100.4,-6L112.4,-0L100.4,6" stroke-linejoin="round" fill="none" stroke-width="1" stroke="#000000" stroke-linecap="round"/><text class="st1" transform="matrix(-1,0,0,-1,101.2,33.5)"><tspan x="7.6" y="7.7">13: ResponseEntity </tspan><tspan x="10.6" y="19.7">mit List&lt;Location> </tspan><tspan x="32.6" y="31.7">im Body</tspan></text></g><g transform="matrix(-1,-0,0,-1,365.9,656)" id="shape44"><path stroke-dasharray="6,4" d="M0,-0L257.3,-0" fill="none" stroke="#000000"/><path d="M245.3,-6L257.3,-0L245.3,6" stroke-linejoin="round" fill="none" stroke-width="1" stroke="#000000" stroke-linecap="round"/><text class="st1" transform="matrix(-1,0,0,-1,231.6,33.5)"><tspan x="31.8" y="19.7">14: Zeige Vorschläge für Locations an</tspan></text></g><g transform="matrix(1,0,-0,1,108.6,705.9)" id="shape45"><path d="M0,-0L245.3,-0" fill="none" stroke="#000000"/><path d="M245.3,-6L257.3,-0L245.3,6L245.3,-6" fill="#000000" stroke-width="1" stroke="#000000" stroke-linecap="round"/><text class="st1"><tspan x="63.5" y="-13.7">15: Benutzer wählt Location</tspan></text></g></g></svg>