<svg width="697" xmlns:ev="http://www.w3.org/2001/xml-events" viewBox="0 0 697 625" xmlns:xlink="http://www.w3.org/1999/xlink" xmlns="http://www.w3.org/2000/svg" height="625"><style type="text/css"><![CDATA[
.st1 {fill:#303030;font-family:Arial;font-size:7.5pt}
]]></style><defs><linearGradient id="lg1" y1="0%" y2="100%" x1="0%" x2="0%"><stop offset="0" stop-color="#fbfbfb"/><stop offset="1" stop-color="#efefef"/></linearGradient></defs><g transform="translate(5,5)" id="page1"><rect width="687" x="0" y="0" fill="#ffffff" stroke="#808080" height="615"/><g transform="translate(39.72,40)" id="shape1"><path stroke="#000000" stroke-opacity="0.08"/><path d="M0,0L606.3,0L606.3,534L0,534L0,0zM0,0L151.6,0L121.3,20L0,20L0,0" fill="none" stroke="#6d6d6d"/><text class="st1"><tspan x="26.3" y="13">SD Zeilenverarbeitung</tspan></text></g><g transform="translate(112,370.1)" id="shape2"><path stroke="#000000" stroke-opacity="0.08"/><path d="M0,0L486,0L486,170.9L0,170.9L0,0zM0,0L121.5,0L97.2,20L0,20L0,0" fill="none" stroke="#6d6d6d"/><text class="st1"><tspan x="56.3" y="13">IF</tspan></text><text class="st1"><tspan x="4" y="33">[duplicate = false]</tspan></text></g><g transform="translate(459.44,75.1)"><path d="M2,2L96,2L96,36L2,36L2,2z" fill="#000000" fill-opacity="0.08"/><g id="shape3"><path d="M0,0L94,0L94,34L0,34L0,0z" fill="url(#lg1)" stroke="#6d6d6d"/><text class="st1"><tspan x="18.4" y="13.8">Observation-</tspan><tspan x="30.4" y="25.8">Creator</tspan></text></g><path d="M47,34L47,479.9L47,34z" fill="none" id="shape4" stroke="#6d6d6d"/></g><g transform="translate(335,75.1)"><path d="M2,2L96,2L96,36L2,36L2,2z" fill="#000000" fill-opacity="0.08"/><g id="shape5"><path d="M0,0L94,0L94,34L0,34L0,0z" fill="url(#lg1)" stroke="#6d6d6d"/><text class="st1"><tspan x="21.4" y="19.8">TimeParser</tspan></text></g><path d="M47,34L47,479.9L47,34z" fill="none" id="shape6" stroke="#6d6d6d"/></g><g transform="translate(396,120)"><path d="M2,2L96,2L96,36L2,36L2,2z" fill="#000000" fill-opacity="0.08"/><g id="shape7"><path d="M0,0L94,0L94,34L0,34L0,0z" fill="url(#lg1)" stroke="#6d6d6d"/><text class="st1"><tspan x="12.4" y="19.8">CheckDuplicate</tspan></text></g><path d="M47,34L47,435L47,34z" fill="none" id="shape8" stroke="#6d6d6d"/></g><g transform="translate(521,120)"><path d="M2,2L96,2L96,36L2,36L2,2z" fill="#000000" fill-opacity="0.08"/><g id="shape9"><path d="M0,0L94,0L94,34L0,34L0,0z" fill="url(#lg1)" stroke="#6d6d6d"/><text class="st1"><tspan x="14.4" y="13.8">SensorThings-</tspan><tspan x="30.4" y="25.8">Service</tspan></text></g><path d="M47,34L47,435L47,34z" fill="none" id="shape10" stroke="#6d6d6d"/></g><g transform="translate(188,75.1)"><path d="M2,2L96,2L96,36L2,36L2,2z" fill="#000000" fill-opacity="0.08"/><g id="shape11"><path d="M0,0L94,0L94,34L0,34L0,0z" fill="url(#lg1)" stroke="#6d6d6d"/><text class="st1"><tspan x="13.4" y="19.8">UploadHandler</tspan></text></g><path d="M47,34L47,479.9L47,34z" fill="none" id="shape12" stroke="#6d6d6d"/></g><g transform="matrix(0,1,-1,0,242.6,140.1)" id="shape13"><path d="M2,-2L371,-2L371,13.1L2,13.1L2,-2z" fill="#000000" fill-opacity="0.08"/><path d="M0,0L369,0L369,15.1L0,15.1L0,0z" fill="url(#lg1)" stroke="#6d6d6d"/></g><g transform="translate(242.56,165.1)" id="shape14"><path d="M0,-0L119.9,-0" fill="none" stroke="#000000"/><path d="M119.9,-6L131.9,-0L119.9,6L119.9,-6" fill="#000000" stroke-width="1" stroke="#000000" stroke-linecap="round"/><text class="st1"><tspan x="15.1" y="-13.7">2: toLDT(time, format)</tspan></text></g><g transform="matrix(0,1,-1,0,389.6,140.1)" id="shape15"><path d="M2,-2L63.9,-2L63.9,13.1L2,13.1L2,-2z" fill="#000000" fill-opacity="0.08"/><path d="M0,0L61.9,0L61.9,15.1L0,15.1L0,0z" fill="url(#lg1)" stroke="#6d6d6d"/></g><g transform="matrix(-1,0,0,-1,374.4,190.1)" id="shape16"><path stroke-dasharray="6,4" d="M0,-0L131.9,-0" fill="none" stroke="#000000"/><path d="M119.9,-6L131.9,-0L119.9,6" stroke-linejoin="round" fill="none" stroke-width="1" stroke="#000000" stroke-linecap="round"/><text class="st1" transform="matrix(-1,0,0,-1,118.7,33.5)"><tspan x="13.3" y="19.7">3: LocalDateTime ldt</tspan></text></g><g transform="matrix(1,-0,0,1,242.6,240.1)" id="shape17"><path d="M0,-0L119.9,-0" fill="none" stroke="#000000"/><path d="M119.9,-6L131.9,-0L119.9,6L119.9,-6" fill="#000000" stroke-width="1" stroke="#000000" stroke-linecap="round"/><text class="st1"><tspan x="10.6" y="-19.7">4: toZonedDateTime(ldt, </tspan><tspan x="46.6" y="-7.7">ZoneId)</tspan></text></g><g transform="matrix(0,1,-1,0,389.6,215)" id="shape18"><path d="M2,-2L62.1,-2L62.1,13.1L2,13.1L2,-2z" fill="#000000" fill-opacity="0.08"/><path d="M0,0L60.1,0L60.1,15.1L0,15.1L0,0z" fill="url(#lg1)" stroke="#6d6d6d"/></g><g transform="matrix(-1,0,-0,-1,374.4,265)" id="shape19"><path stroke-dasharray="6,4" d="M0,-0L131.9,-0" fill="none" stroke="#000000"/><path d="M119.9,-6L131.9,-0L119.9,6" stroke-linejoin="round" fill="none" stroke-width="1" stroke="#000000" stroke-linecap="round"/><text class="st1" transform="matrix(-1,0,0,-1,118.7,33.5)"><tspan x="7.8" y="19.7">5: ZonedDateTime time</tspan></text></g><g transform="translate(242.56,411.1)" id="shape20"><path d="M0,-0L244.3,-0" fill="none" stroke="#000000"/><path d="M244.3,-6L256.3,-0L244.3,6L244.3,-6" fill="#000000" stroke-width="1" stroke="#000000" stroke-linecap="round"/><text class="st1"><tspan x="28.5" y="-19.7">8: create(Datastream stream, Object result, </tspan><tspan x="113.5" y="-7.7">time)</tspan></text></g><g transform="matrix(0,1,-1,0,514,386.1)" id="shape21"><path d="M2,-2L77,-2L77,13.1L2,13.1L2,-2z" fill="#000000" fill-opacity="0.08"/><path d="M0,0L75,0L75,15.1L0,15.1L0,0z" fill="url(#lg1)" stroke="#6d6d6d"/></g><g transform="matrix(-1,0,0,-1,498.9,436.1)" id="shape22"><path stroke-dasharray="6,4" d="M0,-0L256.3,-0" fill="none" stroke="#000000"/><path d="M244.3,-6L256.3,-0L244.3,6" stroke-linejoin="round" fill="none" stroke-width="1" stroke="#000000" stroke-linecap="round"/><text class="st1" transform="matrix(-1,0,0,-1,230.7,33.5)"><tspan x="73.3" y="19.7">9: Observation obs</tspan></text></g><g transform="matrix(1,-0,0,1,242.6,315.1)" id="shape23"><path d="M0,-0L180.9,-0" fill="none" stroke="#000000"/><path d="M180.9,-6L192.9,-0L180.9,6L180.9,-6" fill="#000000" stroke-width="1" stroke="#000000" stroke-linecap="round"/><text class="st1"><tspan x="46.7" y="-19.7">6: find(stream, result, </tspan><tspan x="82.7" y="-7.7">time)</tspan></text></g><g transform="matrix(0,1,-1,0,450.6,290)" id="shape24"><path d="M2,-2L77,-2L77,13.1L2,13.1L2,-2z" fill="#000000" fill-opacity="0.08"/><path d="M0,0L75,0L75,15.1L0,15.1L0,0z" fill="url(#lg1)" stroke="#6d6d6d"/></g><g transform="matrix(-1,0,-0,-1,435.4,340)" id="shape25"><path stroke-dasharray="6,4" d="M0,-0L192.9,-0" fill="none" stroke="#000000"/><path d="M180.9,-6L192.9,-0L180.9,6" stroke-linejoin="round" fill="none" stroke-width="1" stroke="#000000" stroke-linecap="round"/><text class="st1" transform="matrix(-1,0,0,-1,173.6,33.5)"><tspan x="42.3" y="19.7">7: boolean duplicate</tspan></text></g><g transform="matrix(0,1,-1,0,575.6,461)" id="shape26"><path d="M2,-2L52,-2L52,13.1L2,13.1L2,-2z" fill="#000000" fill-opacity="0.08"/><path d="M0,0L50,0L50,15.1L0,15.1L0,0z" fill="url(#lg1)" stroke="#6d6d6d"/></g><g transform="matrix(1,-0,0,1,242.6,486.1)" id="shape27"><path d="M0,-0L305.9,-0" fill="none" stroke="#000000"/><path d="M305.9,-6L317.9,-0L305.9,6L305.9,-6" fill="#000000" stroke-width="1" stroke="#000000" stroke-linecap="round"/><text class="st1"><tspan x="120.4" y="-13.7">10: create(obs)</tspan></text></g><g transform="translate(97,165.1)" id="shape28"><path d="M0,-0L118.4,-0" fill="none" stroke="#000000"/><path d="M118.4,-6L130.4,-0L118.4,6L118.4,-6" fill="#000000" stroke-width="1" stroke="#000000" stroke-linecap="round"/><text class="st1"><tspan x="1.9" y="-13.7">1: evaluateRow(config, row)</tspan></text></g></g></svg>