<svg width="1093" xmlns:ev="http://www.w3.org/2001/xml-events" viewBox="0 0 1093 840" xmlns:xlink="http://www.w3.org/1999/xlink" xmlns="http://www.w3.org/2000/svg" height="840"><style type="text/css"><![CDATA[
.st1 {fill:#303030;font-family:Arial;font-size:7.5pt;font-weight:bold}
.st2 {fill:#303030;font-family:Arial;font-size:7.5pt}
]]></style><defs><linearGradient id="lg1" y1="0%" y2="100%" x1="0%" x2="0%"><stop offset="0" stop-color="#fbfbfb"/><stop offset="1" stop-color="#efefef"/></linearGradient></defs><g transform="translate(5,5)" id="page1"><rect width="1083" x="0" y="0" fill="#ffffff" stroke="#808080" height="830"/><g transform="translate(40,40.05)" id="shape1"><path stroke="#000000" stroke-opacity="0.08"/><path d="M0,0L1002,0L1002,749L0,749L0,0zM0,0L250.5,0L200.4,20L0,20L0,0" fill="none" stroke="#6d6d6d"/><text class="st1"><tspan x="48.3" y="13">SD Rückgabe fehlerhafter Zeilen</tspan></text></g><g transform="translate(74,87.05)"><path d="M2,2L96,2L96,36L2,36L2,2z" fill="#000000" fill-opacity="0.08"/><g id="shape2"><path d="M0,0L94,0L94,34L0,34L0,0z" fill="url(#lg1)" stroke="#6d6d6d"/><text class="st2"><tspan x="13.4" y="19.8">UploadHandler</tspan></text></g><path d="M47,34L47,683L47,34z" fill="none" id="shape3" stroke="#6d6d6d"/></g><g transform="translate(452.12,87.05)"><path d="M2,2L96,2L96,36L2,36L2,2z" fill="#000000" fill-opacity="0.08"/><g id="shape4"><path d="M0,0L94,0L94,34L0,34L0,0z" fill="url(#lg1)" stroke="#6d6d6d"/><text class="st2"><tspan x="9.4" y="13.8">ObservationCrea</tspan><tspan x="41.4" y="25.8">tor</tspan></text></g><path d="M47,34L47,683L47,34z" fill="none" id="shape5" stroke="#6d6d6d"/></g><g transform="translate(326.56,87.05)"><path d="M2,2L96,2L96,36L2,36L2,2z" fill="#000000" fill-opacity="0.08"/><g id="shape6"><path d="M0,0L94,0L94,34L0,34L0,0z" fill="url(#lg1)" stroke="#6d6d6d"/><text class="st2"><tspan x="21.4" y="19.8">TimeParser</tspan></text></g><path d="M47,34L47,683L47,34z" fill="none" id="shape7" stroke="#6d6d6d"/></g><g transform="translate(577.68,87.05)"><path d="M2,2L96,2L96,36L2,36L2,2z" fill="#000000" fill-opacity="0.08"/><g id="shape8"><path d="M0,0L94,0L94,34L0,34L0,0z" fill="url(#lg1)" stroke="#6d6d6d"/><text class="st2"><tspan x="18.4" y="19.8">ErrorHandler</tspan></text></g><path d="M47,34L47,683L47,34z" fill="none" id="shape9" stroke="#6d6d6d"/></g><g transform="translate(823,579.55)"><path d="M2,2L96,2L96,36L2,36L2,2z" fill="#000000" fill-opacity="0.08"/><g id="shape10"><path d="M0,0L94,0L94,34L0,34L0,0z" fill="url(#lg1)" stroke="#6d6d6d"/><text class="st2"><tspan x="35.4" y="19.8">Table</tspan></text></g><path d="M47,34L47,190.5L47,34z" fill="none" id="shape11" stroke="#6d6d6d"/></g><g transform="matrix(0,1,-1,0,128.6,171)" id="shape12"><path d="M2,-2L427,-2L427,13.1L2,13.1L2,-2z" fill="#000000" fill-opacity="0.08"/><path d="M0,0L425,0L425,15.1L0,15.1L0,0z" fill="url(#lg1)" stroke="#6d6d6d"/></g><g transform="translate(128.56,246.05)" id="shape13"><path d="M0,-0L99.9,-0" fill="none" stroke="#000000"/><path d="M99.9,-6L111.9,-0L99.9,6L99.9,-6" fill="#000000" stroke-width="1" stroke="#000000" stroke-linecap="round"/><text class="st2"><tspan x="28.3" y="-13.7">2: getRow()</tspan></text></g><g transform="matrix(0,1,-1,0,128.6,196)" id="shape14"><path d="M0,0L0,-47.2L25,-47.2L25,-10.4" fill="none" stroke="#000000"/><path d="M25,0L27.6,-10.4L22.4,-10.4L25,0" fill="#000000" stroke-width="1" stroke="#000000" stroke-linecap="round"/><text class="st2" transform="matrix(0,-1,1,0,40.9,-71.6)"><tspan x="-66.4" y="-59.2">1: processTable(config, </tspan><tspan x="-46.4" y="-47.2">table, int step)</tspan></text></g><g transform="translate(201,87.05)"><path d="M2,2L96,2L96,36L2,36L2,2z" fill="#000000" fill-opacity="0.08"/><g id="shape15"><path d="M0,0L94,0L94,34L0,34L0,0z" fill="url(#lg1)" stroke="#6d6d6d"/><text class="st2"><tspan x="35.4" y="19.8">Table</tspan></text></g><path d="M47,34L47,683L47,34z" fill="none" id="shape16" stroke="#6d6d6d"/></g><g transform="matrix(-1,0,0,-1,240.4,271)" id="shape17"><path stroke-dasharray="6,4" d="M0,-0L111.9,-0" fill="none" stroke="#000000"/><path d="M99.9,-6L111.9,-0L99.9,6" stroke-linejoin="round" fill="none" stroke-width="1" stroke="#000000" stroke-linecap="round"/><text class="st2" transform="matrix(-1,0,0,-1,100.7,33.5)"><tspan x="7.3" y="19.7">3: List&lt;Object> row</tspan></text></g><g transform="translate(128.56,321.05)" id="shape18"><path d="M0,-0L225.4,-0" fill="none" stroke="#000000"/><path d="M225.4,-6L237.4,-0L225.4,6L225.4,-6" fill="#000000" stroke-width="1" stroke="#000000" stroke-linecap="round"/><text class="st2"><tspan x="40.8" y="-13.7">4: toZonedDateTime(time, format)</tspan></text></g><g transform="matrix(0,1,-1,0,381.1,296)" id="shape19"><path d="M2,-2L77,-2L77,13.1L2,13.1L2,-2z" fill="#000000" fill-opacity="0.08"/><path d="M0,0L75,0L75,15.1L0,15.1L0,0z" fill="url(#lg1)" stroke="#6d6d6d"/></g><g transform="matrix(-1,0,0,-1,366,346)" id="shape20"><path stroke-dasharray="6,4" d="M0,-0L237.4,-0" fill="none" stroke="#000000"/><path d="M225.4,-6L237.4,-0L225.4,6" stroke-linejoin="round" fill="none" stroke-width="1" stroke="#000000" stroke-linecap="round"/><text class="st2" transform="matrix(-1,0,0,-1,213.7,33.5)"><tspan x="54.8" y="19.7">5: ZonedDateTime time</tspan></text></g><g transform="matrix(0,1,-1,0,506.7,371)" id="shape21"><path d="M2,-2L77,-2L77,13.1L2,13.1L2,-2z" fill="#000000" fill-opacity="0.08"/><path d="M0,0L75,0L75,15.1L0,15.1L0,0z" fill="url(#lg1)" stroke="#6d6d6d"/></g><g transform="translate(128.56,396.05)" id="shape22"><path d="M0,-0L351,-0" fill="none" stroke="#000000"/><path d="M351,-6L363,-0L351,6L351,-6" fill="#000000" stroke-width="1" stroke="#000000" stroke-linecap="round"/><text class="st2"><tspan x="68.3" y="-13.7">6: create(Datastream stream, Object result, time)</tspan></text></g><g transform="matrix(-1,0,0,-1,491.6,421)" id="shape23"><path stroke-dasharray="6,4" d="M0,-0L363,-0" fill="none" stroke="#000000"/><path d="M351,-6L363,-0L351,6" stroke-linejoin="round" fill="none" stroke-width="1" stroke="#000000" stroke-linecap="round"/><text class="st2" transform="matrix(-1,0,0,-1,326.7,33.5)"><tspan x="103.9" y="19.7">7: CreateEntityException e</tspan></text></g><g transform="translate(128.56,471.05)" id="shape24"><path d="M0,-0L476.6,-0" fill="none" stroke="#000000"/><path d="M476.6,-6L488.6,-0L476.6,6L476.6,-6" fill="#000000" stroke-width="1" stroke="#000000" stroke-linecap="round"/><text class="st2"><tspan x="194.3" y="-13.7">8: addRows(row, e)</tspan></text></g><g transform="matrix(0,1,-1,0,632.2,446)" id="shape25"><path d="M2,-2L77,-2L77,13.1L2,13.1L2,-2z" fill="#000000" fill-opacity="0.08"/><path d="M0,0L75,0L75,15.1L0,15.1L0,0z" fill="url(#lg1)" stroke="#6d6d6d"/></g><g transform="matrix(0,1,-1,0,255.6,221)" id="shape26"><path d="M2,-2L77,-2L77,13.1L2,13.1L2,-2z" fill="#000000" fill-opacity="0.08"/><path d="M0,0L75,0L75,15.1L0,15.1L0,0z" fill="url(#lg1)" stroke="#6d6d6d"/></g><g transform="translate(905,87.05)"><path d="M2,2L96,2L96,36L2,36L2,2z" fill="#000000" fill-opacity="0.08"/><g id="shape27"><path d="M0,0L94,0L94,34L0,34L0,0z" fill="url(#lg1)" stroke="#6d6d6d"/><text class="st2"><tspan x="14.4" y="19.8">CSVConverter</tspan></text></g><path d="M47,34L47,683L47,34z" fill="none" id="shape28" stroke="#6d6d6d"/></g><g transform="translate(748,478.55)"><path d="M2,2L96,2L96,36L2,36L2,2z" fill="#000000" fill-opacity="0.08"/><g id="shape29"><path d="M0,0L94,0L94,34L0,34L0,0z" fill="url(#lg1)" stroke="#6d6d6d"/><text class="st2"><tspan x="18.4" y="19.8">SkippedRow</tspan></text></g><path d="M47,34L47,291.5L47,34z" fill="none" id="shape30" stroke="#6d6d6d"/></g><g transform="matrix(0,1,-1,0,632.2,546)" id="shape31"><path d="M2,-2L202,-2L202,13.1L2,13.1L2,-2z" fill="#000000" fill-opacity="0.08"/><path d="M0,0L200,0L200,15.1L0,15.1L0,0z" fill="url(#lg1)" stroke="#6d6d6d"/></g><g transform="translate(128.56,571.05)" id="shape32"><path d="M0,-0L476.6,-0" fill="none" stroke="#000000"/><path d="M476.6,-6L488.6,-0L476.6,6L476.6,-6" fill="#000000" stroke-width="1" stroke="#000000" stroke-linecap="round"/><text class="st2"><tspan x="175.3" y="-13.7">10: returnErrors(int fileType)</tspan></text></g><g transform="matrix(1,-0,0,1,632.2,496)" id="shape33"><path d="M0,-0L103.8,-0" fill="none" stroke="#000000"/><path d="M103.8,-6L115.8,-0L103.8,6L103.8,-6" fill="#000000" stroke-width="1" stroke="#000000" stroke-linecap="round"/><text class="st2"><tspan x="41.2" y="-19.7">9: new </tspan><tspan x="11.2" y="-7.7">SkippedRow(row, e)</tspan></text></g><g transform="matrix(1,0,-0,1,632.2,596)" id="shape34"><path d="M0,-0L178.8,-0" fill="none" stroke="#000000"/><path d="M178.8,-6L190.8,-0L178.8,6L178.8,-6" fill="#000000" stroke-width="1" stroke="#000000" stroke-linecap="round"/><text class="st2"><tspan x="34.2" y="-13.7">11: new Table(failedRows)</tspan></text></g><g transform="translate(632.24,646.05)" id="shape35"><path d="M0,-0L300.2,-0" fill="none" stroke="#000000"/><path d="M300.2,-6L312.2,-0L300.2,6L300.2,-6" fill="#000000" stroke-width="1" stroke="#000000" stroke-linecap="round"/><text class="st2"><tspan x="89.6" y="-13.7">12: convertBack(errorTable)</tspan></text></g><g transform="matrix(0,1,-1,0,959.6,621)" id="shape36"><path d="M2,-2L77,-2L77,13.1L2,13.1L2,-2z" fill="#000000" fill-opacity="0.08"/><path d="M0,0L75,0L75,15.1L0,15.1L0,0z" fill="url(#lg1)" stroke="#6d6d6d"/></g><g transform="matrix(-1,0,0,-1,944.4,671)" id="shape37"><path stroke-dasharray="6,4" d="M0,-0L312.2,-0" fill="none" stroke="#000000"/><path d="M300.2,-6L312.2,-0L300.2,6" stroke-linejoin="round" fill="none" stroke-width="1" stroke="#000000" stroke-linecap="round"/><text class="st2" transform="matrix(-1,0,0,-1,281,33.5)"><tspan x="100.5" y="19.7">13: File failedData</tspan></text></g><g transform="matrix(0,1,-1,0,632.2,696)" id="shape38"><path d="M0,0L0,-47.2L25,-47.2L25,-10.4" fill="none" stroke="#000000"/><path d="M25,0L27.6,-10.4L22.4,-10.4L25,0" fill="#000000" stroke-width="1" stroke="#000000" stroke-linecap="round"/><text class="st2" transform="matrix(0,-1,1,0,40.9,-71.6)"><tspan x="-52.9" y="-53.2">14: displayFails()</tspan></text></g></g></svg>