<svg width="884" xmlns:ev="http://www.w3.org/2001/xml-events" viewBox="0 0 884 581" xmlns:xlink="http://www.w3.org/1999/xlink" xmlns="http://www.w3.org/2000/svg" height="581"><style type="text/css"><![CDATA[
.st1 {fill:#303030;font-family:Arial;font-size:7.5pt}
]]></style><defs><linearGradient id="lg1" y1="0%" y2="100%" x1="0%" x2="0%"><stop offset="0" stop-color="#fbfbfb"/><stop offset="1" stop-color="#efefef"/></linearGradient></defs><g transform="translate(5,5)" id="page1"><rect width="874" x="0" y="0" fill="#ffffff" stroke="#808080" height="571"/><g transform="translate(40,40.24)" id="shape1"><path stroke="#000000" stroke-opacity="0.08"/><path d="M0,0L793,0L793,490L0,490L0,0zM0,0L198.3,0L158.6,20L0,20L0,0" fill="none" stroke="#6d6d6d"/><text class="st1"><tspan x="38.1" y="13">SD Konfiguration speichern</tspan></text></g><g transform="translate(400,87)"><path d="M2,2L96,2L96,36L2,36L2,2z" fill="#000000" fill-opacity="0.08"/><g id="shape2"><path d="M0,0L94,0L94,34L0,34L0,0z" fill="url(#lg1)" stroke="#6d6d6d"/><text class="st1"><tspan x="13.4" y="13.8">Konfigurations-</tspan><tspan x="25.4" y="25.8">Controller</tspan></text></g><path d="M47,34L47,419L47,34z" fill="none" id="shape3" stroke="#6d6d6d"/></g><g transform="translate(535.78,87)"><path d="M2,2L96,2L96,36L2,36L2,2z" fill="#000000" fill-opacity="0.08"/><g id="shape4"><path d="M0,0L94,0L94,34L0,34L0,0z" fill="url(#lg1)" stroke="#6d6d6d"/><text class="st1"><tspan x="30.4" y="13.8">Config-</tspan><tspan x="17.4" y="25.8">Management</tspan></text></g><path d="M47,34L47,423L47,34z" fill="none" id="shape5" stroke="#6d6d6d"/></g><g transform="translate(711,254)"><path d="M2,2L96,2L96,36L2,36L2,2z" fill="#000000" fill-opacity="0.08"/><g id="shape6"><path d="M0,0L94,0L94,34L0,34L0,0z" fill="url(#lg1)" stroke="#6d6d6d"/><text class="st1"><tspan x="17.4" y="19.8">Configuration</tspan></text></g><path d="M47,34L47,252L47,34z" fill="none" id="shape7" stroke="#6d6d6d"/></g><g transform="translate(86,72)"><path d="M0,0L28,0L0,0z" transform="translate(-0.04,23.04)" fill="none" id="shape8" stroke="#6d6d6d"/><path d="M14,0L14,29.9L14,0zM0,52.1L14,30.2L0,52.1z" transform="translate(0,11.83)" fill="none" id="shape9" stroke="#6d6d6d"/><path d="M0,0L14,22.2L0,0z" transform="translate(14,41.73)" fill="none" id="shape10" stroke="#6d6d6d"/><path d="M0,7.2C0,3.2,3.1,0,6.8,0C10.6,0,13.6,3.2,13.6,7.2C13.6,11.1,10.6,14.3,6.8,14.3C3.1,14.3,0,11.1,0,7.2z" transform="translate(7.23,-0.05)" fill="url(#lg1)" id="shape11" stroke="#6d6d6d"/><text class="st1"><tspan x="-6" y="79">Benutzer</tspan></text></g><g transform="matrix(0,1,-1,0,108.6,171)" id="shape12"><path d="M2,-2L332,-2L332,13.1L2,13.1L2,-2z" fill="#000000" fill-opacity="0.08"/><path d="M0,0L330,0L330,15.1L0,15.1L0,0z" fill="url(#lg1)" stroke="#6d6d6d"/></g><g transform="translate(108.56,196)" id="shape13"><path d="M0,-0L152,-0" fill="none" stroke="#000000"/><path d="M152,-6L164,-0L152,6L152,-6" fill="#000000" stroke-width="1" stroke="#000000" stroke-linecap="round"/><text class="st1"><tspan x="24.1" y="-19.7">1: Benutzer drückt "Save </tspan><tspan x="32.1" y="-7.7">Configuration"-Button</tspan></text></g><g transform="matrix(0,1,-1,0,454.6,221)" id="shape14"><path d="M2,-2L263,-2L263,13.1L2,13.1L2,-2z" fill="#000000" fill-opacity="0.08"/><path d="M0,0L261,0L261,15.1L0,15.1L0,0z" fill="url(#lg1)" stroke="#6d6d6d"/></g><g transform="translate(454.56,271)" id="shape15"><path d="M0,-0L244.4,-0" fill="none" stroke="#000000"/><path d="M244.4,-6L256.4,-0L244.4,6L244.4,-6" fill="#000000" stroke-width="1" stroke="#000000" stroke-linecap="round"/><text class="st1"><tspan x="64.6" y="-13.7">4: new Configuration(int id)</tspan></text></g><g transform="translate(454.56,321)" id="shape16"><path d="M0,-0L108.7,-0" fill="none" stroke="#000000"/><path d="M108.7,-6L120.7,-0L108.7,6L108.7,-6" fill="#000000" stroke-width="1" stroke="#000000" stroke-linecap="round"/><text class="st1"><tspan x="25.6" y="-13.7">5: save(config)</tspan></text></g><g transform="matrix(0,1,-1,0,590.3,296)" id="shape17"><path d="M2,-2L188,-2L188,13.1L2,13.1L2,-2z" fill="#000000" fill-opacity="0.08"/><path d="M0,0L186,0L186,15.1L0,15.1L0,0z" fill="url(#lg1)" stroke="#6d6d6d"/></g><g transform="matrix(-1,0,0,-1,575.2,471)" id="shape18"><path stroke-dasharray="6,4" d="M0,-0L120.7,-0" fill="none" stroke="#000000"/><path d="M108.7,-6L120.7,-0L108.7,6" stroke-linejoin="round" fill="none" stroke-width="1" stroke="#000000" stroke-linecap="round"/><text class="st1" transform="matrix(-1,0,0,-1,108.6,33.5)"><tspan x="17.3" y="19.7">9: int statusCode</tspan></text></g><g transform="translate(590.34,346)" id="shape19"><path d="M0,-0L148.1,-0" fill="none" stroke="#000000"/><path d="M148.1,-6L160.1,-0L148.1,6L148.1,-6" fill="#000000" stroke-width="1" stroke="#000000" stroke-linecap="round"/><text class="st1"><tspan x="50.3" y="-13.7">6: serialize()</tspan></text></g><g transform="matrix(0,1,-1,0,765.6,321)" id="shape20"><path d="M2,-2L102,-2L102,13.1L2,13.1L2,-2z" fill="#000000" fill-opacity="0.08"/><path d="M0,0L100,0L100,15.1L0,15.1L0,0z" fill="url(#lg1)" stroke="#6d6d6d"/></g><g transform="matrix(-1,0,0,-1,750.4,396)" id="shape21"><path stroke-dasharray="6,4" d="M0,-0L160.1,-0" fill="none" stroke="#000000"/><path d="M148.1,-6L160.1,-0L148.1,6" stroke-linejoin="round" fill="none" stroke-width="1" stroke="#000000" stroke-linecap="round"/><text class="st1" transform="matrix(-1,0,0,-1,144.1,33.5)"><tspan x="19" y="19.7">7: String configEncoded</tspan></text></g><g transform="translate(233.1,87)"><path d="M2,2L96,2L96,36L2,36L2,2z" fill="#000000" fill-opacity="0.08"/><g id="shape22"><path d="M0,0L94,0L94,34L0,34L0,0z" fill="url(#lg1)" stroke="#6d6d6d"/><text class="st1"><tspan x="18.4" y="19.8">MainWindow</tspan></text></g><path d="M47,34L47,414L47,34z" fill="none" id="shape23" stroke="#6d6d6d"/></g><g transform="matrix(0,1,-1,0,287.7,171)" id="shape24"><path d="M2,-2L127,-2L127,13.1L2,13.1L2,-2z" fill="#000000" fill-opacity="0.08"/><path d="M0,0L125,0L125,15.1L0,15.1L0,0z" fill="url(#lg1)" stroke="#6d6d6d"/></g><g transform="matrix(0,1,-1,0,287.7,196)" id="shape25"><path d="M0,0L0,-47.2L25,-47.2L25,-10.4" fill="none" stroke="#000000"/><path d="M25,0L27.6,-10.4L22.4,-10.4L25,0" fill="#000000" stroke-width="1" stroke="#000000" stroke-linecap="round"/><text class="st1" transform="matrix(0,-1,1,0,40.9,-71.6)"><tspan x="-64.9" y="-53.2">2: saveConfiguration()</tspan></text></g><g transform="translate(287.66,246)" id="shape26"><path d="M0,-0L139.8,-0" fill="none" stroke="#000000"/><path d="M139.8,-6L151.8,-0L139.8,6L139.8,-6" fill="#000000" stroke-width="1" stroke="#000000" stroke-linecap="round"/><text class="st1"><tspan x="21.7" y="-13.7">3: createConfiguration()</tspan></text></g><g transform="matrix(0,1,-1,0,590.3,425)" id="shape27"><path d="M0,0L0,-47.2L25,-47.2L25,-10.4" fill="none" stroke="#000000"/><path d="M25,0L27.6,-10.4L22.4,-10.4L25,0" fill="#000000" stroke-width="1" stroke="#000000" stroke-linecap="round"/><text class="st1" transform="matrix(0,-1,1,0,40.9,-71.6)"><tspan x="-62.4" y="-53.2">8: Abspeichern String</tspan></text></g></g></svg>