<svg width="1071" xmlns:ev="http://www.w3.org/2001/xml-events" viewBox="0 0 1071 897" xmlns:xlink="http://www.w3.org/1999/xlink" xmlns="http://www.w3.org/2000/svg" height="897"><style type="text/css"><![CDATA[
.st1 {fill:#303030;font-family:Arial;font-size:7.5pt;font-weight:bold}
.st2 {fill:#303030;font-family:Arial;font-size:7.5pt}
]]></style><defs><linearGradient id="lg1" y1="0%" y2="100%" x1="0%" x2="0%"><stop offset="0" stop-color="#fbfbfb"/><stop offset="1" stop-color="#efefef"/></linearGradient></defs><g transform="translate(5,5)" id="page1"><rect width="1061" x="0" y="0" fill="#ffffff" stroke="#808080" height="887"/><g transform="translate(40,40.05)" id="shape1"><path stroke="#000000" stroke-opacity="0.08"/><path d="M0,0L980,0L980,806L0,806L0,0zM0,0L245,0L196,20L0,20L0,0" fill="none" stroke="#6d6d6d"/><text class="st1"><tspan x="73" y="13">SD Import von Daten</tspan></text></g><g transform="translate(305,87.05)"><path d="M2,2L96,2L96,36L2,36L2,2z" fill="#000000" fill-opacity="0.08"/><g id="shape2"><path d="M0,0L94,0L94,34L0,34L0,0z" fill="url(#lg1)" stroke="#6d6d6d"/><text class="st2"><tspan x="9.4" y="19.8">Import-Controller</tspan></text></g><path d="M47,34L47,744L47,34z" fill="none" id="shape3" stroke="#6d6d6d"/></g><g transform="translate(439,87.05)"><path d="M2,2L96,2L96,36L2,36L2,2z" fill="#000000" fill-opacity="0.08"/><g id="shape4"><path d="M0,0L94,0L94,34L0,34L0,0z" fill="url(#lg1)" stroke="#6d6d6d"/><text class="st2"><tspan x="13.4" y="19.8">UploadHandler</tspan></text></g><path d="M47,34L47,740L47,34z" fill="none" id="shape5" stroke="#6d6d6d"/></g><g transform="translate(535,87.05)"><path d="M2,2L96,2L96,36L2,36L2,2z" fill="#000000" fill-opacity="0.08"/><g id="shape6"><path d="M0,0L94,0L94,34L0,34L0,0z" fill="url(#lg1)" stroke="#6d6d6d"/><text class="st2"><tspan x="17.4" y="19.8">File-Manager</tspan></text></g><path d="M47,34L47,740L47,34z" fill="none" id="shape7" stroke="#6d6d6d"/></g><g transform="translate(631,87.05)"><path d="M2,2L96,2L96,36L2,36L2,2z" fill="#000000" fill-opacity="0.08"/><g id="shape8"><path d="M0,0L94,0L94,34L0,34L0,0z" fill="url(#lg1)" stroke="#6d6d6d"/><text class="st2"><tspan x="14.4" y="19.8">CSVConverter</tspan></text></g><path d="M47,34L47,740L47,34z" fill="none" id="shape9" stroke="#6d6d6d"/></g><g transform="translate(73.5,79.05)"><path d="M0,0L21,0L0,0z" transform="translate(-0.03,17.28)" fill="none" id="shape10" stroke="#6d6d6d"/><path d="M10.5,0L10.5,22.4L10.5,0zM0,39.1L10.5,22.7L0,39.1z" transform="translate(0,8.87)" fill="none" id="shape11" stroke="#6d6d6d"/><path d="M0,0L10.5,16.7L0,0z" transform="translate(10.5,31.3)" fill="none" id="shape12" stroke="#6d6d6d"/><path d="M0,5.4C0,2.4,2.3,0,5.1,0C7.9,0,10.2,2.4,10.2,5.4C10.2,8.3,7.9,10.8,5.1,10.8C2.3,10.8,0,8.3,0,5.4z" transform="translate(5.42,-0.04)" fill="url(#lg1)" id="shape13" stroke="#6d6d6d"/><text class="st2"><tspan x="-9.5" y="63">Benutzer</tspan></text></g><g transform="matrix(0,1,-1,0,91.6,146)" id="shape14"><path d="M2,-2L683,-2L683,13.1L2,13.1L2,-2z" fill="#000000" fill-opacity="0.08"/><path d="M0,0L681,0L681,15.1L0,15.1L0,0z" fill="url(#lg1)" stroke="#6d6d6d"/></g><g transform="matrix(0,1,-1,0,359.6,246)" id="shape15"><path d="M2,-2L77,-2L77,13.1L2,13.1L2,-2z" fill="#000000" fill-opacity="0.08"/><path d="M0,0L75,0L75,15.1L0,15.1L0,0z" fill="url(#lg1)" stroke="#6d6d6d"/></g><g transform="matrix(0,1,-1,0,493.6,246)" id="shape16"><path d="M2,-2L577,-2L577,13.1L2,13.1L2,-2z" fill="#000000" fill-opacity="0.08"/><path d="M0,0L575,0L575,15.1L0,15.1L0,0z" fill="url(#lg1)" stroke="#6d6d6d"/></g><g transform="matrix(0,1,-1,0,589.6,296)" id="shape17"><path d="M2,-2L65,-2L65,13.1L2,13.1L2,-2z" fill="#000000" fill-opacity="0.08"/><path d="M0,0L63,0L63,15.1L0,15.1L0,0z" fill="url(#lg1)" stroke="#6d6d6d"/></g><g transform="matrix(0,1,-1,0,685.6,346)" id="shape18"><path d="M2,-2L90.1,-2L90.1,13.1L2,13.1L2,-2z" fill="#000000" fill-opacity="0.08"/><path d="M0,0L88.1,0L88.1,15.1L0,15.1L0,0z" fill="url(#lg1)" stroke="#6d6d6d"/></g><g transform="translate(359.56,296.05)" id="shape19"><path d="M0,-0L106.9,-0" fill="none" stroke="#000000"/><path d="M106.9,-6L118.9,-0L106.9,6L106.9,-6" fill="#000000" stroke-width="1" stroke="#000000" stroke-linecap="round"/><text class="st2"><tspan x="15.7" y="-19.7">4: upload(filename, </tspan><tspan x="42.7" y="-7.7">config)</tspan></text></g><g transform="translate(493.56,321.05)" id="shape20"><path d="M0,-0L68.9,-0" fill="none" stroke="#000000"/><path d="M68.9,-6L80.9,-0L68.9,6L68.9,-6" fill="#000000" stroke-width="1" stroke="#000000" stroke-linecap="round"/><text class="st2"><tspan x="2.3" y="-13.7">5: load(filename)</tspan></text></g><g transform="matrix(-1,0,0,-1,574.4,346)" id="shape21"><path stroke-dasharray="6,4" d="M0,-0L80.9,-0" fill="none" stroke="#000000"/><path d="M68.9,-6L80.9,-0L68.9,6" stroke-linejoin="round" fill="none" stroke-width="1" stroke="#000000" stroke-linecap="round"/><text class="st2" transform="matrix(-1,0,0,-1,72.8,33.5)"><tspan x="0.4" y="19.7">6: File sourcefile</tspan></text></g><g transform="matrix(1,0,-0,1,91.6,196)" id="shape22"><path d="M0,-0L99.9,-0" fill="none" stroke="#000000"/><path d="M87.9,-6L99.9,-0L87.9,6" stroke-linejoin="round" fill="none" stroke-width="1" stroke="#000000" stroke-linecap="round"/><text class="st2"><tspan x="8.5" y="-19.7">1: Benutzer drückt </tspan><tspan x="13.5" y="-7.7">"Upload"-Button</tspan></text></g><g transform="translate(493.56,371.05)" id="shape23"><path d="M0,-0L164.9,-0" fill="none" stroke="#000000"/><path d="M164.9,-6L176.9,-0L164.9,6L164.9,-6" fill="#000000" stroke-width="1" stroke="#000000" stroke-linecap="round"/><text class="st2"><tspan x="28.4" y="-13.7">7: convert(File file, config)</tspan></text></g><g transform="matrix(-1,0,0,-1,670.4,421)" id="shape24"><path stroke-dasharray="6,4" d="M0,-0L176.9,-0" fill="none" stroke="#000000"/><path d="M164.9,-6L176.9,-0L164.9,6" stroke-linejoin="round" fill="none" stroke-width="1" stroke="#000000" stroke-linecap="round"/><text class="st2" transform="matrix(-1,0,0,-1,159.2,33.5)"><tspan x="39.6" y="19.7">9: RowTable table</tspan></text></g><g transform="matrix(1,-0,0,1,493.6,697)" id="shape25"><path d="M0,-0L241.4,-0" fill="none" stroke="#000000"/><path d="M241.4,-6L253.4,-0L241.4,6L241.4,-6" fill="#000000" stroke-width="1" stroke="#000000" stroke-linecap="round"/><text class="st2"><tspan x="93.1" y="-13.7">15: getRow(i)</tspan></text></g><g transform="matrix(0,1,-1,0,493.6,631)" id="shape26"><path d="M0,0L0,-46.4L25,-46.4L25,-10.4" fill="none" stroke="#000000"/><path d="M25,0L27.6,-10.4L22.4,-10.4L25,0" fill="#000000" stroke-width="1" stroke="#000000" stroke-linecap="round"/><text class="st2" transform="matrix(0,-1,1,0,40.9,-71.6)"><tspan x="-69.4" y="-59.2">14: processTable(config, </tspan><tspan x="-46.4" y="-47.2">table, int step)</tspan></text></g><g transform="translate(775,379.08)"><path d="M2,2L96,2L96,36L2,36L2,2z" fill="#000000" fill-opacity="0.08"/><g id="shape27"><path d="M0,0L94,0L94,34L0,34L0,0z" fill="url(#lg1)" stroke="#6d6d6d"/><text class="st2"><tspan x="25.4" y="19.8">RowTable</tspan></text></g><path d="M47,34L47,447.9L47,34z" fill="none" id="shape28" stroke="#6d6d6d"/></g><g transform="matrix(-1,0,-0,-1,746.9,721.5)" id="shape29"><path stroke-dasharray="6,4" d="M0,-0L253.4,-0" fill="none" stroke="#000000"/><path d="M241.4,-6L253.4,-0L241.4,6" stroke-linejoin="round" fill="none" stroke-width="1" stroke="#000000" stroke-linecap="round"/><text class="st2" transform="matrix(-1,0,0,-1,228,33.5)"><tspan x="68" y="19.7">16: List&lt;Object> row</tspan></text></g><g transform="matrix(1,0,-0,1,685.6,396)" id="shape30"><path d="M0,-0L77.4,-0" fill="none" stroke="#000000"/><path d="M77.4,-6L89.4,-0L77.4,6L77.4,-6" fill="#000000" stroke-width="1" stroke="#000000" stroke-linecap="round"/><text class="st2"><tspan x="2.4" y="-13.7">8: new RowTable()</tspan></text></g><g transform="translate(152,87.05)"><path d="M2,2L96,2L96,36L2,36L2,2z" fill="#000000" fill-opacity="0.08"/><g id="shape31"><path d="M0,0L94,0L94,34L0,34L0,0z" fill="url(#lg1)" stroke="#6d6d6d"/><text class="st2"><tspan x="18.4" y="19.8">MainWindow</tspan></text></g><path d="M47,34L47,740L47,34z" fill="none" id="shape32" stroke="#6d6d6d"/></g><g transform="matrix(0,1,-1,0,206.6,171)" id="shape33"><path d="M2,-2L152,-2L152,13.1L2,13.1L2,-2z" fill="#000000" fill-opacity="0.08"/><path d="M0,0L150,0L150,15.1L0,15.1L0,0z" fill="url(#lg1)" stroke="#6d6d6d"/></g><g transform="matrix(0,1,-1,0,206.6,196)" id="shape34"><path d="M0,0L0,-47.2L25,-47.2L25,-10.4" fill="none" stroke="#000000"/><path d="M25,0L27.6,-10.4L22.4,-10.4L25,0" fill="#000000" stroke-width="1" stroke="#000000" stroke-linecap="round"/><text class="st2" transform="matrix(0,-1,1,0,40.9,-71.6)"><tspan x="-37.9" y="-53.2">2: import()</tspan></text></g><g transform="translate(206.56,271.05)" id="shape35"><path d="M0,-0L125.9,-0" fill="none" stroke="#000000"/><path d="M125.9,-6L137.9,-0L125.9,6L125.9,-6" fill="#000000" stroke-width="1" stroke="#000000" stroke-linecap="round"/><text class="st2"><tspan x="5" y="-19.7">3: ImportData(Configuration </tspan><tspan x="16" y="-7.7">config, String filename)</tspan></text></g><g transform="translate(827,454)"><path d="M2,2L96,2L96,36L2,36L2,2z" fill="#000000" fill-opacity="0.08"/><g id="shape36"><path d="M0,0L94,0L94,34L0,34L0,0z" fill="url(#lg1)" stroke="#6d6d6d"/><text class="st2"><tspan x="17.4" y="19.8">ColumnTable</tspan></text></g><path d="M47,34L47,373L47,34z" fill="none" id="shape37" stroke="#6d6d6d"/></g><g transform="matrix(1,-0,0,1,493.6,471)" id="shape38"><path d="M0,-0L321.4,-0" fill="none" stroke="#000000"/><path d="M321.4,-6L333.4,-0L321.4,6L321.4,-6" fill="#000000" stroke-width="1" stroke="#000000" stroke-linecap="round"/><text class="st2"><tspan x="78.5" y="-13.7">10: new ColumnTable(table) clmTable</tspan></text></g><g transform="translate(883,87.05)"><path d="M2,2L96,2L96,36L2,36L2,2z" fill="#000000" fill-opacity="0.08"/><g id="shape39"><path d="M0,0L94,0L94,34L0,34L0,0z" fill="url(#lg1)" stroke="#6d6d6d"/><text class="st2"><tspan x="12.4" y="13.8">TableDataType-</tspan><tspan x="32.4" y="25.8">Parser</tspan></text></g><path d="M47,34L47,740L47,34z" fill="none" id="shape40" stroke="#6d6d6d"/></g><g transform="matrix(0,1,-1,0,937.6,496)" id="shape41"><path d="M2,-2L152,-2L152,13.1L2,13.1L2,-2z" fill="#000000" fill-opacity="0.08"/><path d="M0,0L150,0L150,15.1L0,15.1L0,0z" fill="url(#lg1)" stroke="#6d6d6d"/></g><g transform="translate(493.56,521.05)" id="shape42"><path d="M0,-0L416.9,-0" fill="none" stroke="#000000"/><path d="M416.9,-6L428.9,-0L416.9,6L416.9,-6" fill="#000000" stroke-width="1" stroke="#000000" stroke-linecap="round"/><text class="st2"><tspan x="133.3" y="-13.7">11: convertTable(clmTable, config)</tspan></text></g><g transform="matrix(-1,0,0,-1,922.4,596)" id="shape43"><path stroke-dasharray="6,4" d="M0,-0L428.9,-0" fill="none" stroke="#000000"/><path d="M416.9,-6L428.9,-0L416.9,6" stroke-linejoin="round" fill="none" stroke-width="1" stroke="#000000" stroke-linecap="round"/><text class="st2" transform="matrix(-1,0,0,-1,386,33.5)"><tspan x="151" y="19.7">13: RowTable table</tspan></text></g><g transform="translate(707.5,529.55)"><path d="M2,2L96,2L96,36L2,36L2,2z" fill="#000000" fill-opacity="0.08"/><g id="shape44"><path d="M0,0L94,0L94,34L0,34L0,0z" fill="url(#lg1)" stroke="#6d6d6d"/><text class="st2"><tspan x="25.4" y="19.8">RowTable</tspan></text></g><path d="M47,34L47,297.5L47,34z" fill="none" id="shape45" stroke="#6d6d6d"/></g><g transform="translate(803,546.05)" id="shape46"><path d="M12,-0L119.4,-0" fill="none" stroke="#000000"/><path d="M12,6L0,-0L12,-6L12,6" fill="#000000" stroke-width="1" stroke="#000000" stroke-linecap="round"/><text class="st2"><tspan x="14" y="-19.7">12: new RowTable() </tspan><tspan x="47" y="-7.7">table</tspan></text></g><g transform="matrix(0,1,-1,0,493.6,758)" id="shape47"><path d="M0,0L0,-47.2L23.6,-47.2L23.6,-10.4" fill="none" stroke="#000000"/><path d="M23.6,0L26.2,-10.4L21,-10.4L23.6,0" fill="#000000" stroke-width="1" stroke="#000000" stroke-linecap="round"/><text class="st2" transform="matrix(0,-1,1,0,41.7,-70.7)"><tspan x="-68.5" y="-59.2">17: evaluateRow(config, </tspan><tspan x="-24.5" y="-47.2">row)</tspan></text></g><g transform="matrix(0,1,-1,0,762.1,671.5)" id="shape48"><path d="M2,-2L77,-2L77,13.1L2,13.1L2,-2z" fill="#000000" fill-opacity="0.08"/><path d="M0,0L75,0L75,15.1L0,15.1L0,0z" fill="url(#lg1)" stroke="#6d6d6d"/></g><g transform="translate(373,666)" id="shape49"><path stroke="#000000" stroke-opacity="0.08"/><path d="M0,0L407,0L407,137L0,137L0,0zM0,0L101.7,0L81.4,20L0,20L0,0" fill="none" stroke="#6d6d6d"/><text class="st2"><tspan x="19.4" y="13">For each row i</tspan></text><text class="st2"><tspan x="4.5" y="35">siehe SD Zeilen-</tspan><tspan x="4.5" y="47">verarbeitung</tspan></text></g></g></svg>