<svg width="1129" xmlns:ev="http://www.w3.org/2001/xml-events" viewBox="0 0 1129 911" xmlns:xlink="http://www.w3.org/1999/xlink" xmlns="http://www.w3.org/2000/svg" height="911"><style type="text/css"><![CDATA[
.st1 {fill:#303030;font-family:Arial;font-size:7.5pt;font-weight:bold}
.st2 {fill:#303030;font-family:Arial;font-size:7.5pt}
]]></style><defs><linearGradient id="lg1" y1="0%" y2="100%" x1="0%" x2="0%"><stop offset="0" stop-color="#fbfbfb"/><stop offset="1" stop-color="#efefef"/></linearGradient></defs><g transform="translate(5,5)" id="page1"><rect width="1119" x="0" y="0" fill="#ffffff" stroke="#808080" height="901"/><g transform="translate(40,40.05)" id="shape1"><path stroke="#000000" stroke-opacity="0.08"/><path d="M0,0L1038,0L1038,806L0,806L0,0zM0,0L259.5,0L207.6,20L0,20L0,0" fill="none" stroke="#6d6d6d"/><text class="st1"><tspan x="80.3" y="13">SD Import von Daten</tspan></text></g><g transform="translate(305,87.05)"><path d="M2,2L96,2L96,36L2,36L2,2z" fill="#000000" fill-opacity="0.08"/><g id="shape2"><path d="M0,0L94,0L94,34L0,34L0,0z" fill="url(#lg1)" stroke="#6d6d6d"/><text class="st2"><tspan x="9.4" y="19.8">Import-Controller</tspan></text></g><path d="M47,34L47,697L47,34z" fill="none" id="shape3" stroke="#6d6d6d"/></g><g transform="translate(439,87.05)"><path d="M2,2L96,2L96,36L2,36L2,2z" fill="#000000" fill-opacity="0.08"/><g id="shape4"><path d="M0,0L94,0L94,34L0,34L0,0z" fill="url(#lg1)" stroke="#6d6d6d"/><text class="st2"><tspan x="13.4" y="19.8">UploadHandler</tspan></text></g><path d="M47,34L47,711L47,34z" fill="none" id="shape5" stroke="#6d6d6d"/></g><g transform="translate(535,87.05)"><path d="M2,2L96,2L96,36L2,36L2,2z" fill="#000000" fill-opacity="0.08"/><g id="shape6"><path d="M0,0L94,0L94,34L0,34L0,0z" fill="url(#lg1)" stroke="#6d6d6d"/><text class="st2"><tspan x="37.4" y="13.8">File-</tspan><tspan x="17.4" y="25.8">Management</tspan></text></g><path d="M47,34L47,697L47,34z" fill="none" id="shape7" stroke="#6d6d6d"/></g><g transform="translate(631,87.05)"><path d="M2,2L96,2L96,36L2,36L2,2z" fill="#000000" fill-opacity="0.08"/><g id="shape8"><path d="M0,0L94,0L94,34L0,34L0,0z" fill="url(#lg1)" stroke="#6d6d6d"/><text class="st2"><tspan x="14.4" y="19.8">CSVConverter</tspan></text></g><path d="M47,34L47,693L47,34z" fill="none" id="shape9" stroke="#6d6d6d"/></g><g transform="translate(861,134)"><path d="M2,2L96,2L96,36L2,36L2,2z" fill="#000000" fill-opacity="0.08"/><g id="shape10"><path d="M0,0L94,0L94,34L0,34L0,0z" fill="url(#lg1)" stroke="#6d6d6d"/><text class="st2"><tspan x="9.4" y="13.8">ObservationCrea</tspan><tspan x="41.4" y="25.8">tor</tspan></text></g><path d="M47,34L47,697L47,34z" fill="none" id="shape11" stroke="#6d6d6d"/></g><g transform="translate(802.44,87.05)"><path d="M2,2L96,2L96,36L2,36L2,2z" fill="#000000" fill-opacity="0.08"/><g id="shape12"><path d="M0,0L94,0L94,34L0,34L0,0z" fill="url(#lg1)" stroke="#6d6d6d"/><text class="st2"><tspan x="21.4" y="19.8">TimeParser</tspan></text></g><path d="M47,34L47,693L47,34z" fill="none" id="shape13" stroke="#6d6d6d"/></g><g transform="translate(918,87.05)"><path d="M2,2L96,2L96,36L2,36L2,2z" fill="#000000" fill-opacity="0.08"/><g id="shape14"><path d="M0,0L94,0L94,34L0,34L0,0z" fill="url(#lg1)" stroke="#6d6d6d"/><text class="st2"><tspan x="12.4" y="19.8">CheckDuplicate</tspan></text></g><path d="M47,34L47,693L47,34z" fill="none" id="shape15" stroke="#6d6d6d"/></g><g transform="translate(975,134)"><path d="M2,2L96,2L96,36L2,36L2,2z" fill="#000000" fill-opacity="0.08"/><g id="shape16"><path d="M0,0L94,0L94,34L0,34L0,0z" fill="url(#lg1)" stroke="#6d6d6d"/><text class="st2"><tspan x="10.4" y="13.8">SensorThingsSe</tspan><tspan x="36.4" y="25.8">rvice</tspan></text></g><path d="M47,34L47,679L47,34z" fill="none" id="shape17" stroke="#6d6d6d"/></g><g transform="translate(73.5,79.05)"><path d="M0,0L21,0L0,0z" transform="translate(-0.03,17.28)" fill="none" id="shape18" stroke="#6d6d6d"/><path d="M10.5,0L10.5,22.4L10.5,0zM0,39.1L10.5,22.7L0,39.1z" transform="translate(0,8.87)" fill="none" id="shape19" stroke="#6d6d6d"/><path d="M0,0L10.5,16.7L0,0z" transform="translate(10.5,31.3)" fill="none" id="shape20" stroke="#6d6d6d"/><path d="M0,5.4C0,2.4,2.3,0,5.1,0C7.9,0,10.2,2.4,10.2,5.4C10.2,8.3,7.9,10.8,5.1,10.8C2.3,10.8,0,8.3,0,5.4z" transform="translate(5.42,-0.04)" fill="url(#lg1)" id="shape21" stroke="#6d6d6d"/><text class="st2"><tspan x="-9.5" y="63">Benutzer</tspan></text></g><g transform="matrix(0,1,-1,0,91.6,146)" id="shape22"><path d="M2,-2L636,-2L636,13.1L2,13.1L2,-2z" fill="#000000" fill-opacity="0.08"/><path d="M0,0L634,0L634,15.1L0,15.1L0,0z" fill="url(#lg1)" stroke="#6d6d6d"/></g><g transform="matrix(0,1,-1,0,359.6,246)" id="shape23"><path d="M2,-2L77,-2L77,13.1L2,13.1L2,-2z" fill="#000000" fill-opacity="0.08"/><path d="M0,0L75,0L75,15.1L0,15.1L0,0z" fill="url(#lg1)" stroke="#6d6d6d"/></g><g transform="matrix(0,1,-1,0,493.6,246)" id="shape24"><path d="M2,-2L552,-2L552,13.1L2,13.1L2,-2z" fill="#000000" fill-opacity="0.08"/><path d="M0,0L550,0L550,15.1L0,15.1L0,0z" fill="url(#lg1)" stroke="#6d6d6d"/></g><g transform="matrix(0,1,-1,0,589.6,296)" id="shape25"><path d="M2,-2L52,-2L52,13.1L2,13.1L2,-2z" fill="#000000" fill-opacity="0.08"/><path d="M0,0L50,0L50,15.1L0,15.1L0,0z" fill="url(#lg1)" stroke="#6d6d6d"/></g><g transform="matrix(0,1,-1,0,685.6,346)" id="shape26"><path d="M2,-2L90.1,-2L90.1,13.1L2,13.1L2,-2z" fill="#000000" fill-opacity="0.08"/><path d="M0,0L88.1,0L88.1,15.1L0,15.1L0,0z" fill="url(#lg1)" stroke="#6d6d6d"/></g><g transform="translate(359.56,296.05)" id="shape27"><path d="M0,-0L106.9,-0" fill="none" stroke="#000000"/><path d="M106.9,-6L118.9,-0L106.9,6L106.9,-6" fill="#000000" stroke-width="1" stroke="#000000" stroke-linecap="round"/><text class="st2"><tspan x="15.7" y="-19.7">4: upload(filename, </tspan><tspan x="42.7" y="-7.7">config)</tspan></text></g><g transform="translate(493.56,321.05)" id="shape28"><path d="M0,-0L68.9,-0" fill="none" stroke="#000000"/><path d="M68.9,-6L80.9,-0L68.9,6L68.9,-6" fill="#000000" stroke-width="1" stroke="#000000" stroke-linecap="round"/><text class="st2"><tspan x="21.3" y="-13.7">5: load()</tspan></text></g><g transform="matrix(-1,0,0,-1,574.4,346)" id="shape29"><path stroke-dasharray="6,4" d="M0,-0L80.9,-0" fill="none" stroke="#000000"/><path d="M68.9,-6L80.9,-0L68.9,6" stroke-linejoin="round" fill="none" stroke-width="1" stroke="#000000" stroke-linecap="round"/><text class="st2" transform="matrix(-1,0,0,-1,72.8,33.5)"><tspan x="0.4" y="19.7">6: File sourcefile</tspan></text></g><g transform="matrix(1,0,-0,1,91.6,196)" id="shape30"><path d="M0,-0L99.9,-0" fill="none" stroke="#000000"/><path d="M87.9,-6L99.9,-0L87.9,6" stroke-linejoin="round" fill="none" stroke-width="1" stroke="#000000" stroke-linecap="round"/><text class="st2"><tspan x="8.5" y="-19.7">1: Benutzer drückt </tspan><tspan x="13.5" y="-7.7">"Upload"-Button</tspan></text></g><g transform="translate(493.56,371.05)" id="shape31"><path d="M0,-0L164.9,-0" fill="none" stroke="#000000"/><path d="M164.9,-6L176.9,-0L164.9,6L164.9,-6" fill="#000000" stroke-width="1" stroke="#000000" stroke-linecap="round"/><text class="st2"><tspan x="44.4" y="-13.7">7: convert(File file)</tspan></text></g><g transform="matrix(-1,0,0,-1,670.4,421)" id="shape32"><path stroke-dasharray="6,4" d="M0,-0L176.9,-0" fill="none" stroke="#000000"/><path d="M164.9,-6L176.9,-0L164.9,6" stroke-linejoin="round" fill="none" stroke-width="1" stroke="#000000" stroke-linecap="round"/><text class="st2" transform="matrix(-1,0,0,-1,159.2,33.5)"><tspan x="49.6" y="19.7">9: Table table</tspan></text></g><g transform="translate(493.56,521.05)" id="shape33"><path d="M0,-0L282.9,-0" fill="none" stroke="#000000"/><path d="M282.9,-6L294.9,-0L282.9,6L282.9,-6" fill="#000000" stroke-width="1" stroke="#000000" stroke-linecap="round"/><text class="st2"><tspan x="115.2" y="-13.7">11: getRow()</tspan></text></g><g transform="matrix(0,1,-1,0,493.6,471)" id="shape34"><path d="M0,0L0,-46.4L25,-46.4L25,-10.4" fill="none" stroke="#000000"/><path d="M25,0L27.6,-10.4L22.4,-10.4L25,0" fill="#000000" stroke-width="1" stroke="#000000" stroke-linecap="round"/><text class="st2" transform="matrix(0,-1,1,0,40.9,-71.6)"><tspan x="-69.4" y="-59.2">10: processTable(config, </tspan><tspan x="-46.4" y="-47.2">table, int step)</tspan></text></g><g transform="translate(749,380.05)"><path d="M2,2L96,2L96,36L2,36L2,2z" fill="#000000" fill-opacity="0.08"/><g id="shape35"><path d="M0,0L94,0L94,34L0,34L0,0z" fill="url(#lg1)" stroke="#6d6d6d"/><text class="st2"><tspan x="35.4" y="19.8">Table</tspan></text></g><path d="M47,34L47,400L47,34z" fill="none" id="shape36" stroke="#6d6d6d"/></g><g transform="matrix(-1,0,0,-1,788.4,546)" id="shape37"><path stroke-dasharray="6,4" d="M0,-0L294.9,-0" fill="none" stroke="#000000"/><path d="M282.9,-6L294.9,-0L282.9,6" stroke-linejoin="round" fill="none" stroke-width="1" stroke="#000000" stroke-linecap="round"/><text class="st2" transform="matrix(-1,0,0,-1,265.4,33.5)"><tspan x="86.7" y="19.7">12: List&lt;Object> row</tspan></text></g><g transform="translate(493.56,571.05)" id="shape38"><path d="M0,-0L336.3,-0" fill="none" stroke="#000000"/><path d="M336.3,-6L348.3,-0L336.3,6L336.3,-6" fill="#000000" stroke-width="1" stroke="#000000" stroke-linecap="round"/><text class="st2"><tspan x="121.2" y="-13.7">13: toZonedDateTime</tspan></text></g><g transform="matrix(0,1,-1,0,857,546)" id="shape39"><path d="M2,-2L61,-2L61,13.1L2,13.1L2,-2z" fill="#000000" fill-opacity="0.08"/><path d="M0,0L59,0L59,15.1L0,15.1L0,0z" fill="url(#lg1)" stroke="#6d6d6d"/></g><g transform="matrix(-1,0,0,-1,841.9,596)" id="shape40"><path stroke-dasharray="6,4" d="M0,-0L348.3,-0" fill="none" stroke="#000000"/><path d="M336.3,-6L348.3,-0L336.3,6" stroke-linejoin="round" fill="none" stroke-width="1" stroke="#000000" stroke-linecap="round"/><text class="st2" transform="matrix(-1,0,0,-1,313.5,33.5)"><tspan x="101.7" y="19.7">14: ZonedDateTime time</tspan></text></g><g transform="matrix(0,1,-1,0,915.6,621)" id="shape41"><path d="M2,-2L61,-2L61,13.1L2,13.1L2,-2z" fill="#000000" fill-opacity="0.08"/><path d="M0,0L59,0L59,15.1L0,15.1L0,0z" fill="url(#lg1)" stroke="#6d6d6d"/></g><g transform="matrix(1,-0,0,1,493.6,646)" id="shape42"><path d="M0,-0L394.9,-0" fill="none" stroke="#000000"/><path d="M394.9,-6L406.9,-0L394.9,6L394.9,-6" fill="#000000" stroke-width="1" stroke="#000000" stroke-linecap="round"/><text class="st2"><tspan x="114.6" y="-19.7">15: create(Datastream stream, Object </tspan><tspan x="171.6" y="-7.7">result, time)</tspan></text></g><g transform="matrix(-1,0,-0,-1,900.4,671)" id="shape43"><path stroke-dasharray="6,4" d="M0,-0L406.9,-0" fill="none" stroke="#000000"/><path d="M394.9,-6L406.9,-0L394.9,6" stroke-linejoin="round" fill="none" stroke-width="1" stroke="#000000" stroke-linecap="round"/><text class="st2" transform="matrix(-1,0,0,-1,366.2,33.5)"><tspan x="138.1" y="19.7">16: Observation obs</tspan></text></g><g transform="translate(493.56,696.05)" id="shape44"><path d="M0,-0L451.9,-0" fill="none" stroke="#000000"/><path d="M451.9,-6L463.9,-0L451.9,6L451.9,-6" fill="#000000" stroke-width="1" stroke="#000000" stroke-linecap="round"/><text class="st2"><tspan x="197.3" y="-13.7">17: find(obs)</tspan></text></g><g transform="matrix(0,1,-1,0,972.6,671)" id="shape45"><path d="M2,-2L77,-2L77,13.1L2,13.1L2,-2z" fill="#000000" fill-opacity="0.08"/><path d="M0,0L75,0L75,15.1L0,15.1L0,0z" fill="url(#lg1)" stroke="#6d6d6d"/></g><g transform="matrix(-1,0,0,-1,957.4,721)" id="shape46"><path stroke-dasharray="6,4" d="M0,-0L463.9,-0" fill="none" stroke="#000000"/><path d="M451.9,-6L463.9,-0L451.9,6" stroke-linejoin="round" fill="none" stroke-width="1" stroke="#000000" stroke-linecap="round"/><text class="st2" transform="matrix(-1,0,0,-1,417.5,33.5)"><tspan x="161.2" y="19.7">18: boolean duplicate</tspan></text></g><g transform="matrix(1,-0,0,1,493.6,771)" id="shape47"><path d="M0,-0L508.9,-0" fill="none" stroke="#000000"/><path d="M508.9,-6L520.9,-0L508.9,6L508.9,-6" fill="#000000" stroke-width="1" stroke="#000000" stroke-linecap="round"/><text class="st2"><tspan x="227" y="-13.7">19: create()</tspan></text></g><g transform="matrix(0,1,-1,0,1029.6,746)" id="shape48"><path d="M2,-2L40,-2L40,13.1L2,13.1L2,-2z" fill="#000000" fill-opacity="0.08"/><path d="M0,0L38,0L38,15.1L0,15.1L0,0z" fill="url(#lg1)" stroke="#6d6d6d"/></g><g transform="matrix(0,1,-1,0,803.6,496)" id="shape49"><path d="M2,-2L61,-2L61,13.1L2,13.1L2,-2z" fill="#000000" fill-opacity="0.08"/><path d="M0,0L59,0L59,15.1L0,15.1L0,0z" fill="url(#lg1)" stroke="#6d6d6d"/></g><g transform="matrix(1,0.02,-0.02,1,685.6,396)" id="shape50"><path d="M0,-0L51.4,-0" fill="none" stroke="#000000"/><path d="M51.4,-6L63.4,-0L51.4,6L51.4,-6" fill="#000000" stroke-width="1" stroke="#000000" stroke-linecap="round"/><text class="st2"><tspan x="-0.2" y="-13.7">8: new Table()</tspan></text></g><g transform="translate(152,87.05)"><path d="M2,2L96,2L96,36L2,36L2,2z" fill="#000000" fill-opacity="0.08"/><g id="shape51"><path d="M0,0L94,0L94,34L0,34L0,0z" fill="url(#lg1)" stroke="#6d6d6d"/><text class="st2"><tspan x="18.4" y="19.8">MainWindow</tspan></text></g><path d="M47,34L47,773L47,34z" fill="none" id="shape52" stroke="#6d6d6d"/></g><g transform="matrix(0,1,-1,0,206.6,171)" id="shape53"><path d="M2,-2L152,-2L152,13.1L2,13.1L2,-2z" fill="#000000" fill-opacity="0.08"/><path d="M0,0L150,0L150,15.1L0,15.1L0,0z" fill="url(#lg1)" stroke="#6d6d6d"/></g><g transform="matrix(0,1,-1,0,206.6,196)" id="shape54"><path d="M0,0L0,-47.2L25,-47.2L25,-10.4" fill="none" stroke="#000000"/><path d="M25,0L27.6,-10.4L22.4,-10.4L25,0" fill="#000000" stroke-width="1" stroke="#000000" stroke-linecap="round"/><text class="st2" transform="matrix(0,-1,1,0,40.9,-71.6)"><tspan x="-37.9" y="-53.2">2: import()</tspan></text></g><g transform="translate(206.56,271.05)" id="shape55"><path d="M0,-0L125.9,-0" fill="none" stroke="#000000"/><path d="M125.9,-6L137.9,-0L125.9,6L125.9,-6" fill="#000000" stroke-width="1" stroke="#000000" stroke-linecap="round"/><text class="st2"><tspan x="5" y="-19.7">3: ImportData(Configuration </tspan><tspan x="16" y="-7.7">config, String filename)</tspan></text></g><g transform="translate(360,491)" id="shape56"><path stroke="#000000" stroke-opacity="0.08"/><path d="M0,0L681,0L681,305L0,305L0,0zM0,0L170.3,0L136.2,20L0,20L0,0" fill="none" stroke="#6d6d6d"/><text class="st2"><tspan x="74.1" y="13">Loop</tspan></text></g></g></svg>