<svg width="1251" xmlns:ev="http://www.w3.org/2001/xml-events" viewBox="0 0 1251 906" xmlns:xlink="http://www.w3.org/1999/xlink" xmlns="http://www.w3.org/2000/svg" height="906"><style type="text/css"><![CDATA[
.st2 {fill:#303030;font-family:Arial;font-size:7.5pt;font-weight:bold}
.st1 {fill:#303030;font-family:Arial;font-size:7.5pt}
]]></style><defs><linearGradient id="lg1" y1="0%" y2="100%" x1="0%" x2="0%"><stop offset="0" stop-color="#fbfbfb"/><stop offset="1" stop-color="#efefef"/></linearGradient></defs><g transform="translate(5,5)" id="page1"><rect width="1241" x="0" y="0" fill="#ffffff" stroke="#808080" height="896"/><g transform="translate(399,87.05)"><path d="M2,2L96,2L96,36L2,36L2,2z" fill="#000000" fill-opacity="0.08"/><g id="shape1"><path d="M0,0L94,0L94,34L0,34L0,0z" fill="url(#lg1)" stroke="#6d6d6d"/><text class="st1"><tspan x="13.4" y="19.8">UploadHandler</tspan></text></g><path d="M47,34L47,187L47,34z" fill="none" id="shape2" stroke="#6d6d6d"/></g><g transform="translate(40,40.05)" id="shape3"><path stroke="#000000" stroke-opacity="0.08"/><path d="M0,0L1160,0L1160,815L0,815L0,0zM0,0L290,0L232,20L0,20L0,0" fill="none" stroke="#6d6d6d"/><text class="st2"><tspan x="96" y="13">SD Import von Daten</tspan></text></g><g transform="translate(140,87.05)"><path d="M2,2L96,2L96,36L2,36L2,2z" fill="#000000" fill-opacity="0.08"/><g id="shape4"><path d="M0,0L94,0L94,34L0,34L0,0z" fill="url(#lg1)" stroke="#6d6d6d"/><text class="st1"><tspan x="29.4" y="13.8">Upload-</tspan><tspan x="25.4" y="25.8">Controller</tspan></text></g><path d="M47,34L47,93L47,34z" fill="none" id="shape5" stroke="#6d6d6d"/></g><g transform="translate(298,87.05)"><path d="M2,2L96,2L96,36L2,36L2,2z" fill="#000000" fill-opacity="0.08"/><g id="shape6"><path d="M0,0L94,0L94,34L0,34L0,0z" fill="url(#lg1)" stroke="#6d6d6d"/><text class="st1"><tspan x="17.4" y="19.8">Konfiguration</tspan></text></g><path d="M47,34L47,123.1L47,34z" fill="none" id="shape7" stroke="#6d6d6d"/></g><g transform="translate(502,87.05)"><path d="M2,2L96,2L96,36L2,36L2,2z" fill="#000000" fill-opacity="0.08"/><g id="shape8"><path d="M0,0L94,0L94,34L0,34L0,0z" fill="url(#lg1)" stroke="#6d6d6d"/><text class="st1"><tspan x="37.4" y="13.8">File-</tspan><tspan x="17.4" y="25.8">Management</tspan></text></g><path d="M47,34L47,225L47,34z" fill="none" id="shape9" stroke="#6d6d6d"/></g><g transform="translate(603,87.05)"><path d="M2,2L96,2L96,36L2,36L2,2z" fill="#000000" fill-opacity="0.08"/><g id="shape10"><path d="M0,0L94,0L94,34L0,34L0,0z" fill="url(#lg1)" stroke="#6d6d6d"/><text class="st1"><tspan x="19.4" y="19.8">ConvertCSV</tspan></text></g><path d="M47,34L47,286L47,34z" fill="none" id="shape11" stroke="#6d6d6d"/></g><g transform="translate(892,87.05)"><path d="M2,2L96,2L96,36L2,36L2,2z" fill="#000000" fill-opacity="0.08"/><g id="shape12"><path d="M0,0L94,0L94,34L0,34L0,0z" fill="url(#lg1)" stroke="#6d6d6d"/><text class="st1"><tspan x="9.4" y="13.8">ObservationCrea</tspan><tspan x="41.4" y="25.8">tor</tspan></text></g><path d="M47,34L47,570L47,34z" fill="none" id="shape13" stroke="#6d6d6d"/></g><g transform="translate(794,87.05)"><path d="M2,2L96,2L96,36L2,36L2,2z" fill="#000000" fill-opacity="0.08"/><g id="shape14"><path d="M0,0L94,0L94,34L0,34L0,0z" fill="url(#lg1)" stroke="#6d6d6d"/><text class="st1"><tspan x="21.4" y="19.8">TimeParser</tspan></text></g><path d="M47,34L47,485L47,34z" fill="none" id="shape15" stroke="#6d6d6d"/></g><g transform="translate(990,87.05)"><path d="M2,2L96,2L96,36L2,36L2,2z" fill="#000000" fill-opacity="0.08"/><g id="shape16"><path d="M0,0L94,0L94,34L0,34L0,0z" fill="url(#lg1)" stroke="#6d6d6d"/><text class="st1"><tspan x="12.4" y="19.8">CheckDuplicate</tspan></text></g><path d="M47,34L47,641L47,34z" fill="none" id="shape17" stroke="#6d6d6d"/></g><g transform="translate(1088,87.05)"><path d="M2,2L96,2L96,36L2,36L2,2z" fill="#000000" fill-opacity="0.08"/><g id="shape18"><path d="M0,0L94,0L94,34L0,34L0,0z" fill="url(#lg1)" stroke="#6d6d6d"/><text class="st1"><tspan x="10.4" y="13.8">SensorThingsSe</tspan><tspan x="36.4" y="25.8">rvice</tspan></text></g><path d="M47,34L47,711L47,34z" fill="none" id="shape19" stroke="#6d6d6d"/></g><g transform="translate(74,71.05)"><path d="M0,0L21,0L0,0z" transform="translate(-0.03,17.28)" fill="none" id="shape20" stroke="#6d6d6d"/><path d="M10.5,0L10.5,22.4L10.5,0zM0,39.1L10.5,22.7L0,39.1z" transform="translate(0,8.87)" fill="none" id="shape21" stroke="#6d6d6d"/><path d="M0,0L10.5,16.7L0,0z" transform="translate(10.5,31.3)" fill="none" id="shape22" stroke="#6d6d6d"/><path d="M0,5.4C0,2.4,2.3,0,5.1,0C7.9,0,10.2,2.4,10.2,5.4C10.2,8.3,7.9,10.8,5.1,10.8C2.3,10.8,0,8.3,0,5.4z" transform="translate(5.42,-0.04)" fill="url(#lg1)" id="shape23" stroke="#6d6d6d"/><text class="st1"><tspan x="-9.5" y="63">Benutzer</tspan></text></g><g transform="matrix(0,1,-1,0,88.6,146)" id="shape24"><path d="M2,-2L64,-2L64,13.1L2,13.1L2,-2z" fill="#000000" fill-opacity="0.08"/><path d="M0,0L62,0L62,15.1L0,15.1L0,0z" fill="url(#lg1)" stroke="#6d6d6d"/></g><g transform="matrix(0,1,-1,0,194.6,171)" id="shape25"><path d="M2,-2L143,-2L143,13.1L2,13.1L2,-2z" fill="#000000" fill-opacity="0.08"/><path d="M0,0L141,0L141,15.1L0,15.1L0,0z" fill="url(#lg1)" stroke="#6d6d6d"/></g><g transform="matrix(0,1,-1,0,453.6,271)" id="shape26"><path d="M2,-2L567,-2L567,13.1L2,13.1L2,-2z" fill="#000000" fill-opacity="0.08"/><path d="M0,0L565,0L565,15.1L0,15.1L0,0z" fill="url(#lg1)" stroke="#6d6d6d"/></g><g transform="matrix(0,1,-1,0,352.6,171)" id="shape27"><path d="M2,-2L86,-2L86,13.1L2,13.1L2,-2z" fill="#000000" fill-opacity="0.08"/><path d="M0,0L84,0L84,15.1L0,15.1L0,0z" fill="url(#lg1)" stroke="#6d6d6d"/></g><g transform="matrix(0,1,-1,0,556.6,296)" id="shape28"><path d="M2,-2L57,-2L57,13.1L2,13.1L2,-2z" fill="#000000" fill-opacity="0.08"/><path d="M0,0L55,0L55,15.1L0,15.1L0,0z" fill="url(#lg1)" stroke="#6d6d6d"/></g><g transform="matrix(-0,1,-1,-0,657.6,371)" id="shape29"><path d="M2,-2L87,-2L87,13.1L2,13.1L2,-2z" fill="#000000" fill-opacity="0.08"/><path d="M0,0L85,0L85,15.1L0,15.1L0,0z" fill="url(#lg1)" stroke="#6d6d6d"/></g><g transform="matrix(1,-0,0,1,194.6,296)" id="shape30"><path d="M0,-0L231.9,-0" fill="none" stroke="#000000"/><path d="M231.9,-6L243.9,-0L231.9,6L231.9,-6" fill="#000000" stroke-width="1" stroke="#000000" stroke-linecap="round"/><text class="st1"><tspan x="50.5" y="-13.7">4: upload(Configuration config)</tspan></text></g><g transform="translate(194.56,196.05)" id="shape31"><path d="M0,-0L130.9,-0" fill="none" stroke="#000000"/><path d="M130.9,-6L142.9,-0L130.9,6L130.9,-6" fill="#000000" stroke-width="1" stroke="#000000" stroke-linecap="round"/><text class="st1"><tspan x="0.9" y="-13.7">2: convertToJava(JSONObject)</tspan></text></g><g transform="matrix(-1,0,0,-1,337.4,246)" id="shape32"><path stroke-dasharray="6,4" d="M0,-0L142.9,-0" fill="none" stroke="#000000"/><path d="M130.9,-6L142.9,-0L130.9,6" stroke-linejoin="round" fill="none" stroke-width="1" stroke="#000000" stroke-linecap="round"/><text class="st1" transform="matrix(-1,0,0,-1,128.6,33.5)"><tspan x="29.3" y="13.7">3: Configuration </tspan><tspan x="51.3" y="25.7">config</tspan></text></g><g transform="matrix(1,0,-0,1,454.6,321)" id="shape33"><path d="M0,-0L74.9,-0" fill="none" stroke="#000000"/><path d="M74.9,-6L86.9,-0L74.9,6L74.9,-6" fill="#000000" stroke-width="1" stroke="#000000" stroke-linecap="round"/><text class="st1"><tspan x="24.2" y="-13.7">5: load()</tspan></text></g><g transform="matrix(-1,-0,0,-1,541.4,346)" id="shape34"><path stroke-dasharray="6,4" d="M0,-0L86.9,-0" fill="none" stroke="#000000"/><path d="M74.9,-6L86.9,-0L74.9,6" stroke-linejoin="round" fill="none" stroke-width="1" stroke="#000000" stroke-linecap="round"/><text class="st1" transform="matrix(-1,0,0,-1,78.2,33.5)"><tspan x="3.1" y="19.7">6: File sourcefile</tspan></text></g><g transform="matrix(1,0,-0,1,88.6,196)" id="shape35"><path d="M0,-0L90.9,-0" fill="none" stroke="#000000"/><path d="M78.9,-6L90.9,-0L78.9,6" stroke-linejoin="round" fill="none" stroke-width="1" stroke="#000000" stroke-linecap="round"/><text class="st1"><tspan x="4.1" y="-19.7">1: Benutzer drückt </tspan><tspan x="9.1" y="-7.7">"Upload"-Button</tspan></text></g><g transform="matrix(1,-0,0,1,454.6,396)" id="shape36"><path d="M0,-0L175.9,-0" fill="none" stroke="#000000"/><path d="M175.9,-6L187.9,-0L175.9,6L175.9,-6" fill="#000000" stroke-width="1" stroke="#000000" stroke-linecap="round"/><text class="st1"><tspan x="50.3" y="-13.7">7: convert(File file)</tspan></text></g><g transform="matrix(-1,0,-0,-1,642.4,446)" id="shape37"><path stroke-dasharray="6,4" d="M0,-0L187.9,-0" fill="none" stroke="#000000"/><path d="M175.9,-6L187.9,-0L175.9,6" stroke-linejoin="round" fill="none" stroke-width="1" stroke="#000000" stroke-linecap="round"/><text class="st1" transform="matrix(-1,0,0,-1,169.1,33.5)"><tspan x="54.5" y="19.7">9: Table table</tspan></text></g><g transform="translate(453.56,546)" id="shape38"><path d="M0,-0L310.9,-0" fill="none" stroke="#000000"/><path d="M310.9,-6L322.9,-0L310.9,6L310.9,-6" fill="#000000" stroke-width="1" stroke="#000000" stroke-linecap="round"/><text class="st1"><tspan x="128.8" y="-13.7">11: getRow()</tspan></text></g><g transform="matrix(0,1,-1,0,453.6,496)" id="shape39"><path d="M0,0L0,-47.2L25,-47.2L25,-10.4" fill="none" stroke="#000000"/><path d="M25,0L27.6,-10.4L22.4,-10.4L25,0" fill="#000000" stroke-width="1" stroke="#000000" stroke-linecap="round"/><text class="st1" transform="matrix(0,-1,1,0,40.9,-71.6)"><tspan x="-69.4" y="-59.2">10: processTable(config, </tspan><tspan x="-46.4" y="-47.2">table, int step)</tspan></text></g><g transform="translate(737,404.05)"><path d="M2,2L96,2L96,36L2,36L2,2z" fill="#000000" fill-opacity="0.08"/><g id="shape40"><path d="M0,0L94,0L94,34L0,34L0,0z" fill="url(#lg1)" stroke="#6d6d6d"/><text class="st1"><tspan x="35.4" y="19.8">Table</tspan></text></g><path d="M47,34L47,119L47,34z" fill="none" id="shape41" stroke="#6d6d6d"/></g><g transform="matrix(-1,0,0,-1,776.4,571)" id="shape42"><path stroke-dasharray="6,4" d="M0,-0L322.9,-0" fill="none" stroke="#000000"/><path d="M310.9,-6L322.9,-0L310.9,6" stroke-linejoin="round" fill="none" stroke-width="1" stroke="#000000" stroke-linecap="round"/><text class="st1" transform="matrix(-1,0,0,-1,290.6,33.5)"><tspan x="99.3" y="19.7">12: List&lt;Object> row</tspan></text></g><g transform="translate(453.56,596)" id="shape43"><path d="M0,-0L367.9,-0" fill="none" stroke="#000000"/><path d="M367.9,-6L379.9,-0L367.9,6L367.9,-6" fill="#000000" stroke-width="1" stroke="#000000" stroke-linecap="round"/><text class="st1"><tspan x="178" y="-19.7">13: </tspan><tspan x="145" y="-7.7">toZonedDateTime</tspan></text></g><g transform="matrix(0,1,-1,0,848.6,571)" id="shape44"><path d="M2,-2L59,-2L59,13.1L2,13.1L2,-2z" fill="#000000" fill-opacity="0.08"/><path d="M0,0L57,0L57,15.1L0,15.1L0,0z" fill="url(#lg1)" stroke="#6d6d6d"/></g><g transform="matrix(-1,0,0,-1,833.4,621)" id="shape45"><path stroke-dasharray="6,4" d="M0,-0L379.9,-0" fill="none" stroke="#000000"/><path d="M367.9,-6L379.9,-0L367.9,6" stroke-linejoin="round" fill="none" stroke-width="1" stroke="#000000" stroke-linecap="round"/><text class="st1" transform="matrix(-1,0,0,-1,341.9,33.5)"><tspan x="115.9" y="19.7">14: ZonedDateTime time</tspan></text></g><g transform="matrix(0,1,-1,0,946.6,646)" id="shape46"><path d="M2,-2L65,-2L65,13.1L2,13.1L2,-2z" fill="#000000" fill-opacity="0.08"/><path d="M0,0L63,0L63,15.1L0,15.1L0,0z" fill="url(#lg1)" stroke="#6d6d6d"/></g><g transform="matrix(1,0,-0,1,453.6,671)" id="shape47"><path d="M0,-0L465.9,-0" fill="none" stroke="#000000"/><path d="M465.9,-6L477.9,-0L465.9,6L465.9,-6" fill="#000000" stroke-width="1" stroke="#000000" stroke-linecap="round"/><text class="st1"><tspan x="121.6" y="-13.7">15: create(Datastream stream, Object result, time)</tspan></text></g><g transform="matrix(-1,-0,0,-1,931.4,696)" id="shape48"><path stroke-dasharray="6,4" d="M0,-0L477.9,-0" fill="none" stroke="#000000"/><path d="M465.9,-6L477.9,-0L465.9,6" stroke-linejoin="round" fill="none" stroke-width="1" stroke="#000000" stroke-linecap="round"/><text class="st1" transform="matrix(-1,0,0,-1,430.1,33.5)"><tspan x="170" y="19.7">16: Observation obs</tspan></text></g><g transform="matrix(1,0,-0,1,453.6,746)" id="shape49"><path d="M0,-0L563.9,-0" fill="none" stroke="#000000"/><path d="M563.9,-6L575.9,-0L563.9,6L563.9,-6" fill="#000000" stroke-width="1" stroke="#000000" stroke-linecap="round"/><text class="st1"><tspan x="251.7" y="-13.7">17: find(obs)</tspan></text></g><g transform="matrix(0,1,-1,0,1044.6,721)" id="shape50"><path d="M2,-2L65,-2L65,13.1L2,13.1L2,-2z" fill="#000000" fill-opacity="0.08"/><path d="M0,0L63,0L63,15.1L0,15.1L0,0z" fill="url(#lg1)" stroke="#6d6d6d"/></g><g transform="matrix(-1,-0,0,-1,1029.4,771)" id="shape51"><path stroke-dasharray="6,4" d="M0,-0L575.9,-0" fill="none" stroke="#000000"/><path d="M563.9,-6L575.9,-0L563.9,6" stroke-linejoin="round" fill="none" stroke-width="1" stroke="#000000" stroke-linecap="round"/><text class="st1" transform="matrix(-1,0,0,-1,518.3,33.5)"><tspan x="211.6" y="19.7">18: boolean duplicate</tspan></text></g><g transform="matrix(1,0,-0,1,453.6,821)" id="shape52"><path d="M0,-0L661.9,-0" fill="none" stroke="#000000"/><path d="M661.9,-6L673.9,-0L661.9,6L661.9,-6" fill="#000000" stroke-width="1" stroke="#000000" stroke-linecap="round"/><text class="st1"><tspan x="301.3" y="-13.7">19: create()</tspan></text></g><g transform="matrix(0,1,-1,0,1142.6,796)" id="shape53"><path d="M2,-2L37,-2L37,13.1L2,13.1L2,-2z" fill="#000000" fill-opacity="0.08"/><path d="M0,0L35,0L35,15.1L0,15.1L0,0z" fill="url(#lg1)" stroke="#6d6d6d"/></g><g transform="matrix(0,1,-1,0,791.6,521)" id="shape54"><path d="M2,-2L61,-2L61,13.1L2,13.1L2,-2z" fill="#000000" fill-opacity="0.08"/><path d="M0,0L59,0L59,15.1L0,15.1L0,0z" fill="url(#lg1)" stroke="#6d6d6d"/></g><g transform="matrix(1,0,-0,1,657.6,421)" id="shape55"><path d="M0,-0L67.4,-0" fill="none" stroke="#000000"/><path d="M67.4,-6L79.4,-0L67.4,6L67.4,-6" fill="#000000" stroke-width="1" stroke="#000000" stroke-linecap="round"/><text class="st1"><tspan x="7.6" y="-13.7">8: new Table()</tspan></text></g></g></svg>