<svg width="1221" xmlns:ev="http://www.w3.org/2001/xml-events" viewBox="0 0 1221 840" xmlns:xlink="http://www.w3.org/1999/xlink" xmlns="http://www.w3.org/2000/svg" height="840"><style type="text/css"><![CDATA[
.st1 {fill:#303030;font-family:Arial;font-size:7.5pt;font-weight:bold}
.st2 {fill:#303030;font-family:Arial;font-size:7.5pt}
]]></style><defs><linearGradient id="lg1" y1="0%" y2="100%" x1="0%" x2="0%"><stop offset="0" stop-color="#fbfbfb"/><stop offset="1" stop-color="#efefef"/></linearGradient></defs><g transform="translate(5,5)" id="page1"><rect width="1211" x="0" y="0" fill="#ffffff" stroke="#808080" height="830"/><g transform="translate(40,40.05)" id="shape1"><path stroke="#000000" stroke-opacity="0.08"/><path d="M0,0L1130,0L1130,749L0,749L0,0zM0,0L282.5,0L226,20L0,20L0,0" fill="none" stroke="#6d6d6d"/><text class="st1"><tspan x="92.3" y="13">SD Import von Daten</tspan></text></g><g transform="translate(140,87.05)"><path d="M2,2L96,2L96,36L2,36L2,2z" fill="#000000" fill-opacity="0.08"/><g id="shape2"><path d="M0,0L94,0L94,34L0,34L0,0z" fill="url(#lg1)" stroke="#6d6d6d"/><text class="st2"><tspan x="29.4" y="13.8">Upload-</tspan><tspan x="25.4" y="25.8">Controller</tspan></text></g><path d="M47,34L47,93L47,34z" fill="none" id="shape3" stroke="#6d6d6d"/></g><g transform="translate(243,87.05)"><path d="M2,2L96,2L96,36L2,36L2,2z" fill="#000000" fill-opacity="0.08"/><g id="shape4"><path d="M0,0L94,0L94,34L0,34L0,0z" fill="url(#lg1)" stroke="#6d6d6d"/><text class="st2"><tspan x="13.4" y="19.8">UploadHandler</tspan></text></g><path d="M47,34L47,123.1L47,34z" fill="none" id="shape5" stroke="#6d6d6d"/></g><g transform="translate(356,87.05)"><path d="M2,2L96,2L96,36L2,36L2,2z" fill="#000000" fill-opacity="0.08"/><g id="shape6"><path d="M0,0L94,0L94,34L0,34L0,0z" fill="url(#lg1)" stroke="#6d6d6d"/><text class="st2"><tspan x="13.4" y="13.8">Konfigurations-</tspan><tspan x="17.4" y="25.8">Management</tspan></text></g><path d="M47,34L47,123.1L47,34z" fill="none" id="shape7" stroke="#6d6d6d"/></g><g transform="translate(457,87.05)"><path d="M2,2L96,2L96,36L2,36L2,2z" fill="#000000" fill-opacity="0.08"/><g id="shape8"><path d="M0,0L94,0L94,34L0,34L0,0z" fill="url(#lg1)" stroke="#6d6d6d"/><text class="st2"><tspan x="37.4" y="13.8">File-</tspan><tspan x="17.4" y="25.8">Management</tspan></text></g><path d="M47,34L47,225L47,34z" fill="none" id="shape9" stroke="#6d6d6d"/></g><g transform="translate(557,87.05)"><path d="M2,2L96,2L96,36L2,36L2,2z" fill="#000000" fill-opacity="0.08"/><g id="shape10"><path d="M0,0L94,0L94,34L0,34L0,0z" fill="url(#lg1)" stroke="#6d6d6d"/><text class="st2"><tspan x="19.4" y="19.8">ConvertCSV</tspan></text></g><path d="M47,34L47,263L47,34z" fill="none" id="shape11" stroke="#6d6d6d"/></g><g transform="translate(855.12,87.05)"><path d="M2,2L96,2L96,36L2,36L2,2z" fill="#000000" fill-opacity="0.08"/><g id="shape12"><path d="M0,0L94,0L94,34L0,34L0,0z" fill="url(#lg1)" stroke="#6d6d6d"/><text class="st2"><tspan x="9.4" y="13.8">ObservationCrea</tspan><tspan x="41.4" y="25.8">tor</tspan></text></g><path d="M47,34L47,532L47,34z" fill="none" id="shape13" stroke="#6d6d6d"/></g><g transform="translate(755,87.05)"><path d="M2,2L96,2L96,36L2,36L2,2z" fill="#000000" fill-opacity="0.08"/><g id="shape14"><path d="M0,0L94,0L94,34L0,34L0,0z" fill="url(#lg1)" stroke="#6d6d6d"/><text class="st2"><tspan x="21.4" y="19.8">TimeParser</tspan></text></g><path d="M47,34L47,475L47,34z" fill="none" id="shape15" stroke="#6d6d6d"/></g><g transform="translate(954.56,87.05)"><path d="M2,2L96,2L96,36L2,36L2,2z" fill="#000000" fill-opacity="0.08"/><g id="shape16"><path d="M0,0L94,0L94,34L0,34L0,0z" fill="url(#lg1)" stroke="#6d6d6d"/><text class="st2"><tspan x="12.4" y="19.8">CheckDuplicate</tspan></text></g><path d="M47,34L47,598L47,34z" fill="none" id="shape17" stroke="#6d6d6d"/></g><g transform="translate(1055,87.05)"><path d="M2,2L96,2L96,36L2,36L2,2z" fill="#000000" fill-opacity="0.08"/><g id="shape18"><path d="M0,0L94,0L94,34L0,34L0,0z" fill="url(#lg1)" stroke="#6d6d6d"/><text class="st2"><tspan x="10.4" y="13.8">SensorThingsSe</tspan><tspan x="36.4" y="25.8">rvice</tspan></text></g><path d="M47,34L47,664L47,34z" fill="none" id="shape19" stroke="#6d6d6d"/></g><g transform="translate(74,71.05)"><path d="M0,0L21,0L0,0z" transform="translate(-0.03,17.28)" fill="none" id="shape20" stroke="#6d6d6d"/><path d="M10.5,0L10.5,22.4L10.5,0zM0,39.1L10.5,22.7L0,39.1z" transform="translate(0,8.87)" fill="none" id="shape21" stroke="#6d6d6d"/><path d="M0,0L10.5,16.7L0,0z" transform="translate(10.5,31.3)" fill="none" id="shape22" stroke="#6d6d6d"/><path d="M0,5.4C0,2.4,2.3,0,5.1,0C7.9,0,10.2,2.4,10.2,5.4C10.2,8.3,7.9,10.8,5.1,10.8C2.3,10.8,0,8.3,0,5.4z" transform="translate(5.42,-0.04)" fill="url(#lg1)" id="shape23" stroke="#6d6d6d"/><text class="st2"><tspan x="-9.5" y="63">Benutzer</tspan></text></g><g transform="matrix(0,1,-1,0,88.6,146)" id="shape24"><path d="M2,-2L64.1,-2L64.1,13.1L2,13.1L2,-2z" fill="#000000" fill-opacity="0.08"/><path d="M0,0L62.1,0L62.1,15.1L0,15.1L0,0z" fill="url(#lg1)" stroke="#6d6d6d"/></g><g transform="matrix(0,1,-1,0,194.6,171)" id="shape25"><path d="M2,-2L58,-2L58,13.1L2,13.1L2,-2z" fill="#000000" fill-opacity="0.08"/><path d="M0,0L56,0L56,15.1L0,15.1L0,0z" fill="url(#lg1)" stroke="#6d6d6d"/></g><g transform="matrix(0,1,-1,0,297.6,171)" id="shape26"><path d="M2,-2L606,-2L606,13.1L2,13.1L2,-2z" fill="#000000" fill-opacity="0.08"/><path d="M0,0L604,0L604,15.1L0,15.1L0,0z" fill="url(#lg1)" stroke="#6d6d6d"/></g><g transform="matrix(0,1,-1,0,410.6,196)" id="shape27"><path d="M2,-2L90,-2L90,13.1L2,13.1L2,-2z" fill="#000000" fill-opacity="0.08"/><path d="M0,0L88,0L88,15.1L0,15.1L0,0z" fill="url(#lg1)" stroke="#6d6d6d"/></g><g transform="matrix(0,1,-1,0,512.6,296)" id="shape28"><path d="M2,-2L57,-2L57,13.1L2,13.1L2,-2z" fill="#000000" fill-opacity="0.08"/><path d="M0,0L55,0L55,15.1L0,15.1L0,0z" fill="url(#lg1)" stroke="#6d6d6d"/></g><g transform="matrix(0,1,-1,0,611.6,347)" id="shape29"><path d="M2,-2L90.1,-2L90.1,13.1L2,13.1L2,-2z" fill="#000000" fill-opacity="0.08"/><path d="M0,0L88.1,0L88.1,15.1L0,15.1L0,0z" fill="url(#lg1)" stroke="#6d6d6d"/></g><g transform="matrix(1,-0,0,1,194.6,196)" id="shape30"><path d="M0,-0L75.9,-0" fill="none" stroke="#000000"/><path d="M75.9,-6L87.9,-0L75.9,6L75.9,-6" fill="#000000" stroke-width="1" stroke="#000000" stroke-linecap="round"/><text class="st2"><tspan x="18.7" y="-13.7">2: upload()</tspan></text></g><g transform="matrix(1,-0,0,1,297.6,221)" id="shape31"><path d="M0,-0L85.9,-0" fill="none" stroke="#000000"/><path d="M85.9,-6L97.9,-0L85.9,6L85.9,-6" fill="#000000" stroke-width="1" stroke="#000000" stroke-linecap="round"/><text class="st2"><tspan x="29.5" y="-13.7">3: load()</tspan></text></g><g transform="matrix(-1,0,-0,-1,395.4,271)" id="shape32"><path stroke-dasharray="6,4" d="M0,-0L97.9,-0" fill="none" stroke="#000000"/><path d="M85.9,-6L97.9,-0L85.9,6" stroke-linejoin="round" fill="none" stroke-width="1" stroke="#000000" stroke-linecap="round"/><text class="st2" transform="matrix(-1,0,0,-1,88.1,33.5)"><tspan x="9" y="13.7">4: Configuration </tspan><tspan x="31" y="25.7">config</tspan></text></g><g transform="matrix(1,-0,0,1,297.6,321)" id="shape33"><path d="M0,-0L187.9,-0" fill="none" stroke="#000000"/><path d="M187.9,-6L199.9,-0L187.9,6L187.9,-6" fill="#000000" stroke-width="1" stroke="#000000" stroke-linecap="round"/><text class="st2"><tspan x="79.1" y="-13.7">5: load()</tspan></text></g><g transform="matrix(-1,0,-0,-1,497.4,346)" id="shape34"><path stroke-dasharray="6,4" d="M0,-0L199.9,-0" fill="none" stroke="#000000"/><path d="M187.9,-6L199.9,-0L187.9,6" stroke-linejoin="round" fill="none" stroke-width="1" stroke="#000000" stroke-linecap="round"/><text class="st2" transform="matrix(-1,0,0,-1,179.9,33.5)"><tspan x="53.9" y="19.7">6: File sourcefile</tspan></text></g><g transform="matrix(1,0,-0,1,88.6,196)" id="shape35"><path d="M0,-0L90.9,-0" fill="none" stroke="#000000"/><path d="M78.9,-6L90.9,-0L78.9,6" stroke-linejoin="round" fill="none" stroke-width="1" stroke="#000000" stroke-linecap="round"/><text class="st2"><tspan x="4.1" y="-19.7">1: Benutzer drückt </tspan><tspan x="9.1" y="-7.7">"Upload"-Button</tspan></text></g><g transform="matrix(1,0,-0,1,297.6,371)" id="shape36"><path d="M0,-0L286.9,-0" fill="none" stroke="#000000"/><path d="M286.9,-6L298.9,-0L286.9,6L286.9,-6" fill="#000000" stroke-width="1" stroke="#000000" stroke-linecap="round"/><text class="st2"><tspan x="104.2" y="-13.7">7: convert(File file)</tspan></text></g><g transform="matrix(-1,-0,0,-1,596.4,422)" id="shape37"><path stroke-dasharray="6,4" d="M0,-0L298.9,-0" fill="none" stroke="#000000"/><path d="M286.9,-6L298.9,-0L286.9,6" stroke-linejoin="round" fill="none" stroke-width="1" stroke="#000000" stroke-linecap="round"/><text class="st2" transform="matrix(-1,0,0,-1,269,33.5)"><tspan x="104.5" y="19.7">9: Table table</tspan></text></g><g transform="translate(297.56,510.05)" id="shape38"><path d="M0,-0L409.9,-0" fill="none" stroke="#000000"/><path d="M409.9,-6L421.9,-0L409.9,6L409.9,-6" fill="#000000" stroke-width="1" stroke="#000000" stroke-linecap="round"/><text class="st2"><tspan x="176.9" y="-13.7">11: getRow()</tspan></text></g><g transform="matrix(0,1,-1,0,297.6,460)" id="shape39"><path d="M0,0L0,-47.2L25,-47.2L25,-10.4" fill="none" stroke="#000000"/><path d="M25,0L27.6,-10.4L22.4,-10.4L25,0" fill="#000000" stroke-width="1" stroke="#000000" stroke-linecap="round"/><text class="st2" transform="matrix(0,-1,1,0,40.9,-71.6)"><tspan x="-69.4" y="-59.2">10: processTable(config, </tspan><tspan x="-46.4" y="-47.2">table, int step)</tspan></text></g><g transform="translate(680,380.05)"><path d="M2,2L96,2L96,36L2,36L2,2z" fill="#000000" fill-opacity="0.08"/><g id="shape40"><path d="M0,0L94,0L94,34L0,34L0,0z" fill="url(#lg1)" stroke="#6d6d6d"/><text class="st2"><tspan x="35.4" y="19.8">Table</tspan></text></g><path d="M47,34L47,100L47,34z" fill="none" id="shape41" stroke="#6d6d6d"/></g><g transform="matrix(-1,0,0,-1,719.4,535)" id="shape42"><path stroke-dasharray="6,4" d="M0,-0L421.9,-0" fill="none" stroke="#000000"/><path d="M409.9,-6L421.9,-0L409.9,6" stroke-linejoin="round" fill="none" stroke-width="1" stroke="#000000" stroke-linecap="round"/><text class="st2" transform="matrix(-1,0,0,-1,379.7,33.5)"><tspan x="143.8" y="19.7">12: List&lt;Object> row</tspan></text></g><g transform="matrix(1,-0,0,1,297.6,573)" id="shape43"><path d="M0,-0L484.9,-0" fill="none" stroke="#000000"/><path d="M484.9,-6L496.9,-0L484.9,6L484.9,-6" fill="#000000" stroke-width="1" stroke="#000000" stroke-linecap="round"/><text class="st2"><tspan x="193.3" y="-13.7">13: toZonedDateTime</tspan></text></g><g transform="matrix(0,1,-1,0,809.6,547)" id="shape44"><path d="M2,-2L59,-2L59,13.1L2,13.1L2,-2z" fill="#000000" fill-opacity="0.08"/><path d="M0,0L57,0L57,15.1L0,15.1L0,0z" fill="url(#lg1)" stroke="#6d6d6d"/></g><g transform="matrix(-1,0,-0,-1,794.4,597)" id="shape45"><path stroke-dasharray="6,4" d="M0,-0L496.9,-0" fill="none" stroke="#000000"/><path d="M484.9,-6L496.9,-0L484.9,6" stroke-linejoin="round" fill="none" stroke-width="1" stroke="#000000" stroke-linecap="round"/><text class="st2" transform="matrix(-1,0,0,-1,447.2,33.5)"><tspan x="168.6" y="19.7">14: ZonedDateTime time</tspan></text></g><g transform="matrix(0,1,-1,0,909.6,611)" id="shape46"><path d="M2,-2L65,-2L65,13.1L2,13.1L2,-2z" fill="#000000" fill-opacity="0.08"/><path d="M0,0L63,0L63,15.1L0,15.1L0,0z" fill="url(#lg1)" stroke="#6d6d6d"/></g><g transform="matrix(1,-0,0,1,297.6,637)" id="shape47"><path d="M0,-0L584.9,-0" fill="none" stroke="#000000"/><path d="M584.9,-6L596.9,-0L584.9,6L584.9,-6" fill="#000000" stroke-width="1" stroke="#000000" stroke-linecap="round"/><text class="st2"><tspan x="179.4" y="-13.7">15: create(Datastream stream, Object result, time)</tspan></text></g><g transform="matrix(-1,0,-0,-1,894.4,661)" id="shape48"><path stroke-dasharray="6,4" d="M0,-0L596.9,-0" fill="none" stroke="#000000"/><path d="M584.9,-6L596.9,-0L584.9,6" stroke-linejoin="round" fill="none" stroke-width="1" stroke="#000000" stroke-linecap="round"/><text class="st2" transform="matrix(-1,0,0,-1,537.2,33.5)"><tspan x="223.6" y="19.7">16: Observation obs</tspan></text></g><g transform="translate(297.56,705.05)" id="shape49"><path d="M0,-0L684.9,-0" fill="none" stroke="#000000"/><path d="M684.9,-6L696.9,-0L684.9,6L684.9,-6" fill="#000000" stroke-width="1" stroke="#000000" stroke-linecap="round"/><text class="st2"><tspan x="310.5" y="-13.7">17: find(obs)</tspan></text></g><g transform="matrix(0,1,-1,0,1009.6,680)" id="shape50"><path d="M2,-2L65,-2L65,13.1L2,13.1L2,-2z" fill="#000000" fill-opacity="0.08"/><path d="M0,0L63,0L63,15.1L0,15.1L0,0z" fill="url(#lg1)" stroke="#6d6d6d"/></g><g transform="matrix(-1,0,0,-1,994.4,730)" id="shape51"><path stroke-dasharray="6,4" d="M0,-0L696.9,-0" fill="none" stroke="#000000"/><path d="M684.9,-6L696.9,-0L684.9,6" stroke-linejoin="round" fill="none" stroke-width="1" stroke="#000000" stroke-linecap="round"/><text class="st2" transform="matrix(-1,0,0,-1,627.2,33.5)"><tspan x="266.1" y="19.7">18: boolean duplicate</tspan></text></g><g transform="matrix(1,-0,0,1,297.6,771)" id="shape52"><path d="M0,-0L784.9,-0" fill="none" stroke="#000000"/><path d="M784.9,-6L796.9,-0L784.9,6L784.9,-6" fill="#000000" stroke-width="1" stroke="#000000" stroke-linecap="round"/><text class="st2"><tspan x="361.1" y="-13.7">19: create()</tspan></text></g><g transform="matrix(0,1,-1,0,1109.6,745)" id="shape53"><path d="M2,-2L37,-2L37,13.1L2,13.1L2,-2z" fill="#000000" fill-opacity="0.08"/><path d="M0,0L35,0L35,15.1L0,15.1L0,0z" fill="url(#lg1)" stroke="#6d6d6d"/></g><g transform="matrix(0,1,-1,0,734.6,485)" id="shape54"><path d="M2,-2L61,-2L61,13.1L2,13.1L2,-2z" fill="#000000" fill-opacity="0.08"/><path d="M0,0L59,0L59,15.1L0,15.1L0,0z" fill="url(#lg1)" stroke="#6d6d6d"/></g><g transform="matrix(1,0,-0,1,611.6,397)" id="shape55"><path d="M0,-0L56.4,-0" fill="none" stroke="#000000"/><path d="M56.4,-6L68.4,-0L56.4,6L56.4,-6" fill="#000000" stroke-width="1" stroke="#000000" stroke-linecap="round"/><text class="st2"><tspan x="2.2" y="-13.7">8: new Table()</tspan></text></g></g></svg>